/* XPM */
static const char * arc_yes_xpm[] = {
"16 16 4 1",
" 	c None",
".	c #FF0000",
"+	c #00FF00",
"@	c #0000FF",
"                ",
"       ++       ",
"       ++++     ",
"        ++++    ",
"          +++   ",
"            ++  ",
"            ++  ",
"  .......  +++  ",
"  .   @@.++++   ",
"  . @@@@.+++    ",
"  .@@@  .       ",
"  .@@   .       ",
"  .......       ",
" +++            ",
" ++             ",
"                "};
