/* XPM */
static const char * checked_brush3_xpm[] = {
"16 16 3 1",
" 	c None",
".	c #E0FFF0",
"+	c #D8F8E8",
"++++++++........",
"++++++++........",
"++++++++........",
"++++++++........",
"++++++++........",
"++++++++........",
"++++++++........",
"++++++++........",
"........++++++++",
"........++++++++",
"........++++++++",
"........++++++++",
"........++++++++",
"........++++++++",
"........++++++++",
"........++++++++"};
