/* XPM */
static const char * checked_brush_xpm[] = {
"16 16 3 1",
" 	c None",
".	c #E0E0E0",
"+	c #D8D8D8",
"++++++++........",
"++++++++........",
"++++++++........",
"++++++++........",
"++++++++........",
"++++++++........",
"++++++++........",
"++++++++........",
"........++++++++",
"........++++++++",
"........++++++++",
"........++++++++",
"........++++++++",
"........++++++++",
"........++++++++",
"........++++++++"};
