/* XPM */
static const char * checked_brush2_xpm[] = {
"16 16 3 1",
" 	c None",
".	c #FFF0E0",
"+	c #F8E8D8",
"++++++++........",
"++++++++........",
"++++++++........",
"++++++++........",
"++++++++........",
"++++++++........",
"++++++++........",
"++++++++........",
"........++++++++",
"........++++++++",
"........++++++++",
"........++++++++",
"........++++++++",
"........++++++++",
"........++++++++",
"........++++++++"};
