/* XPM */
static const char * drop_network_xpm[] = {
"16 16 25 1",
" 	c None",
".	c #FFFFFF",
"+	c #FF8000",
"@	c #A8A8A8",
"#	c #A7A7A7",
"$	c #A5A5A5",
"%	c #A4A4A4",
"&	c #A1A1A1",
"*	c #A0A0A0",
"=	c #FF0000",
"-	c #DADADA",
";	c #D5D5D5",
">	c #D1D1D1",
",	c #C7C7C7",
"'	c #9F9F9F",
")	c #9A9A9A",
"!	c #949494",
"~	c #9E9E9E",
"{	c #858585",
"]	c #707070",
"^	c #A2A2A2",
"/	c #C5C5C5",
"(	c #777777",
"_	c #8D8D8D",
":	c #7D7D7D",
"                ",
"                ",
"     ......     ",
"    +@#$%&*+    ",
"   +=+-;>,+=+   ",
"...@+=+')+=+!...",
".~~~~+=++=+~~~~.",
".-----+==+-----.",
".{{{{{+==+]]]]].",
"...^.+=++=+/(...",
"   .+=+;>+=+.   ",
"   +=+_{:(+=+   ",
"    +......+    ",
"                ",
"                ",
"                "};
