/* XPM */
static const char * edit_yes_xpm[] = {
"16 16 147 2",
"  	c None",
". 	c #A2C1EF",
"+ 	c #9FC0ED",
"@ 	c #9DBEEB",
"# 	c #9ABCEB",
"$ 	c #96BAE9",
"% 	c #93B7E7",
"& 	c #90B5E6",
"* 	c #8CB2E4",
"= 	c #88AFE2",
"- 	c #84ACE0",
"; 	c #80A9DD",
"> 	c #7DA5DC",
", 	c #7AA3DA",
"' 	c #A1C1EE",
") 	c #F4F7FB",
"! 	c #74A0D7",
"~ 	c #9EBFEC",
"{ 	c #A5D59C",
"] 	c #A1D398",
"^ 	c #9DD094",
"/ 	c #98CE90",
"( 	c #93CB8B",
"_ 	c #8EC987",
": 	c #89C682",
"< 	c #84C37E",
"[ 	c #80C17A",
"} 	c #7CBE76",
"| 	c #6F9BD4",
"1 	c #9BBDEB",
"2 	c #FFFFFF",
"3 	c #6A97D1",
"4 	c #98BAE9",
"5 	c #A6C3E9",
"6 	c #B8BDAD",
"7 	c #D8A558",
"8 	c #DBB185",
"9 	c #D09D46",
"0 	c #94B7E7",
"a 	c #A9C4E8",
"b 	c #ACC7E8",
"c 	c #F5E6B1",
"d 	c #E7BE77",
"e 	c #F0D2B4",
"f 	c #FFF3E5",
"g 	c #EFD2AC",
"h 	c #C78C48",
"i 	c #8FB4E5",
"j 	c #F2F6FA",
"k 	c #AAC6E9",
"l 	c #ACC6E9",
"m 	c #ACC7EA",
"n 	c #ADC7E9",
"o 	c #AEC9E9",
"p 	c #B0C9E9",
"q 	c #BEC1A6",
"r 	c #EDD581",
"s 	c #F9E3B2",
"t 	c #E7C08B",
"u 	c #F6D3AE",
"v 	c #FCE0C4",
"w 	c #D39F66",
"x 	c #8CB1E3",
"y 	c #F1F6FA",
"z 	c #AEC9EA",
"A 	c #B0C9EA",
"B 	c #F7EBC1",
"C 	c #EDD47D",
"D 	c #FDF6C4",
"E 	c #F6DD6C",
"F 	c #EDCA6D",
"G 	c #D7A363",
"H 	c #C99965",
"I 	c #87AEE1",
"J 	c #F0F4FA",
"K 	c #B2CBEA",
"L 	c #B3CCEA",
"M 	c #BFC4B0",
"N 	c #EED379",
"O 	c #FDF7C7",
"P 	c #F5DC5F",
"Q 	c #F7E25B",
"R 	c #F2D67A",
"S 	c #DEA050",
"T 	c #6B87AC",
"U 	c #82AADF",
"V 	c #EFF3F9",
"W 	c #B7CEEA",
"X 	c #BBD0EB",
"Y 	c #E7D6B1",
"Z 	c #E7CB77",
"` 	c #F5DC5E",
" .	c #F7E15A",
"..	c #F1D47B",
"+.	c #DE9A4C",
"@.	c #D8D0CA",
"#.	c #5F8DC8",
"$.	c #7EA8DD",
"%.	c #BAD0EB",
"&.	c #B9B7A7",
"*.	c #D5B976",
"=.	c #FDF6C2",
"-.	c #F7DF63",
";.	c #F8E25D",
">.	c #F0D379",
",.	c #DA9749",
"'.	c #B9C5D4",
").	c #D8E2F0",
"!.	c #5C8AC6",
"~.	c #7AA4D9",
"{.	c #EEF3F9",
"].	c #BED2EB",
"^.	c #D9C5A7",
"/.	c #D5B67A",
"(.	c #D1B790",
"_.	c #E4C955",
":.	c #F5DF5B",
"<.	c #EDD078",
"[.	c #DD9D51",
"}.	c #FAF0E4",
"|.	c #5F8CC6",
"1.	c #75A1D7",
"2.	c #EDF2F8",
"3.	c #EAF0F7",
"4.	c #AA8943",
"5.	c #FFF2E0",
"6.	c #D89A54",
"7.	c #BE7A1A",
"8.	c #C59849",
"9.	c #C38C47",
"0.	c #D7D2D0",
"a.	c #5D8AC5",
"b.	c #729ED6",
"c.	c #6E99D3",
"d.	c #6896D1",
"e.	c #82662E",
"f.	c #F9C794",
"g.	c #F9C991",
"h.	c #C98541",
"i.	c #A66624",
"j.	c #6582A8",
"k.	c #5284C3",
"l.	c #4277BB",
"m.	c #553D11",
"n.	c #875F28",
"o.	c #BD8849",
"p.	c #BC8D42",
"                                ",
"    . + @ # $ % & * = - ; > ,   ",
"  ' ) ) ) ) ) ) ) ) ) ) ) ) !   ",
"  ~ ) { ] ^ / ( _ : < [ } ) |   ",
"  1 ) 2 2 2 2 2 2 2 2 2 2 ) 3   ",
"  4 ) 5 5 5 5 5 5 5 5 6 7 8 9   ",
"  0 ) 5 2 a 2 2 2 b c d e f g h ",
"  i j k l m n o p q r s t u v w ",
"  x y z 2 A 2 2 B C D E F G H   ",
"  I J K L L L M N O P Q R S T   ",
"  U V W 2 X Y Z O `  ...+.@.#.  ",
"  $.V %.X &.*.=.-.;.>.,.'.).!.  ",
"  ~.{.].^./.(._.:.<.[.}.2 ).|.  ",
"  1.2.3.4.5.6.7.8.9.0.).).).a.  ",
"  b.c.d.e.f.g.h.i.j.k.k.k.k.l.  ",
"        m.n.o.p.                "};
