/* XPM */
static const char * ident_off_xpm[] = {
"16 16 82 1",
" 	g None",
".	g #888888",
"+	g #828282",
"@	g #808080",
"#	g #868686",
"$	g #989898",
"%	g #BBBBBB",
"&	g #C2C2C2",
"*	g #B8B8B8",
"=	g #8F8F8F",
"-	g #727272",
";	g #838383",
">	g #ADADAD",
",	g #CACACA",
"'	g #B7B7B7",
")	g #A6A6A6",
"!	g #A4A4A4",
"~	g #AFAFAF",
"{	g #BFBFBF",
"]	g #A8A8A8",
"^	g #656565",
"/	g #848484",
"(	g #C7C7C7",
"_	g #A3A3A3",
":	g #9F9F9F",
"<	g #C0C0C0",
"[	g #9C9C9C",
"}	g #9E9E9E",
"|	g #BABABA",
"1	g #616161",
"2	g #949494",
"3	g #C8C8C8",
"4	g #9B9B9B",
"5	g #999999",
"6	g #F8F8F8",
"7	g #979797",
"8	g #BCBCBC",
"9	g #9A9A9A",
"0	g #969696",
"a	g #929292",
"b	g #B5B5B5",
"c	g #545454",
"d	g #7A7A7A",
"e	g #C6C6C6",
"f	g #939393",
"g	g #FFFFFF",
"h	g #909090",
"i	g #8E8E8E",
"j	g #C1C1C1",
"k	g #515151",
"l	g #737373",
"m	g #C4C4C4",
"n	g #919191",
"o	g #DEDEDE",
"p	g #F7F7F7",
"q	g #8A8A8A",
"r	g #898989",
"s	g #8C8C8C",
"t	g #4F4F4F",
"u	g #8D8D8D",
"v	g #DDDDDD",
"w	g #858585",
"x	g #B2B2B2",
"y	g #505050",
"z	g #C9C9C9",
"A	g #FDFDFD",
"B	g #DADADA",
"C	g #B1B1B1",
"D	g #777777",
"E	g #636363",
"F	g #B9B9B9",
"G	g #8B8B8B",
"H	g #7F7F7F",
"I	g #7E7E7E",
"J	g #4E4E4E",
"K	g #535353",
"L	g #A1A1A1",
"M	g #818181",
"N	g #4D4D4D",
"O	g #7B7B7B",
"P	g #BEBEBE",
"Q	g #757575",
"                ",
"      .+@@      ",
"    #$%&&*=-    ",
"   ;>,')!~{]^   ",
"  />(_:<{[}|)1  ",
"  23:4566$748;  ",
" +*~9$0%%aaa)bc ",
" de}7fagghiiajk ",
" lm[anhopqrrs&t ",
" l']a=uvp#ww$xy ",
"  r{hszAgB@@CD  ",
"  E!FG#;HII)}J  ",
"   KL'7wMn~[N   ",
"    KOx{P~QN    ",
"      yJNJ      ",
"                "};
