/* XPM */
static const char * labels_xpm[] = {
"16 16 37 1",
" 	c None",
".	c #777777",
"+	c #656565",
"@	c #5E5E5E",
"#	c #333333",
"$	c #727272",
"%	c #5B5B5B",
"&	c #535353",
"*	c #6D6D6D",
"=	c #676767",
"-	c #494949",
";	c #3C3C3C",
">	c #4A4A4A",
",	c #2B2B2B",
"'	c #434343",
")	c #1C1C1C",
"!	c #141414",
"~	c #2A2A2A",
"{	c #0B0B0B",
"]	c #272727",
"^	c #1F1F1F",
"/	c #79AEE7",
"(	c #5B96E0",
"_	c #8AB8EA",
":	c #9AC1ED",
"<	c #90BBEB",
"[	c #8DB8EA",
"}	c #88B6EA",
"|	c #83B2E7",
"1	c #6EA3E3",
"2	c #669EE2",
"3	c #6FA2E3",
"4	c #689EE1",
"5	c #72A4E3",
"6	c #477FD8",
"7	c #6FA6E5",
"8	c #4980D8",
"                ",
"                ",
"    .   +@    # ",
"    $   %&      ",
"    *=   -      ",
"     @   ;#     ",
"     &>   ,     ",
"      '   )!    ",
"      #~   {    ",
"      ]^        ",
"   /        (   ",
"  _:<[}|123456  ",
"   7        8   ",
"                ",
"                ",
"                "};
