/* XPM */
static const char * linestrings_off_xpm[] = {
"16 16 3 1",
" 	c None",
".	c #E0E0E0",
"+	c #C0C0C0",
"                ",
"             .+ ",
"             .+ ",
"             .+ ",
"             .+ ",
"    .+      .+  ",
"    .+      .+  ",
"   .+ .+    .+  ",
"   .+  .+   .+  ",
"  .+    .+ .+   ",
"  .+     .+.+   ",
" .+       .+    ",
" .+             ",
" .+             ",
" .+             ",
"                "};
