/* XPM */
static const char * network_on_xpm[] = {
"16 16 37 1",
" 	c None",
".	c #A0A070",
"+	c #A2A272",
"@	c #A3A373",
"#	c #A7A777",
"$	c #ABAB7B",
"%	c #ADAD7D",
"&	c #AEAE7E",
"*	c #AFAF7F",
"=	c #B4B484",
"-	c #B5B585",
";	c #BABA8A",
">	c #BDBD8D",
",	c #C0C090",
"'	c #C3C393",
")	c #C4C494",
"!	c #C7C797",
"~	c #C8C898",
"{	c #CACA9A",
"]	c #CBCB9B",
"^	c #CDCD9D",
"/	c #CECE9E",
"(	c #CFCF9F",
"_	c #D0D0A0",
":	c #D1D1A1",
"<	c #D2D2A2",
"[	c #D3D3A3",
"}	c #D4D4A4",
"|	c #D5D5A5",
"1	c #D7D7A7",
"2	c #D8D8A8",
"3	c #E5E5C5",
"4	c #E7E7C7",
"5	c #F1F1D1",
"6	c #F5F5D5",
"7	c #FAFADA",
"8	c #FFFFFF",
"                ",
"                ",
"     888888     ",
"    821|}:_8    ",
"   82876543]8   ",
"88828}_({~~3)888",
"8/////[88!/////8",
"877777-  *777778",
"8-----{88@.....8",
"888<8!,;=&$3#888",
"   8^876543+8   ",
"    8'>-%#@8    ",
"     888888     ",
"                ",
"                ",
"                "};
