/* XPM */
static const char * node_from_xpm[] = {
"16 16 32 1",
" 	c None",
".	c #449428",
"+	c #5FC23E",
"@	c #85D956",
"#	c #7DD552",
"$	c #285718",
"%	c #65C641",
"&	c #4EAA2F",
"*	c #F6FBF4",
"=	c #71CD49",
"-	c #D4EFCB",
";	c #2F671C",
">	c #3E8726",
",	c #77D14D",
"'	c #80D654",
")	c #8EDE5C",
"!	c #8ADC5A",
"~	c #89DB59",
"{	c #7AD34F",
"]	c #49A12C",
"^	c #69C944",
"/	c #6DCB47",
"(	c #254F16",
"_	c #74CF4B",
":	c #367421",
"<	c #BDE6AF",
"[	c #8EB480",
"}	c #B2E2A1",
"|	c #C5E9B8",
"1	c #234C15",
"2	c #ECF8E8",
"3	c #FFFFFF",
"  33333333333   ",
" 3&&&&&&]]..>3  ",
"3&[*2222222*}:3 ",
"3&*))!~@'#{,-;3 ",
"3&2)!~@@#{,_|$3 ",
"3&2!~@3'{,_=|$3 ",
"3]2~@@33,_=/|(3 ",
"3]2@@'333=/^|(3 ",
"3>2'#{33/^%%}13 ",
"3>2#{,3=^^%+}13 ",
"3:2{,_=/%%++}13 ",
"3;*,_=/^%+++<13 ",
"3;[-||||}}}<[13 ",
" 3$(((11111113  ",
"  33333333333   ",
"                "};
