/* XPM */
static const char * node_to_xpm[] = {
"16 16 32 1",
" 	c None",
".	c #EB7474",
"+	c #FF7878",
"@	c #E16363",
"#	c #F6B4B4",
"$	c #FFC9C9",
"%	c #F15F5F",
"&	c #FC9595",
"*	c #FEA6A6",
"=	c #936D6D",
"-	c #FE6A6A",
";	c #792727",
">	c #D75555",
",	c #E66A6A",
"'	c #DE5E5E",
")	c #988C8C",
"!	c #6A3838",
"~	c #852F2F",
"{	c #7A4646",
"]	c #D85656",
"^	c #E86F6F",
"/	c #591A1A",
"(	c #FDFDFD",
"_	c #FD6565",
":	c #D83B3B",
"<	c #FED8D8",
"[	c #5F3F3F",
"}	c #ED7777",
"|	c #8B5C5C",
"1	c #D45353",
"2	c #674242",
"3	c #FFFFFF",
"    3333333     ",
"   3{)))=={3    ",
"  3|<$$*&&&~3   ",
" 3|<}}..^^,+~3  ",
"32<}}..^^,,@+/3 ",
"32#..3^^:3@@+!3 ",
"32#^^^3:3+@@-!3 ",
"32#,,,:3+@@'-/3 ",
"32#,@:3+3'''-/3 ",
"32#@@3+''3''-/3 ",
"32&>>>>>>>]1-/3 ",
" 3[}]111111-;3  ",
"  3[}_%%%%_;3(  ",
"   3!~;;;~/3(   ",
"    3333333     ",
"                "};
