/* XPM */
static const char * output_map_xpm[] = {
"16 16 76 1",
" 	c None",
".	c #F8F8F8",
"+	c #FBFBFB",
"@	c #FCFCFC",
"#	c #949494",
"$	c #F4F1F1",
"%	c #F18478",
"&	c #F3BFB9",
"*	c #F5F5F5",
"=	c #F1F1F1",
"-	c #EFEFEF",
";	c #E9E9E9",
">	c #E7E7E7",
",	c #959595",
"'	c #F7F3F2",
")	c #F17F73",
"!	c #F5D0CC",
"~	c #F7F7F7",
"{	c #F3F3F3",
"]	c #F0F0F0",
"^	c #EAEAEA",
"/	c #F6F6F6",
"(	c #F4F4F4",
"_	c #999999",
":	c #F9F9F9",
"<	c #EE7669",
"[	c #F2A69E",
"}	c #F2F2F2",
"|	c #EBEBEB",
"1	c #EE7F74",
"2	c #F3ADA6",
"3	c #ECECEC",
"4	c #E6E6E6",
"5	c #EA685D",
"6	c #EC766C",
"7	c #EDEDED",
"8	c #F8DEDC",
"9	c #E65E53",
"0	c #E86A60",
"a	c #F7D6D4",
"b	c #E7756D",
"c	c #ED9C97",
"d	c #F7DDDB",
"e	c #E56960",
"f	c #F7DCDA",
"g	c #FAFAFA",
"h	c #F9E9E7",
"i	c #DF554C",
"j	c #F8E5E4",
"k	c #F6DAD8",
"l	c #E46E66",
"m	c #DA382D",
"n	c #DF5046",
"o	c #E2655D",
"p	c #E57972",
"q	c #EDABA7",
"r	c #E47D77",
"s	c #E5817A",
"t	c #EFB8B4",
"u	c #EBA39F",
"v	c #F1C3C0",
"w	c #F4D5D3",
"x	c #E68781",
"y	c #E16C65",
"z	c #E47C76",
"A	c #E9A09B",
"B	c #99140E",
"C	c #DB554F",
"D	c #F9EEED",
"E	c #F7E9E8",
"F	c #F9F3F3",
"G	c #CD1811",
"H	c #C01610",
"I	c #F2CBC9",
"J	c #CA150E",
"K	c #940F0A",
"                ",
"   .+@@@@@@.#   ",
"   +$%&*=-;@>,  ",
"   @')!~{]^@/(_ ",
"   @:<[~/}|@@@@ ",
"   @+12+.*=3^4@ ",
"   @@56@+.*}-7@ ",
"   @890a@+./{}@ ",
"   @bcdef@g://@ ",
"   hijklmnopq.@ ",
"   rstuvwxyzA.@ ",
"  BCD@@++ggEFg@ ",
" GHI@@@@++++++@ ",
"JJK@@@@@@@@@@@@ ",
"   :@@@@@@@@@@: ",
"                "};
