/* XPM */
static const char * pencil_go_xpm[] = {
"16 16 108 2",
"  	c None",
". 	c #DBAA4F",
"+ 	c #CA9350",
"@ 	c #C8904E",
"# 	c #D29D2F",
"$ 	c #D9A850",
"% 	c #D8A56A",
"& 	c #F7E1C9",
"* 	c #F8E3CB",
"= 	c #CA9542",
"- 	c #C28231",
"; 	c #E4BA2F",
"> 	c #F4D4A7",
", 	c #F8E1C5",
"' 	c #F9E3CC",
") 	c #F7DBBD",
"! 	c #C9904F",
"~ 	c #F8EDC3",
"{ 	c #F8E2A8",
"] 	c #DDAE6C",
"^ 	c #F4CFA5",
"/ 	c #CB9353",
"( 	c #FCF4B3",
"_ 	c #F5D968",
": 	c #F3CF6F",
"< 	c #D09D59",
"[ 	c #DDAB73",
"} 	c #C9914F",
"| 	c #F5DC60",
"1 	c #F4D644",
"2 	c #FAEE8E",
"3 	c #E6B45D",
"4 	c #D98F3B",
"5 	c #76A93E",
"6 	c #659F31",
"7 	c #BF9027",
"8 	c #6DA134",
"9 	c #81B35A",
"0 	c #579828",
"a 	c #B98926",
"b 	c #F2E6BE",
"c 	c #6FA53D",
"d 	c #6FA437",
"e 	c #69A234",
"f 	c #639D30",
"g 	c #7CAF55",
"h 	c #AACB91",
"i 	c #74AB4F",
"j 	c #458F17",
"k 	c #E1CBB0",
"l 	c #C8A967",
"m 	c #6BA337",
"n 	c #B0CE96",
"o 	c #ADCD94",
"p 	c #A8CB90",
"q 	c #90BC74",
"r 	c #A1C78A",
"s 	c #68A546",
"t 	c #358707",
"u 	c #936D1E",
"v 	c #F2E1C8",
"w 	c #FAE7D1",
"x 	c #B57D34",
"y 	c #C39931",
"z 	c #639F31",
"A 	c #8EBA6F",
"B 	c #89B86B",
"C 	c #85B666",
"D 	c #80B361",
"E 	c #82B567",
"F 	c #98C283",
"G 	c #5CA03C",
"H 	c #257F00",
"I 	c #F9E3CB",
"J 	c #ECAA61",
"K 	c #E89840",
"L 	c #C26715",
"M 	c #5B9B29",
"N 	c #A9CA90",
"O 	c #A5C88D",
"P 	c #A1C68A",
"Q 	c #9EC588",
"R 	c #85B66A",
"S 	c #97C282",
"T 	c #66A548",
"U 	c #217D00",
"V 	c #594212",
"W 	c #D49C5D",
"X 	c #F5CFA6",
"Y 	c #ECCFA9",
"Z 	c #C18B48",
"` 	c #529721",
" .	c #49911B",
"..	c #438F15",
"+.	c #3B8B0F",
"@.	c #5E9F3A",
"#.	c #96C180",
"$.	c #62A346",
"%.	c #1F7D00",
"&.	c #584013",
"*.	c #5E4215",
"=.	c #9C6925",
"-.	c #B4762C",
";.	c #BA8B3B",
">.	c #2B8301",
",.	c #5FA143",
"'.	c #1F7B00",
").	c #1E7B03",
"                                ",
"                      . + @ #   ",
"                    $ % & * = - ",
"                  ; > , ' ' ) ! ",
"                ; ~ { ] ^ ^ ) / ",
"              ; ~ ( _ : < [ }   ",
"            ; ~ ( | 1 2 3 4     ",
"          ; ~ ( | 1 5 6 4       ",
"        7 ~ ( | 1 2 8 9 0       ",
"      a b ( c d e f g h i j     ",
"    a k l | m n o h p q r s t   ",
"  u v w x y z o A B C D E F G H ",
"  u I J K L M N O P Q R S T U   ",
"  V W X Y Z `  ...+.@.#.$.%.    ",
"  &.*.=.-.;.        >.,.'.      ",
"                    U ).        "};
