/* XPM */
static const char * pencil_delete_xpm[] = {
"16 16 90 1",
" 	c None",
".	c #DBAA4F",
"+	c #CA9350",
"@	c #C8904E",
"#	c #D29D2F",
"$	c #D9A850",
"%	c #D8A56A",
"&	c #F7E1C9",
"*	c #F8E3CB",
"=	c #CA9542",
"-	c #C28231",
";	c #E4BA2F",
">	c #F4D4A7",
",	c #F8E1C5",
"'	c #F9E3CC",
")	c #F7DBBD",
"!	c #C9904F",
"~	c #F8EDC3",
"{	c #F8E2A8",
"]	c #DDAE6C",
"^	c #F4CFA5",
"/	c #CB9353",
"(	c #FCF4B3",
"_	c #F5D968",
":	c #F3CF6F",
"<	c #D09D59",
"[	c #DDAB73",
"}	c #C9914F",
"|	c #F5DC60",
"1	c #F4D644",
"2	c #FAEE8E",
"3	c #E6B45D",
"4	c #D98F3B",
"5	c #BF9027",
"6	c #B98926",
"7	c #F2E6BE",
"8	c #CF752D",
"9	c #C04D0E",
"0	c #BC4204",
"a	c #B94503",
"b	c #E1CBB0",
"c	c #C8A967",
"d	c #D17338",
"e	c #F7B58D",
"f	c #FED6B8",
"g	c #F5A872",
"h	c #CB6B2D",
"i	c #936D1E",
"j	c #F2E1C8",
"k	c #FAE7D1",
"l	c #B57D34",
"m	c #C39931",
"n	c #DCC46D",
"o	c #CF9C4A",
"p	c #C78334",
"q	c #B94403",
"r	c #F6B58D",
"s	c #FF924D",
"t	c #FF7711",
"u	c #FF8621",
"v	c #EB8A40",
"w	c #F9E3CB",
"x	c #ECAA61",
"y	c #E89840",
"z	c #C26715",
"A	c #AA6016",
"B	c #B4762C",
"C	c #FECDAE",
"D	c #FFFFFF",
"E	c #EF7F18",
"F	c #594212",
"G	c #D49C5D",
"H	c #F5CFA6",
"I	c #ECCFA9",
"J	c #C18B48",
"K	c #F49D63",
"L	c #FF7F18",
"M	c #F87600",
"N	c #EE7600",
"O	c #E16803",
"P	c #584013",
"Q	c #5E4215",
"R	c #9C6925",
"S	c #BA8B3B",
"T	c #C3571A",
"U	c #C96425",
"V	c #E67721",
"W	c #EA7905",
"X	c #DD6401",
"Y	c #BD4D04",
"                ",
"           .+@# ",
"          $%&*=-",
"         ;>,'')!",
"        ;~{]^^)/",
"       ;~(_:<[} ",
"      ;~(|1234  ",
"     ;~(|1234   ",
"    5~(|1234    ",
"   67(|123890a  ",
"  6bc|1238defgh ",
" ijklmnopqrstuvq",
" iwxyzAB 0CDDDE0",
" FGHIJB  aKLMNOa",
" PQRBS   TUVWXY ",
"           a0a  "};
