/* XPM */
static const char * pencil_add_xpm[] = {
"16 16 87 1",
" 	c None",
".	c #DBAA4F",
"+	c #CA9350",
"@	c #C8904E",
"#	c #D29D2F",
"$	c #D9A850",
"%	c #D8A56A",
"&	c #F7E1C9",
"*	c #F8E3CB",
"=	c #CA9542",
"-	c #C28231",
";	c #E4BA2F",
">	c #F4D4A7",
",	c #F8E1C5",
"'	c #F9E3CC",
")	c #F7DBBD",
"!	c #C9904F",
"~	c #F8EDC3",
"{	c #F8E2A8",
"]	c #DDAE6C",
"^	c #F4CFA5",
"/	c #CB9353",
"(	c #FCF4B3",
"_	c #F5D968",
":	c #F3CF6F",
"<	c #D09D59",
"[	c #DDAB73",
"}	c #C9914F",
"|	c #F5DC60",
"1	c #F4D644",
"2	c #FAEE8E",
"3	c #E6B45D",
"4	c #D98F3B",
"5	c #BF9027",
"6	c #B98926",
"7	c #F2E6BE",
"8	c #A5914A",
"9	c #6E9458",
"0	c #668E4F",
"a	c #598440",
"b	c #E1CBB0",
"c	c #C8A967",
"d	c #A08F46",
"e	c #81AB61",
"f	c #B4D495",
"g	c #D0E6BA",
"h	c #8FBB6A",
"i	c #578F2D",
"j	c #376B19",
"k	c #936D1E",
"l	c #F2E1C8",
"m	c #FAE7D1",
"n	c #B57D34",
"o	c #C39931",
"p	c #DCC46D",
"q	c #CF9C4A",
"r	c #C78334",
"s	c #5D8744",
"t	c #B1D390",
"u	c #B1D692",
"v	c #FFFFFF",
"w	c #8CBC65",
"x	c #8FBC67",
"y	c #F9E3CB",
"z	c #ECAA61",
"A	c #E89840",
"B	c #C26715",
"C	c #AA6016",
"D	c #B4762C",
"E	c #4C7B31",
"F	c #B6D49C",
"G	c #B2D295",
"H	c #594212",
"I	c #D49C5D",
"J	c #F5CFA6",
"K	c #ECCFA9",
"L	c #C18B48",
"M	c #396C1B",
"N	c #8BBA62",
"O	c #87BA60",
"P	c #87B960",
"Q	c #584013",
"R	c #5E4215",
"S	c #9C6925",
"T	c #BA8B3B",
"U	c #538C28",
"V	c #8DBA64",
"                ",
"           .+@# ",
"          $%&*=-",
"         ;>,'')!",
"        ;~{]^^)/",
"       ;~(_:<[} ",
"      ;~(|1234  ",
"     ;~(|1234   ",
"    5~(|1234    ",
"   67(|123890a  ",
"  6bc|123defghij",
" klmnopqrstuvwxj",
" kyzABCD EFvvvGj",
" HIJKLD  MNOvPxj",
" QRSDT   jUVGVUj",
"          jjjjj "};
