/* XPM */
static const char * pencil_xpm[] = {
"16 16 61 1",
" 	c None",
".	c #DBAA4F",
"+	c #CA9350",
"@	c #C8904E",
"#	c #D29D2F",
"$	c #D9A850",
"%	c #D8A56A",
"&	c #F7E1C9",
"*	c #F8E3CB",
"=	c #CA9542",
"-	c #C28231",
";	c #E4BA2F",
">	c #F4D4A7",
",	c #F8E1C5",
"'	c #F9E3CC",
")	c #F7DBBD",
"!	c #C9904F",
"~	c #F8EDC3",
"{	c #F8E2A8",
"]	c #DDAE6C",
"^	c #F4CFA5",
"/	c #CB9353",
"(	c #FCF4B3",
"_	c #F5D968",
":	c #F3CF6F",
"<	c #D09D59",
"[	c #DDAB73",
"}	c #C9914F",
"|	c #F5DC60",
"1	c #F4D644",
"2	c #FAEE8E",
"3	c #E6B45D",
"4	c #D98F3B",
"5	c #BF9027",
"6	c #B98926",
"7	c #F2E6BE",
"8	c #E1CBB0",
"9	c #C8A967",
"0	c #936D1E",
"a	c #F2E1C8",
"b	c #FAE7D1",
"c	c #B57D34",
"d	c #C39931",
"e	c #DCC46D",
"f	c #CF9C4A",
"g	c #C78334",
"h	c #F9E3CB",
"i	c #ECAA61",
"j	c #E89840",
"k	c #C26715",
"l	c #AA6016",
"m	c #B4762C",
"n	c #594212",
"o	c #D49C5D",
"p	c #F5CFA6",
"q	c #ECCFA9",
"r	c #C18B48",
"s	c #584013",
"t	c #5E4215",
"u	c #9C6925",
"v	c #BA8B3B",
"                ",
"           .+@# ",
"          $%&*=-",
"         ;>,'')!",
"        ;~{]^^)/",
"       ;~(_:<[} ",
"      ;~(|1234  ",
"     ;~(|1234   ",
"    5~(|1234    ",
"   67(|1234     ",
"  689|1234      ",
" 0abcdefg       ",
" 0hijklm        ",
" nopqrm         ",
" stumv          ",
"                "};
