/* XPM */
static const char * polygon_meter_xpm[] = {
"16 16 39 1",
" 	c None",
".	c #717171",
"+	c #727376",
"@	c #7E7E7E",
"#	c #4B84D9",
"$	c #818181",
"%	c #828282",
"&	c #518DDA",
"*	c #878787",
"=	c #5996E0",
"-	c #5A96E0",
";	c #5F99E0",
">	c #619AE0",
",	c #6B99D2",
"'	c #679EE2",
")	c #6A9FE2",
"!	c #6EA3E2",
"~	c #9D9D9D",
"{	c #9E9E9E",
"]	c #72A5E3",
"^	c #9F9F9F",
"/	c #74A6E3",
"(	c #78AAE3",
"_	c #79AAE5",
":	c #80AEE6",
"<	c #80AEE7",
"[	c #81AEE6",
"}	c #88B0E1",
"|	c #85B2E7",
"1	c #87B2E7",
"2	c #88B3E7",
"3	c #8CB6E9",
"4	c #90B8E8",
"5	c #91B8E9",
"6	c #94B8E3",
"7	c #92B9EA",
"8	c #95BBEB",
"9	c #FF0000",
"0	c #FFC000",
"         .      ",
"        . .     ",
"        %.      ",
"       ^        ",
"     ~^         ",
"    @$,|83)     ",
"   {*+}'>=>-    ",
"   ^ 6          ",
" .% /:   9999   ",
". . :<  900009  ",
" .  [2 90000009 ",
"    ]4 90000009 ",
"    ;7  900009  ",
"    #5&  9009   ",
"     1!   99    ",
"     _(         "};
