/* XPM */
static const char * raster_off_xpm[] = {
"16 16 57 1",
" 	c None",
".	c #757575",
"+	c #7A7A7A",
"@	c #7C7C7C",
"#	c #808080",
"$	c #828282",
"%	c #868686",
"&	c #898989",
"*	c #8A8A8A",
"=	c #8C8C8C",
"-	c #909090",
";	c #919191",
">	c #929292",
",	c #939393",
"'	c #949494",
")	c #959595",
"!	c #969696",
"~	c #979797",
"{	c #989898",
"]	c #9A9A9A",
"^	c #9B9B9B",
"/	c #9C9C9C",
"(	c #9D9D9D",
"_	c #9E9E9E",
":	c #A1A1A1",
"<	c #A2A2A2",
"[	c #A5A5A5",
"}	c #A9A9A9",
"|	c #ABABAB",
"1	c #ACACAC",
"2	c #ADADAD",
"3	c #AEAEAE",
"4	c #AFAFAF",
"5	c #B1B1B1",
"6	c #B3B3B3",
"7	c #B5B5B5",
"8	c #B8B8B8",
"9	c #B9B9B9",
"0	c #BEBEBE",
"a	c #C3C3C3",
"b	c #C5C5C5",
"c	c #CCCCCC",
"d	c #D6D6D6",
"e	c #D9D9D9",
"f	c #C6C6C6",
"g	c #CACACA",
"h	c #CBCBCB",
"i	c #CCCCCC",
"j	c #CDCDCD",
"k	c #CECECE",
"l	c #CFCFCF",
"m	c #D0D0D0",
"n	c #D1D1D1",
"o	c #D2D2D2",
"p	c #D3D3D3",
"q	c #D4D4D4",
"r	c #D5D5D5",
"                ",
"  ^;>,;;;>      ",
" /hrrrrrrj!     ",
" >r5(!!'~(;>*   ",
" ,q[fnmkmrkj!   ",
" >p]l4(,','!;>* ",
" >o~j:hrrrrrrj! ",
" ,m~l)re185/bl~ ",
" >n>g,qd708_6k{ ",
" >k]m)pc|73>[j~ ",
"  )>g>oa)!-$}j~ ",
"   >k,m98<@52j{ ",
"    )>n;=%#+.i~ ",
"     >kqppoooj! ",
"     &)'!!!))!* ",
"                "};
