/* XPM */
static const char * refresh_xpm[] = {
"16 16 32 1",
" 	c None",
".	c #B9E293",
"+	c #669742",
"@	c #FEFEFD",
"#	c #D3EEB7",
"$	c #BDE595",
"%	c #B7DA95",
"&	c #ADCB99",
"*	c #6EA049",
"=	c #6A9D43",
"-	c #679844",
";	c #6A9A48",
">	c #B7DC93",
",	c #9EBC89",
"'	c #8AD440",
")	c #DEF2CC",
"!	c #5E913C",
"~	c #B4D795",
"{	c #88D43F",
"]	c #C5F099",
"^	c #87D040",
"/	c #B6D897",
"(	c #88D140",
"_	c #689A42",
":	c #C3EE98",
"<	c #D6F2BB",
"[	c #B9E094",
"}	c #D3F3B0",
"|	c #B5D895",
"1	c #FEFEFE",
"2	c #50872B",
"3	c #FFFFFF",
"      3333  33  ",
"    33;++;33!3  ",
"   1)=<#<<*&233 ",
"  132#..('><233 ",
" 332,222/^{$231 ",
" 132_3332:$[233 ",
"  3-31322222233 ",
"333333333333333 ",
"33222222313-3   ",
"332}:]2333_231  ",
"332]{^/222,233  ",
"332]>'(..~23@   ",
"332&*%%|~;)1    ",
" 3!33;++;33     ",
" 33  3333       ",
"                "};
