/* XPM */
static const char * route_no_xpm[] = {
"16 16 3 1",
" 	g None",
".	g #363636",
"+	g #B6B6B6",
"                ",
" .............. ",
" .      +++   . ",
" .      ++++  . ",
" .        +++ . ",
" .          ++. ",
" .          ++. ",
" .         +++. ",
" .    +++++++ . ",
" .  ++++++++  . ",
" . +++        . ",
" . ++         . ",
" .++          . ",
" .++          . ",
" .............. ",
"                "};
