/* XPM */
static const char * rs_first_off_xpm[] = {
"16 16 67 1",
" 	g None",
".	g #B0B0B0",
"+	g #AEAEAE",
"@	g #ABABAB",
"#	g #929292",
"$	g #8F8F8F",
"%	g #AFAFAF",
"&	g #CBCBCB",
"*	g #BEBEBE",
"=	g #9B9B9B",
"-	g #828282",
";	g #818181",
">	g #7D7D7D",
",	g #C8C8C8",
"'	g #BABABA",
")	g #959595",
"!	g #7E7E7E",
"~	g #979797",
"{	g #737373",
"]	g #C5C5C5",
"^	g #B5B5B5",
"/	g #8C8C8C",
"(	g #949494",
"_	g #B1B1B1",
":	g #6B6B6B",
"<	g #C0C0C0",
"[	g #858585",
"}	g #797979",
"|	g #919191",
"1	g #A4A4A4",
"2	g #A8A8A8",
"3	g #626262",
"4	g #BCBCBC",
"5	g #B7B7B7",
"6	g #7C7C7C",
"7	g #9D9D9D",
"8	g #A1A1A1",
"9	g #969696",
"0	g #A3A3A3",
"a	g #5A5A5A",
"b	g #989898",
"c	g #A9A9A9",
"d	g #9E9E9E",
"e	g #535353",
"f	g #B2B2B2",
"g	g #9F9F9F",
"h	g #606060",
"i	g #7A7A7A",
"j	g #A2A2A2",
"k	g #9A9A9A",
"l	g #4D4D4D",
"m	g #ACACAC",
"n	g #545454",
"o	g #717171",
"p	g #999999",
"q	g #474747",
"r	g #A7A7A7",
"s	g #676767",
"t	g #404040",
"u	g #8B8B8B",
"v	g #3E3E3E",
"w	g #616161",
"x	g #3C3C3C",
"y	g #555555",
"z	g #505050",
"A	g #353535",
"B	g #3A3A3A",
"                ",
"                ",
"   ..+@    #$   ",
"   %&*=   -;>   ",
"   @,')  !~.{   ",
"   =]^/ >(_+:   ",
"   )<.[}|_123   ",
"   /4567%890a   ",
"   [5%{bc=|de   ",
"   >fg:hij|kl   ",
"   {m~3 nop)q   ",
"   :r|a  qs|t   ",
"   30ue   vwx   ",
"   ayzl    AB   ",
"                ",
"                "};
