/* XPM */
static const char * rs_last_off_xpm[] = {
"16 16 60 1",
" 	g None",
".	g #A6A6A6",
"+	g #A4A4A4",
"@	g #959595",
"#	g #8F8F8F",
"$	g #8A8A8A",
"%	g #858585",
"&	g #A2A2A2",
"*	g #9C9C9C",
"=	g #8C8C8C",
"-	g #AEAEAE",
";	g #B8B8B8",
">	g #7D7D7D",
",	g #A1A1A1",
"'	g #C5C5C5",
")	g #ACACAC",
"!	g #919191",
"~	g #A9A9A9",
"{	g #B3B3B3",
"]	g #737373",
"^	g #9B9B9B",
"/	g #C0C0C0",
"(	g #828282",
"_	g #A3A3A3",
":	g #6B6B6B",
"<	g #B6B6B6",
"[	g #BABABA",
"}	g #979797",
"|	g #A8A8A8",
"1	g #626262",
"2	g #BCBCBC",
"3	g #ABABAB",
"4	g #989898",
"5	g #696969",
"6	g #5A5A5A",
"7	g #B7B7B7",
"8	g #A5A5A5",
"9	g #ADADAD",
"0	g #939393",
"a	g #9D9D9D",
"b	g #9E9E9E",
"c	g #535353",
"d	g #B2B2B2",
"e	g #808080",
"f	g #5B5B5B",
"g	g #9A9A9A",
"h	g #4D4D4D",
"i	g #585858",
"j	g #474747",
"k	g #A7A7A7",
"l	g #7A7A7A",
"m	g #555555",
"n	g #404040",
"o	g #7B7B7B",
"p	g #8D8D8D",
"q	g #3C3C3C",
"r	g #505050",
"s	g #3E3E3E",
"t	g #3B3B3B",
"u	g #3A3A3A",
"                ",
"                ",
"   .+    @#$%   ",
"   .&*   =-;>   ",
"   ,')!  %~{]   ",
"   ^'/,( >_-:   ",
"   @/<[}]]*|1   ",
"   =23){45._6   ",
"   %78.901abc   ",
"   >d+)ef6=gh   ",
"   ])~>i c%@j   ",
"   :klm  he!n   ",
"   1lc   jopq   ",
"   6r    nstu   ",
"                ",
"                "};
