/* XPM */
static const char * rs_next_off_xpm[] = {
"16 16 44 1",
" 	g None",
".	g #A6A6A6",
"+	g #A4A4A4",
"@	g #9D9D9D",
"#	g #A2A2A2",
"$	g #C5C5C5",
"%	g #ABABAB",
"&	g #8F8F8F",
"*	g #9A9A9A",
"=	g #C3C3C3",
"-	g #BFBFBF",
";	g #9F9F9F",
">	g #7D7D7D",
",	g #919191",
"'	g #BDBDBD",
")	g #B3B3B3",
"!	g #B7B7B7",
"~	g #6A6A6A",
"{	g #878787",
"]	g #A5A5A5",
"^	g #ACACAC",
"/	g #818181",
"(	g #5A5A5A",
"_	g #7C7C7C",
":	g #B1B1B1",
"<	g #787878",
"[	g #535353",
"}	g #707070",
"|	g #AAAAAA",
"1	g #9B9B9B",
"2	g #A3A3A3",
"3	g #747474",
"4	g #4E4E4E",
"5	g #656565",
"6	g #A1A1A1",
"7	g #717171",
"8	g #4C4C4C",
"9	g #9E9E9E",
"0	g #6F6F6F",
"a	g #474747",
"b	g #6C6C6C",
"c	g #434343",
"d	g #4A4A4A",
"e	g #404040",
"                ",
"                ",
"    .+          ",
"    .+@         ",
"    #$%&        ",
"    *=-;>       ",
"    ,')!,~      ",
"    {!].^/(     ",
"    _:@;.<[     ",
"    }|1234      ",
"    52678       ",
"    (90a        ",
"    [bc         ",
"    de          ",
"                ",
"                "};
