/* XPM */
static const char * rs_previous_off_xpm[] = {
"16 16 43 1",
" 	g None",
".	g #969696",
"+	g #939393",
"@	g #919191",
"#	g #8A8A8A",
"$	g #8F8F8F",
"%	g #A1A1A1",
"&	g #B9B9B9",
"*	g #808080",
"=	g #9F9F9F",
"-	g #B7B7B7",
";	g #B5B5B5",
">	g #747474",
",	g #868686",
"'	g #9B9B9B",
")	g #AAAAAA",
"!	g #AEAEAE",
"~	g #696969",
"{	g #838383",
"]	g #979797",
"^	g #B4B4B4",
"/	g #A6A6A6",
"(	g #A8A8A8",
"_	g #5C5C5C",
":	g #797979",
"<	g #949494",
"[	g #555555",
"}	g #666666",
"|	g #7E7E7E",
"1	g #A3A3A3",
"2	g #929292",
"3	g #4D4D4D",
"4	g #717171",
"5	g #999999",
"6	g #959595",
"7	g #454545",
"8	g #474747",
"9	g #676767",
"0	g #3F3F3F",
"a	g #3A3A3A",
"b	g #5D5D5D",
"c	g #333333",
"d	g #353535",
"                ",
"                ",
"         .+     ",
"        +@#     ",
"       $%&*     ",
"      #=-;>     ",
"     ,'-)!~     ",
"    {]^/'(_     ",
"    :$!=<%[     ",
"     }|12'3     ",
"      [4567     ",
"       89$0     ",
"        aba     ",
"         cd     ",
"                ",
"                "};
