/* XPM */
static const char * selection_remove_xpm[] = {
"16 16 32 1",
" 	c None",
".	c #92CD5B",
"+	c #7697B4",
"@	c #9ACCFB",
"#	c #EBF1F7",
"$	c #E5EDF5",
"%	c #88AFC8",
"&	c #A4D1FB",
"*	c #C7E3FE",
"=	c #577091",
"-	c #49556B",
";	c #BDDEFD",
">	c #D5DBE4",
",	c #F1F5FA",
"'	c #618D44",
")	c #F0F1F1",
"!	c #B3D8FC",
"~	c #89BBEC",
"{	c #7EB15B",
"]	c #52617B",
"^	c #B4D1E0",
"/	c #434B5C",
"(	c #D5E7F0",
"_	c #F5F8FA",
":	c #FBFBFB",
"<	c #9AC0D6",
"[	c #A8CBDE",
"}	c #E0E8EF",
"|	c #293143",
"1	c #3E4555",
"2	c #638F45",
"3	c #FFFFFF",
"3333333333333   ",
"3(^^[<<%%++++3  ",
"3^($#$##$$$$~=3 ",
"3^$*****;;;,~~=3",
"3[_***2222;,,,]3",
"3<_***2.{2!!!,]3",
"3<_***2.{2!!!,]3",
"3%,*222..222&,-3",
"3%,;:2....':&$-3",
"3+#;;,2{{')&&$/3",
"3+#;;!)'')&@@}/3",
"3+#;!!!))&@@@}13",
"3+_;!!!&&&@@@)13",
"3=>,#$$$}}}})^|3",
"3+===]]--//11|]3",
"3333333333333333"};
