/* XPM */
static const char * selection_top_no_xpm[] = {
"16 16 29 1",
" 	g None",
".	g #FFFFFF",
"+	g #E4E4E4",
"@	g #CCCCCC",
"#	g #C5C5C5",
"$	g #BABABA",
"%	g #A9A9A9",
"&	g #929292",
"*	g #E6E6E6",
"=	g #EBEBEB",
"-	g #F0F0F0",
";	g #B4B4B4",
">	g #6D6D6D",
",	g #DFDFDF",
"'	g #D9D9D9",
")	g #F4F4F4",
"!	g #F6F6F6",
"~	g #7E7E7E",
"{	g #606060",
"]	g #808080",
"^	g #A0A0A0",
"/	g #D4D4D4",
"(	g #B8B8B8",
"_	g #565656",
":	g #EEEEEE",
"<	g #4C4C4C",
"[	g #464646",
"}	g #DADADA",
"|	g #313131",
".............   ",
".+@@#$$%%&&&&.  ",
".@*=----====;>. ",
".@-,,,,,''');;>.",
".#!,,,,~~''))!{.",
".$!,,,]^^~///!{.",
".$!,,]((((~/@!{.",
".%!,]]]((]]]@!_.",
".%!'))](^]::@=_.",
".&)'''](^~@@#=<.",
".&-''/]]]]@##*<.",
".&-'//+++,###*[.",
".&!'//@@@@###-[.",
".>}!-====***-@|.",
".&>>>{{__<<[[|{.",
"................"};
