/* XPM */
static const char * selection_top_yes_xpm[] = {
"16 16 32 1",
" 	c None",
".	c #92CD5B",
"+	c #7697B4",
"@	c #99CCFC",
"#	c #E4ECF5",
"$	c #88AFC8",
"%	c #C7E3FE",
"&	c #577091",
"*	c #A6D2FB",
"=	c #BDDDFD",
"-	c #4A576D",
";	c #D5DBE4",
">	c #F3F6F9",
",	c #D1E7FA",
"'	c #EBF5FE",
")	c #EBF1F6",
"!	c #618D44",
"~	c #89BBEC",
"{	c #B5D9FC",
"]	c #7EB15B",
"^	c #52617B",
"/	c #AFD2E4",
"(	c #444D5F",
"_	c #9AC0D6",
":	c #A8CBDE",
"<	c #E2F0FE",
"[	c #DEE8F0",
"}	c #293143",
"|	c #3F4656",
"1	c #CBCCD1",
"2	c #638F45",
"3	c #FFFFFF",
"3333333333333   ",
"3,//:__$$++++3  ",
"3/[#))))####~&3 ",
"3/)%%%%%==='~~&3",
"3:>%%%%!!==''>^3",
"3_>%%%2]]!{{{>^3",
"3_>%%2....!{*>^3",
"3$>%222..222*>-3",
"3$>=''2.]2<<*#-3",
"3+'===2.]!**@#(3",
"3+)=={2222*@@[(3",
"3+)={{,,,%@@@[|3",
"3+>={{****@@@)|3",
"3&;>)####[[[)1}3",
"3+&&&^^--((||}^3",
"3333333333333333"};
