/* XPM */
static const char * table_save_yes_xpm[] = {
"16 16 167 2",
"  	c None",
". 	c #A2C1EF",
"+ 	c #9FC0ED",
"@ 	c #9DBEEB",
"# 	c #9ABCEB",
"$ 	c #96BAE9",
"% 	c #93B7E7",
"& 	c #90B5E6",
"* 	c #8CB2E4",
"= 	c #88AFE2",
"- 	c #84ACE0",
"; 	c #80A9DD",
"> 	c #7DA5DC",
", 	c #7AA3DA",
"' 	c #A1C1EE",
") 	c #F4F7FB",
"! 	c #74A0D7",
"~ 	c #9EBFEC",
"{ 	c #A5D59C",
"] 	c #A1D398",
"^ 	c #9DD094",
"/ 	c #98CE90",
"( 	c #93CB8B",
"_ 	c #8EC987",
": 	c #89C682",
"< 	c #84C37E",
"[ 	c #80C17A",
"} 	c #7CBE76",
"| 	c #6F9BD4",
"1 	c #9BBDEB",
"2 	c #FFFFFF",
"3 	c #6A97D1",
"4 	c #98BAE9",
"5 	c #A6C3E9",
"6 	c #6493CE",
"7 	c #94B7E7",
"8 	c #A9C4E8",
"9 	c #ACC7E8",
"0 	c #EBF1F7",
"a 	c #5F8FCB",
"b 	c #8FB4E5",
"c 	c #F2F6FA",
"d 	c #AAC6E9",
"e 	c #ACC6E9",
"f 	c #ACC7EA",
"g 	c #ADC7E9",
"h 	c #6E97D4",
"i 	c #7B9ED4",
"j 	c #7198D0",
"k 	c #82A4D6",
"l 	c #688ECD",
"m 	c #6990CD",
"n 	c #759AD0",
"o 	c #7399D1",
"p 	c #628BC8",
"q 	c #8CB1E3",
"r 	c #F1F6FA",
"s 	c #AEC9EA",
"t 	c #B0C9EA",
"u 	c #658DCC",
"v 	c #B0CDF3",
"w 	c #B3C7E3",
"x 	c #A1BFEA",
"y 	c #6089C9",
"z 	c #87AEE1",
"A 	c #F0F4FA",
"B 	c #B2CBEA",
"C 	c #B3CCEA",
"D 	c #5B86C7",
"E 	c #9EC0EF",
"F 	c #6E93CC",
"G 	c #F7FBFF",
"H 	c #F1F8FF",
"I 	c #8CAFE4",
"J 	c #618AC7",
"K 	c #82AADF",
"L 	c #EFF3F9",
"M 	c #B7CEEA",
"N 	c #BBD0EB",
"O 	c #5D88C8",
"P 	c #A1BFEF",
"Q 	c #FAFCFD",
"R 	c #FBFCFE",
"S 	c #FDFDFE",
"T 	c #FCFDFE",
"U 	c #FAFBFD",
"V 	c #FBFCFD",
"W 	c #85A8DD",
"X 	c #537FC1",
"Y 	c #7EA8DD",
"Z 	c #BAD0EB",
"` 	c #658DCA",
" .	c #99B8EA",
"..	c #7EA5DD",
"+.	c #80A6DD",
"@.	c #7CA3DB",
"#.	c #7AA0D9",
"$.	c #79A0D9",
"%.	c #789FD8",
"&.	c #789ED8",
"*.	c #5D84BF",
"=.	c #7AA4D9",
"-.	c #EEF3F9",
";.	c #BED2EB",
">.	c #BFD3EB",
",.	c #618BC9",
"'.	c #92B5E6",
").	c #81A7E2",
"!.	c #81A7E1",
"~.	c #7DA3DE",
"{.	c #7BA1DC",
"].	c #799FDB",
"^.	c #779ED9",
"/.	c #739AD4",
"(.	c #577EBB",
"_.	c #75A1D7",
":.	c #EDF2F8",
"<.	c #EAF0F7",
"[.	c #E6EDF6",
"}.	c #E2EAF4",
"|.	c #DEE7F3",
"1.	c #5481C4",
"2.	c #97B6EA",
"3.	c #EAF3F3",
"4.	c #E6F1ED",
"5.	c #E6F1EF",
"6.	c #E6F0EF",
"7.	c #E5F1ED",
"8.	c #EDF5F3",
"9.	c #799CD5",
"0.	c #4470B0",
"a.	c #729ED6",
"b.	c #6E99D3",
"c.	c #6896D1",
"d.	c #6392CE",
"e.	c #5E8ECB",
"f.	c #5B8AC9",
"g.	c #517FC3",
"h.	c #9AB6EF",
"i.	c #E8F3EA",
"j.	c #84BF51",
"k.	c #98C96F",
"l.	c #99C971",
"m.	c #84BF54",
"n.	c #E9F4E4",
"o.	c #7B9CDD",
"p.	c #3A69AA",
"q.	c #5583C6",
"r.	c #BACEEF",
"s.	c #FFFFDD",
"t.	c #C7EE87",
"u.	c #D7F4A2",
"v.	c #D7F6A2",
"w.	c #C7EE8C",
"x.	c #FFFFE0",
"y.	c #85A2DD",
"z.	c #3E6AAB",
"A.	c #3368BA",
"B.	c #5884C3",
"C.	c #688BD3",
"D.	c #708FE1",
"E.	c #6C8DDC",
"F.	c #6D8BDA",
"G.	c #6E8AD7",
"H.	c #6C8BCD",
"I.	c #446DAB",
"J.	c #2E5FA6",
"  . + @ # $ % & * = - ; > ,     ",
"' ) ) ) ) ) ) ) ) ) ) ) ) !     ",
"~ ) { ] ^ / ( _ : < [ } ) |     ",
"1 ) 2 2 2 2 2 2 2 2 2 2 ) 3     ",
"4 ) 5 5 5 5 5 5 5 5 5 5 ) 6     ",
"7 ) 5 2 8 2 2 2 9 2 2 2 0 a     ",
"b c d e f g h i j k l m n o p   ",
"q r s 2 t 2 u v 2 w 2 2 2 2 x y ",
"z A B C C C D E 2 F 2 2 G H I J ",
"K L M 2 N 2 O P Q R S T U V W X ",
"Y L Z N N N `  ...+.@.#.$.%.&.*.",
"=.-.;.2 >.2 ,.'.).!.~.{.].^./.(.",
"_.:.<.[.}.|.1.2.3.4.5.6.7.8.9.0.",
"a.b.c.d.e.f.g.h.i.j.k.l.m.n.o.p.",
"            q.r.s.t.u.v.w.x.y.z.",
"            A.B.C.D.E.F.G.H.I.J."};
