/* XPM */
static const char * table_save_no_xpm[] = {
"16 16 96 2",
"  	g None",
". 	g #BEBEBE",
"+ 	g #BCBCBC",
"@ 	g #BABABA",
"# 	g #B8B8B8",
"$ 	g #B6B6B6",
"% 	g #B3B3B3",
"& 	g #B1B1B1",
"* 	g #AEAEAE",
"= 	g #AAAAAA",
"- 	g #A7A7A7",
"; 	g #A4A4A4",
"> 	g #A0A0A0",
", 	g #9E9E9E",
"' 	g #BDBDBD",
") 	g #F7F7F7",
"! 	g #9B9B9B",
"~ 	g #BBBBBB",
"{ 	g #C7C7C7",
"] 	g #C4C4C4",
"^ 	g #C1C1C1",
"/ 	g #B4B4B4",
"( 	g #ABABAB",
"_ 	g #969696",
": 	g #B9B9B9",
"< 	g #FFFFFF",
"[ 	g #929292",
"} 	g #C0C0C0",
"| 	g #8D8D8D",
"1 	g #F0F0F0",
"2 	g #898989",
"3 	g #B0B0B0",
"4 	g #F5F5F5",
"5 	g #C3C3C3",
"6 	g #939393",
"7 	g #9A9A9A",
"8 	g #949494",
"9 	g #8A8A8A",
"0 	g #8C8C8C",
"a 	g #959595",
"b 	g #878787",
"c 	g #ADADAD",
"d 	g #C6C6C6",
"e 	g #CACACA",
"f 	g #C5C5C5",
"g 	g #858585",
"h 	g #A9A9A9",
"i 	g #F4F4F4",
"j 	g #C8C8C8",
"k 	g #C9C9C9",
"l 	g #828282",
"m 	g #8F8F8F",
"n 	g #FAFAFA",
"o 	g #868686",
"p 	g #A5A5A5",
"q 	g #F3F3F3",
"r 	g #CBCBCB",
"s 	g #CDCDCD",
"t 	g #838383",
"u 	g #FCFCFC",
"v 	g #FDFDFD",
"w 	g #FBFBFB",
"x 	g #7A7A7A",
"y 	g #A3A3A3",
"z 	g #B5B5B5",
"A 	g #A1A1A1",
"B 	g #A2A2A2",
"C 	g #9F9F9F",
"D 	g #9C9C9C",
"E 	g #808080",
"F 	g #F2F2F2",
"G 	g #D0D0D0",
"H 	g #9D9D9D",
"I 	g #F1F1F1",
"J 	g #EFEFEF",
"K 	g #ECECEC",
"L 	g #E9E9E9",
"M 	g #E6E6E6",
"N 	g #7C7C7C",
"O 	g #EEEEEE",
"P 	g #999999",
"Q 	g #6B6B6B",
"R 	g #909090",
"S 	g #888888",
"T 	g #646464",
"U 	g #7E7E7E",
"V 	g #CCCCCC",
"W 	g #DEDEDE",
"X 	g #E8E8E8",
"Y 	g #DFDFDF",
"Z 	g #656565",
"` 	g #636363",
" .	g #7F7F7F",
"..	g #8E8E8E",
"+.	g #696969",
"@.	g #5A5A5A",
"  . + @ # $ % & * = - ; > ,     ",
"' ) ) ) ) ) ) ) ) ) ) ) ) !     ",
"~ ) { ] ^ . @ # / & * ( ) _     ",
": ) < < < < < < < < < < ) [     ",
"$ ) } } } } } } } } } } ) |     ",
"% ) } < ^ < < < ] < < < 1 2     ",
"3 4 5 5 ] ] 6 7 8 > 9 0 _ a b   ",
"c 4 d < d < 2 e < f < < < < + g ",
"h i j k k k l + < m < < n ) ( o ",
"p q r < s < t + u u v v w u ; x ",
"y q s s s s 2 z A B C D D ! 7 E ",
"C F G < G < b & y y C H ! 7 _ x ",
"D I J K L M N % I O J O O q P Q ",
"P 8 R 0 S g x / 1 ( # # ( I 7 T ",
"            U V v W X L Y v > Z ",
"            `  .2 ..0 9 9 2 +.@."};
