/* XPM */
static const char * table_add_xpm[] = {
"16 16 116 2",
"  	c None",
". 	c #A2C1EF",
"+ 	c #9FC0ED",
"@ 	c #9DBEEB",
"# 	c #9ABCEB",
"$ 	c #96BAE9",
"% 	c #93B7E7",
"& 	c #90B5E6",
"* 	c #8CB2E4",
"= 	c #88AFE2",
"- 	c #84ACE0",
"; 	c #80A9DD",
"> 	c #7DA5DC",
", 	c #7AA3DA",
"' 	c #A1C1EE",
") 	c #F4F7FB",
"! 	c #74A0D7",
"~ 	c #9EBFEC",
"{ 	c #A5D59C",
"] 	c #A1D398",
"^ 	c #9DD094",
"/ 	c #98CE90",
"( 	c #93CB8B",
"_ 	c #8EC987",
": 	c #89C682",
"< 	c #84C37E",
"[ 	c #80C17A",
"} 	c #7CBE76",
"| 	c #6F9BD4",
"1 	c #9BBDEB",
"2 	c #FFFFFF",
"3 	c #6A97D1",
"4 	c #98BAE9",
"5 	c #A6C3E9",
"6 	c #6493CE",
"7 	c #94B7E7",
"8 	c #A9C4E8",
"9 	c #ACC7E8",
"0 	c #EBF1F7",
"a 	c #5F8FCB",
"b 	c #8FB4E5",
"c 	c #F2F6FA",
"d 	c #AAC6E9",
"e 	c #ACC6E9",
"f 	c #ACC7EA",
"g 	c #ADC7E9",
"h 	c #AEC9E9",
"i 	c #B0C9E9",
"j 	c #B0C8E8",
"k 	c #B5CCE8",
"l 	c #DEE7F2",
"m 	c #598AC8",
"n 	c #8CB1E3",
"o 	c #F1F6FA",
"p 	c #AEC9EA",
"q 	c #B0C9EA",
"r 	c #DBE5F1",
"s 	c #5586C6",
"t 	c #87AEE1",
"u 	c #F0F4FA",
"v 	c #B2CBEA",
"w 	c #B3CCEA",
"x 	c #B7CEEA",
"y 	c #8EAEA2",
"z 	c #71975F",
"A 	c #668E4F",
"B 	c #5F8949",
"C 	c #4F7F7B",
"D 	c #82AADF",
"E 	c #EFF3F9",
"F 	c #BBD0EB",
"G 	c #91AF9D",
"H 	c #81AB61",
"I 	c #B4D495",
"J 	c #D0E6BA",
"K 	c #8FBB6A",
"L 	c #578F2D",
"M 	c #376B19",
"N 	c #7EA8DD",
"O 	c #BAD0EB",
"P 	c #BDD1EB",
"Q 	c #608949",
"R 	c #B1D390",
"S 	c #B1D692",
"T 	c #8CBC65",
"U 	c #8FBC67",
"V 	c #7AA4D9",
"W 	c #EEF3F9",
"X 	c #BED2EB",
"Y 	c #BFD3EB",
"Z 	c #4C7B31",
"` 	c #B6D49C",
" .	c #B2D295",
"..	c #75A1D7",
"+.	c #EDF2F8",
"@.	c #EAF0F7",
"#.	c #E6EDF6",
"$.	c #E2EAF4",
"%.	c #DEE7F3",
"&.	c #DBE4F1",
"*.	c #D8E2F0",
"=.	c #3E7022",
"-.	c #8BBA62",
";.	c #87BA60",
">.	c #87B960",
",.	c #729ED6",
"'.	c #6E99D3",
").	c #6896D1",
"!.	c #6392CE",
"~.	c #5E8ECB",
"{.	c #5B8AC9",
"].	c #5687C7",
"^.	c #5284C3",
"/.	c #44776B",
"(.	c #538C28",
"_.	c #8DBA64",
"                                ",
"    . + @ # $ % & * = - ; > ,   ",
"  ' ) ) ) ) ) ) ) ) ) ) ) ) !   ",
"  ~ ) { ] ^ / ( _ : < [ } ) |   ",
"  1 ) 2 2 2 2 2 2 2 2 2 2 ) 3   ",
"  4 ) 5 5 5 5 5 5 5 5 5 5 ) 6   ",
"  7 ) 5 2 8 2 2 2 9 2 2 2 0 a   ",
"  b c d e f g h i 9 i j k l m   ",
"  n o p 2 q 2 2 2 9 2 2 2 r s   ",
"  t u v w w w w x 9 y z A B C   ",
"  D E x 2 F 2 2 2 G H I J K L M ",
"  N E O F F F F P Q R S 2 T U M ",
"  V W X 2 Y 2 2 2 Z ` 2 2 2  .M ",
"  ..+.@.#.$.%.&.*.=.-.;.2 >.U M ",
"  ,.'.).!.~.{.].^./.(._. ._.(.M ",
"                    M M M M M   "};
