/* XPM */
static const char * table_gear_xpm[] = {
"16 16 139 2",
"  	c None",
". 	c #A2C1EF",
"+ 	c #9FC0ED",
"@ 	c #9DBEEB",
"# 	c #9ABCEB",
"$ 	c #96BAE9",
"% 	c #93B7E7",
"& 	c #90B5E6",
"* 	c #8CB2E4",
"= 	c #88AFE2",
"- 	c #84ACE0",
"; 	c #80A9DD",
"> 	c #7DA5DC",
", 	c #7AA3DA",
"' 	c #A1C1EE",
") 	c #F4F7FB",
"! 	c #74A0D7",
"~ 	c #9EBFEC",
"{ 	c #A5D59C",
"] 	c #A1D398",
"^ 	c #9DD094",
"/ 	c #98CE90",
"( 	c #93CB8B",
"_ 	c #8EC987",
": 	c #89C682",
"< 	c #84C37E",
"[ 	c #80C17A",
"} 	c #7CBE76",
"| 	c #6F9BD4",
"1 	c #9BBDEB",
"2 	c #FFFFFF",
"3 	c #6A97D1",
"4 	c #98BAE9",
"5 	c #A6C3E9",
"6 	c #6493CE",
"7 	c #94B7E7",
"8 	c #A9C4E8",
"9 	c #ACC7E8",
"0 	c #BABABA",
"a 	c #B4B4B4",
"b 	c #EBF1F7",
"c 	c #5F8FCB",
"d 	c #8FB4E5",
"e 	c #F2F6FA",
"f 	c #AAC6E9",
"g 	c #ACC6E9",
"h 	c #ACC7EA",
"i 	c #ADC7E9",
"j 	c #AEC9E9",
"k 	c #B7C4D5",
"l 	c #BABBBD",
"m 	c #B1C5DF",
"n 	c #C0C0C0",
"o 	c #BEBEBE",
"p 	c #D1D7E0",
"q 	c #9EA3AB",
"r 	c #A3A3A3",
"s 	c #8CB1E3",
"t 	c #F1F6FA",
"u 	c #AEC9EA",
"v 	c #B0C9EA",
"w 	c #DADADA",
"x 	c #BFBFBF",
"y 	c #D6D6D6",
"z 	c #D8D8D8",
"A 	c #B8B8B8",
"B 	c #D4D4D4",
"C 	c #888888",
"D 	c #87AEE1",
"E 	c #F0F4FA",
"F 	c #B2CBEA",
"G 	c #B3CCEA",
"H 	c #B6C1CE",
"I 	c #D2D2D2",
"J 	c #ABABAB",
"K 	c #818181",
"L 	c #8A8A8A",
"M 	c #CACACA",
"N 	c #939393",
"O 	c #82AADF",
"P 	c #EFF3F9",
"Q 	c #B7CEEA",
"R 	c #BBD0EB",
"S 	c #E8E8E8",
"T 	c #868686",
"U 	c #99999A",
"V 	c #E2E2E2",
"W 	c #B6B6B6",
"X 	c #878787",
"Y 	c #7EA8DD",
"Z 	c #BAD0EB",
"` 	c #A5A5A5",
" .	c #B7B7B7",
"..	c #E1E1E1",
"+.	c #9C9C9C",
"@.	c #B5CDEA",
"#.	c #999A9A",
"$.	c #D5D5D5",
"%.	c #999999",
"&.	c #656565",
"*.	c #7AA4D9",
"=.	c #EEF3F9",
"-.	c #BED2EB",
";.	c #BFD3EB",
">.	c #F9F9F9",
",.	c #CDCDCD",
"'.	c #C9C9C9",
").	c #BDBDBD",
"!.	c #9A9A9A",
"~.	c #B5B5B5",
"{.	c #C2C2C2",
"].	c #6D6D6D",
"^.	c #75A1D7",
"/.	c #EDF2F8",
"(.	c #EAF0F7",
"_.	c #E6EDF6",
":.	c #E2EAF4",
"<.	c #DEE7F3",
"[.	c #DBE4F1",
"}.	c #A0A0A0",
"|.	c #A1A1A1",
"1.	c #C4C4C4",
"2.	c #729ED6",
"3.	c #6E99D3",
"4.	c #6896D1",
"5.	c #6392CE",
"6.	c #5E8ECB",
"7.	c #5B8AC9",
"8.	c #5687C7",
"9.	c #72869F",
"0.	c #696969",
"a.	c #5E81AE",
"b.	c #A2A2A2",
"c.	c #8B8B8B",
"d.	c #5879A3",
"e.	c #5D5D5D",
"f.	c #595959",
"g.	c #727272",
"h.	c #5C5C5C",
"                                ",
"  . + @ # $ % & * = - ; > ,     ",
"' ) ) ) ) ) ) ) ) ) ) ) ) !     ",
"~ ) { ] ^ / ( _ : < [ } ) |     ",
"1 ) 2 2 2 2 2 2 2 2 2 2 ) 3     ",
"4 ) 5 5 5 5 5 5 5 5 5 5 ) 6     ",
"7 ) 5 2 8 2 2 2 9 2 0 a b c     ",
"d e f g h i j k l m n o p q r   ",
"s t u 2 v 2 2 0 w x y z A B C   ",
"D E F G G G G H I J K L a M N   ",
"O P Q 2 R 2 a M S T 2 2 U V W X ",
"Y P Z R R R `  ...+.@.@.#.$.%.&.",
"*.=.-.2 ;.2 >.,.'.).+.!.~.{.].  ",
"^./.(._.:.<.[.}.'.` M {.|.1.].  ",
"2.3.4.5.6.7.8.9.0.a.b.c.d.e.f.  ",
"                    g.h.        "};
