/* XPM */
static const char * const zoom_out_no_xpm[] = {
"16 16 55 1",
" 	g None",
".	g #AAAAAA",
"+	g #ABABAB",
"@	g #A5A5A5",
"#	g #A0A0A0",
"$	g #A9A9A9",
"%	g #9F9F9F",
"&	g #9D9D9D",
"*	g #A7A7A7",
"=	g #979797",
"-	g #A8A8A8",
";	g #949494",
">	g #909090",
",	g #919191",
"'	g #8E8E8E",
")	g #A3A3A3",
"!	g #8D8D8D",
"~	g #838383",
"{	g #777777",
"]	g #6A6A6A",
"^	g #5D5D5D",
"/	g #515151",
"(	g #9E9E9E",
"_	g #9C9C9C",
":	g #D2D2D2",
"<	g #CBCBCB",
"[	g #C3C3C3",
"}	g #BABABA",
"|	g #B1B1B1",
"1	g #474747",
"2	g #9A9A9A",
"3	g #959595",
"4	g #404040",
"5	g #939393",
"6	g #B7B7B7",
"7	g #CDCDCD",
"8	g #C6C6C6",
"9	g #8B8B8B",
"0	g #8C8C8C",
"a	g #868686",
"b	g #8A8A8A",
"c	g #C1C1C1",
"d	g #D5D5D5",
"e	g #D7D7D7",
"f	g #BDBDBD",
"g	g #707070",
"h	g #C7C7C7",
"i	g #D4D4D4",
"j	g #C9C9C9",
"k	g #A1A1A1",
"l	g #535353",
"m	g #B8B8B8",
"n	g #727272",
"o	g #696969",
"p	g #888888",
"                ",
"   ..+.@#       ",
"  +$    %&      ",
" +*      ==     ",
"$-        ;>    ",
"$          >    ",
"+          ,    ",
"$          '    ",
")    ;!~{]^/    ",
"(_   !:<[}|1    ",
" 23  ~{]^/14    ",
"  3,    56789   ",
"   0!'0abcdefg  ",
"         3hijkl ",
"          0mm=n ",
"           opg  "};
