/* XPM */
static const char * zoom_in_no_xpm[] = {
"16 16 59 1",
" 	g None",
".	g #AAAAAA",
"+	g #ABABAB",
"@	g #A5A5A5",
"#	g #A0A0A0",
"$	g #A9A9A9",
"%	g #9F9F9F",
"&	g #9D9D9D",
"*	g #A7A7A7",
"=	g #979797",
"-	g #A8A8A8",
";	g #949494",
">	g #909090",
",	g #999999",
"'	g #929292",
")	g #919191",
"!	g #969696",
"~	g #C7C7C7",
"{	g #888888",
"]	g #8E8E8E",
"^	g #A3A3A3",
"/	g #9B9B9B",
"(	g #A4A4A4",
"_	g #C2C2C2",
":	g #767676",
"<	g #6F6F6F",
"[	g #9E9E9E",
"}	g #9C9C9C",
"|	g #C3C3C3",
"1	g #BFBFBF",
"2	g #B2B2B2",
"3	g #B9B9B9",
"4	g #B5B5B5",
"5	g #656565",
"6	g #9A9A9A",
"7	g #959595",
"8	g #818181",
"9	g #636363",
"0	g #5C5C5C",
"a	g #AFAFAF",
"b	g #616161",
"c	g #CDCDCD",
"d	g #C6C6C6",
"e	g #8B8B8B",
"f	g #8C8C8C",
"g	g #8D8D8D",
"h	g #5E5E5E",
"i	g #585858",
"j	g #D5D5D5",
"k	g #D7D7D7",
"l	g #BDBDBD",
"m	g #707070",
"n	g #D4D4D4",
"o	g #C9C9C9",
"p	g #A1A1A1",
"q	g #535353",
"r	g #B8B8B8",
"s	g #727272",
"t	g #696969",
"                ",
"   ..+.@#       ",
"  +$    %&      ",
" +*      ==     ",
"$-        ;>    ",
"$          >    ",
"+      %,' )    ",
"$      !~{ ]    ",
"^    /;(_,:<    ",
"[}   '|12345    ",
" 67  {8;4{90    ",
"  7)   <abcde   ",
"   fg]f5hijklm  ",
"         7~nopq ",
"          frr=s ",
"           t{m  "};
