/* XPM */
static const char * zoom_min_xpm[] = {
"16 16 118 2",
"  	c None",
". 	c #84B66E",
"+ 	c #80B36A",
"@ 	c #7CB167",
"# 	c #77AE63",
"$ 	c #87B871",
"% 	c #79BD6E",
"& 	c #CBE6C3",
"* 	c #D4EBCF",
"= 	c #CEE9C9",
"- 	c #B8DDAF",
"; 	c #7FB96D",
"> 	c #69A558",
", 	c #87B870",
"' 	c #BBDCAF",
") 	c #BDE4B6",
"! 	c #A5DB9B",
"~ 	c #A0D996",
"{ 	c #AFDFA5",
"] 	c #C5E8C0",
"^ 	c #8AC279",
"/ 	c #5F9E50",
"( 	c #B7DAAA",
"_ 	c #DCF1D8",
": 	c #9DD892",
"< 	c #93CD88",
"[ 	c #8ECC84",
"} 	c #96D48B",
"| 	c #95D48A",
"1 	c #8ED283",
"2 	c #B7E0AF",
"3 	c #7DB96B",
"4 	c #569848",
"5 	c #97C785",
"6 	c #D7EED2",
"7 	c #A0D995",
"8 	c #94D38A",
"9 	c #89C87F",
"0 	c #85CD79",
"a 	c #7CC36B",
"b 	c #7EC76F",
"c 	c #B5DFAC",
"d 	c #579E45",
"e 	c #83B56D",
"f 	c #B6DDAC",
"g 	c #AFDFA6",
"h 	c #8CCB81",
"i 	c #86C97C",
"j 	c #6AAC5B",
"k 	c #77BC60",
"l 	c #73BA5C",
"m 	c #99D18B",
"n 	c #92C580",
"o 	c #478E3C",
"p 	c #7EB269",
"q 	c #BEE2B6",
"r 	c #97D58B",
"s 	c #86C97A",
"t 	c #FFFFFF",
"u 	c #70B859",
"v 	c #7EC169",
"w 	c #AAD49D",
"x 	c #428B38",
"y 	c #7AAF65",
"z 	c #B3DDA9",
"A 	c #8ACF7D",
"B 	c #81CC75",
"C 	c #7DBE67",
"D 	c #ABD49C",
"E 	c #3D8834",
"F 	c #75AC61",
"G 	c #98CC8A",
"H 	c #96D389",
"I 	c #7AC66B",
"J 	c #70C163",
"K 	c #65AB55",
"L 	c #72B95B",
"M 	c #97CC85",
"N 	c #8DBE7B",
"O 	c #398530",
"P 	c #68AB53",
"Q 	c #B4DDAA",
"R 	c #79C164",
"S 	c #71BE5F",
"T 	c #6EB558",
"U 	c #74B75C",
"V 	c #B4DAA6",
"W 	c #438F38",
"X 	c #66A356",
"Y 	c #7DB96A",
"Z 	c #B2DBA8",
"` 	c #6FB559",
" .	c #6FB558",
"..	c #74B75B",
"+.	c #B3D9A5",
"@.	c #6CAA5A",
"#.	c #34822C",
"$.	c #5D9C4D",
"%.	c #78B464",
"&.	c #B5DBA8",
"*.	c #98CC87",
"=.	c #7DBC66",
"-.	c #7CBA64",
";.	c #98CB86",
">.	c #B4D9A5",
",.	c #6BAA58",
"'.	c #34812C",
").	c #539645",
"!.	c #509941",
"~.	c #8FC27D",
"{.	c #A6D096",
"].	c #A6CF96",
"^.	c #89BE78",
"/.	c #428D36",
"(.	c #448C3A",
"_.	c #408936",
":.	c #3C8732",
"<.	c #37842F",
"                                ",
"            . + @ #             ",
"        $ % & * = - ; >         ",
"      , ' % ) ! ~ { ] ^ /       ",
"    , ( _ : < [ } | 1 2 3 4     ",
"    5 6 7 8 9 9 0 0 a b c d     ",
"  e f g h i % % j j k l m n o   ",
"  p q r s t t t t t t u v w x   ",
"  y z A B t t t t t t u C D E   ",
"  F G H I J K K u u u L M N O   ",
"    P Q R S k k u u T U V W     ",
"    X Y Z k l u `  ...+.@.#.    ",
"      $.%.&.*.=.-.;.>.,.'.      ",
"        ).!.~.{.].^./.'.        ",
"            (._.:.<.            ",
"                                "};
