/* XPM */
static const char * diag_cross_2_xpm[] = {
"16 16 2 1",
" 	c None",
".	c #000000",
".   .   .   .   ",
" . . . . . . . .",
"  .   .   .   . ",
" . . . . . . . .",
".   .   .   .   ",
" . . . . . . . .",
"  .   .   .   . ",
" . . . . . . . .",
".   .   .   .   ",
" . . . . . . . .",
"  .   .   .   . ",
" . . . . . . . .",
".   .   .   .   ",
" . . . . . . . .",
"  .   .   .   . ",
" . . . . . . . ."};
