/* XPM */
static const char * diag2_0_xpm[] = {
"16 16 2 1",
" 	c None",
".	c #000000",
"       .        ",
"        .       ",
"         .      ",
"          .     ",
"           .    ",
"            .   ",
"             .  ",
"              . ",
"               .",
".               ",
" .              ",
"  .             ",
"   .            ",
"    .           ",
"     .          ",
"      .         "};
