/* XPM */
static const char * diag1_01_xpm[] = {
"16 16 2 1",
" 	c None",
".	c #000000",
"        ..      ",
"       ..       ",
"      ..        ",
"     ..         ",
"    ..          ",
"   ..           ",
"  ..            ",
" ..             ",
"..              ",
".              .",
"              ..",
"             .. ",
"            ..  ",
"           ..   ",
"          ..    ",
"         ..     "};
