/* XPM */
static const char * diag2_1_xpm[] = {
"16 16 2 1",
" 	c None",
".	c #000000",
".       .       ",
" .       .      ",
"  .       .     ",
"   .       .    ",
"    .       .   ",
"     .       .  ",
"      .       . ",
"       .       .",
".       .       ",
" .       .      ",
"  .       .     ",
"   .       .    ",
"    .       .   ",
"     .       .  ",
"      .       . ",
"       .       ."};
