/* XPM */
static const char * dots6_xpm[] = {
"16 16 2 1",
" 	c None",
".	c #000000",
"..            ..",
".              .",
"                ",
"                ",
"                ",
"                ",
"       ..       ",
"      ....      ",
"      ....      ",
"       ..       ",
"                ",
"                ",
"                ",
"                ",
".              .",
"..            .."};
