/* XPM */
static const char * land2_xpm[] = {
"16 16 10 1",
" 	c None",
".	c #D0EFC0",
"+	c #C0E8C0",
"@	c #D0E8D0",
"#	c #D0EEA0",
"$	c #E0FFD0",
"%	c #D0F0C0",
"&	c #A0F0A0",
"*	c #C0FFC0",
"=	c #D0FFD0",
"%%==**==++==##==",
"%%==**==++==##==",
"==&&==$$==**==**",
"==&&==$$==**==**",
"$$==..==++==**==",
"$$==..==++==**==",
"==**==&&==%%==$$",
"==**==&&==%%==$$",
"&&==##==**==%%==",
"&&==##==**==%%==",
"==@@==%%==++==%%",
"==@@==%%==++==%%",
"..==&&==..==%%==",
"..==&&==..==%%==",
"==**==&&==$$==&&",
"==**==&&==$$==&&"};
