/* XPM */
static const char * land3_xpm[] = {
"16 16 9 1",
" 	c None",
".	c #E0E0D0",
"+	c #D0D0C0",
"@	c #ECECA0",
"#	c #E8E8C0",
"$	c #E0E0A0",
"%	c #DFDFC0",
"&	c #CACA80",
"*	c #D8D8D0",
"..++@@++##++$$++",
"..++@@++##++$$++",
"++##++..++@@++@@",
"++##++..++@@++@@",
"..++%%++##++@@++",
"..++%%++##++@@++",
"++@@++&&++..++..",
"++@@++&&++..++..",
"&&++$$++@@++##++",
"&&++$$++@@++##++",
"@@**++..++##++&&",
"@@**++..++##++&&",
"%%++##++%%++&&++",
"%%++##++%%++&&++",
"++@@++&&++..++##",
"++@@++&&++..++##"};
