/* XPM */
static const char * land5_xpm[] = {
"16 16 10 1",
" 	c None",
".	c #90B440",
"+	c #90A040",
"@	c #90C060",
"#	c #909860",
"$	c #80B850",
"%	c #A0B050",
"&	c #80AB50",
"*	c #90A070",
"=	c #80AF40",
"**++##++%%++$$++",
"**++##++%%++$$++",
"++..++==++##++==",
"++..++==++##++==",
"==++@@++%%++##++",
"==++@@++%%++##++",
"++##==..++**++==",
"++##==..++**++==",
"**++$$++##++**++",
"**++$$++##++**++",
"++&&++**++%%++**",
"++&&++**++%%++**",
"==++..++@@++**++",
"==++..++@@++**++",
"++##++==++==++..",
"++##++==++==++.."};
