/* XPM */
static const char * sea1_xpm[] = {
"16 16 7 1",
" 	c None",
".	c #C0FFFF",
"+	c #C0EFFF",
"@	c #B0EFFF",
"#	c #90F0FF",
"$	c #B0FFE0",
"%	c #D0FFE0",
"++##%%##%%++##@@",
"++##%%##%%++##@@",
"##$$..$$####++##",
"##$$..$$####++##",
"++##@@##$$%%##%%",
"++##@@##$$%%##%%",
"##%%##++####++@@",
"##%%##++####++@@",
"@@##$$++%%$$##++",
"@@##$$++%%$$##++",
"$$@@....$$..%%##",
"$$@@....$$..%%##",
"##%%##%%##$$##$$",
"##%%##%%##$$##$$",
"@@##$$##$$##++%%",
"@@##$$##$$##++%%"};
