/* XPM */
static const char * sea2_xpm[] = {
"16 16 7 1",
" 	c None",
".	c #80DFFF",
"+	c #80D0FF",
"@	c #40E0D0",
"#	c #40E0E0",
"$	c #70E0FF",
"%	c #70BFD0",
"..++@@++@@..++##",
"..++@@++@@..++##",
"++##$$##++++..++",
"++##$$##++++..++",
"..++%%++##@@++@@",
"..++%%++##@@++@@",
"++@@++..++++..%%",
"++@@++..++++..%%",
"..++##..@@##++..",
"..++##..@@##++..",
"##%%$$$$##$$@@++",
"##%%$$$$##$$@@++",
"++@@++@@++##++##",
"++@@++@@++##++##",
"%%++##++##++..@@",
"%%++##++##++..@@"};
