/* XPM */
static const char * vert01_xpm[] = {
"16 16 2 1",
" 	c None",
".	c #000000",
"..      ..      ",
"..      ..      ",
"..      ..      ",
"..      ..      ",
"..      ..      ",
"..      ..      ",
"..      ..      ",
"..      ..      ",
"..      ..      ",
"..      ..      ",
"..      ..      ",
"..      ..      ",
"..      ..      ",
"..      ..      ",
"..      ..      ",
"..      ..      "};
