/* XPM */
static const char * large_arrow_up_right_xpm[] = {
"16 16 3 1",
" 	c None",
".	c #FFFFFF",
"+	c #000000",
"                ",
"                ",
"     .........  ",
"     .+++++++.  ",
"      .++++++.  ",
"       .+++++.  ",
"       .+++++.  ",
"      .++++++.  ",
"     .+++..++.  ",
"    .+++.  .+.  ",
"   .+++.    ..  ",
"  .+++.         ",
"   .+.          ",
"    .           ",
"                ",
"                "};
