/* XPM */
static const char * large_arrow_down_left_xpm[] = {
"16 16 3 1",
" 	c None",
".	c #FFFFFF",
"+	c #000000",
"                ",
"                ",
"           .    ",
"          .+.   ",
"         .+++.  ",
"  ..    .+++.   ",
"  .+.  .+++.    ",
"  .++..+++.     ",
"  .++++++.      ",
"  .+++++.       ",
"  .+++++.       ",
"  .++++++.      ",
"  .+++++++.     ",
"  .........     ",
"                ",
"                "};
