/* XPM */
static const char * small_cross_xpm[] = {
"16 16 3 1",
" 	c None",
".	c #000000",
"+	c #FFFFFF",
"                ",
"                ",
"                ",
"                ",
"                ",
"      +++       ",
"     ++.++      ",
"     +...+      ",
"     ++.++      ",
"      +++       ",
"                ",
"                ",
"                ",
"                ",
"                ",
"                "};
