/* XPM */
static const char * airport_xpm[] = {
"16 16 47 1",
" 	c None",
".	c #FFFFFF",
"+	c #313131",
"@	c #4E4E4E",
"#	c #080808",
"$	c #232323",
"%	c #FCFCFC",
"&	c #070707",
"*	c #202020",
"=	c #FEFEFE",
"-	c #C4C4C4",
";	c #000000",
">	c #3D3D3D",
",	c #CFCFCF",
"'	c #E7E7E7",
")	c #5E5E5E",
"!	c #010101",
"~	c #030303",
"{	c #686868",
"]	c #EBEBEB",
"^	c #FAFAFA",
"/	c #8D8D8D",
"(	c #0E0E0E",
"_	c #111111",
":	c #939393",
"<	c #FBFBFB",
"[	c #BCBCBC",
"}	c #2A2A2A",
"|	c #373737",
"1	c #0A0A0A",
"2	c #2C2C2C",
"3	c #BDBDBD",
"4	c #040404",
"5	c #414141",
"6	c #E3E3E3",
"7	c #1A1A1A",
"8	c #4C4C4C",
"9	c #9D9D9D",
"0	c #090909",
"a	c #A7A7A7",
"b	c #A3A3A3",
"c	c #858585",
"d	c #525252",
"e	c #9F9F9F",
"f	c #A0A0A0",
"g	c #535353",
"h	c #828282",
"       +@       ",
"       #$       ",
"       #$       ",
"       #$       ",
"       #$       ",
"      %&*=      ",
"     -+;;>,     ",
"   ')!;;;;~{]   ",
" ^/(;;;;;;;;_:< ",
"[};;;!|11|!;;;23",
";;45:6 77 6:54;!",
"89]    77    ]98",
"       77       ",
"      3003      ",
"     a~;;~b     ",
"     cdefgh     "};
