/* XPM */
static const char * bus_xpm[] = {
"16 16 36 1",
" 	c None",
".	c #FFFFFF",
"+	c #DDDDDD",
"@	c #828282",
"#	c #3F3F3F",
"$	c #1D1D1D",
"%	c #080808",
"&	c #C9C9C9",
"*	c #090909",
"=	c #060606",
"-	c #B2B2B2",
";	c #BBBBBB",
">	c #070707",
",	c #7A7A7A",
"'	c #383838",
")	c #888888",
"!	c #5A5A5A",
"~	c #AAAAAA",
"{	c #3A3A3A",
"]	c #CDCDCD",
"^	c #CECECE",
"/	c #1B1B1B",
"(	c #EFEFEF",
"_	c #1A1A1A",
":	c #020202",
"<	c #C1C1C1",
"[	c #CCCCCC",
"}	c #000000",
"|	c #151515",
"1	c #5F5F5F",
"2	c #0F0F0F",
"3	c #C0C0C0",
"4	c #606060",
"5	c #F9F9F9",
"6	c #212121",
"7	c #A2A2A2",
"                ",
"    +@#$%$#@+   ",
"   &*=-;;;->*&  ",
"   ,')))))))',  ",
"   !~.......~!  ",
"   {].......^{  ",
"   /(.......(_  ",
"   :<[[[[[[[<:  ",
"   }}}}}}}}}}}  ",
"   }|:}}}}}:|}  ",
"   :(1}}}}}1(:  ",
"   }#2}}}}}2#}  ",
"   }}}}}}}}}}}  ",
"   3}4[[[[[4}3  ",
"   567     765  ",
"                "};
