/* XPM */
static const char * camping_xpm[] = {
"16 16 69 1",
" 	c None",
".	c #DEDEDE",
"+	c #4F4F51",
"@	c #A7A7A7",
"#	c #F4F4F4",
"$	c #DADADA",
"%	c #000086",
"&	c #0000B5",
"*	c #0B0B68",
"=	c #595960",
"-	c #B2B2B2",
";	c #FEFEFE",
">	c #00006B",
",	c #000082",
"'	c #32325D",
")	c #888888",
"!	c #535353",
"~	c #D9D9D9",
"{	c #898989",
"]	c #383838",
"^	c #161616",
"/	c #000000",
"(	c #BBBBBB",
"_	c #8C8C8C",
":	c #030505",
"<	c #404040",
"[	c #F6F6F6",
"}	c #181818",
"|	c #1C3333",
"1	c #467E7E",
"2	c #C3C3C3",
"3	c #909090",
"4	c #62B0B0",
"5	c #84EDED",
"6	c #070D0D",
"7	c #474747",
"8	c #F7F7F7",
"9	c #1B1B1B",
"0	c #1A2F2F",
"a	c #8DFEFE",
"b	c #8EFFFF",
"c	c #427777",
"d	c #CACACA",
"e	c #949494",
"f	c #60ACAC",
"g	c #82E9E9",
"h	c #050A0A",
"i	c #4F4F4F",
"j	c #F9F9F9",
"k	c #1D1D1D",
"l	c #182C2C",
"m	c #8DFDFD",
"n	c #3E6F6F",
"o	c #010101",
"p	c #D1D1D1",
"q	c #999999",
"r	c #1C3232",
"s	c #376363",
"t	c #2B4D4D",
"u	c #565656",
"v	c #DBF3DB",
"w	c #203B20",
"x	c #001B00",
"y	c #021D02",
"z	c #BED9BE",
"A	c #FAFDFA",
"B	c #91DD91",
"C	c #86DA86",
"D	c #EFFAEF",
"       .+@#     ",
"       $%&*=-;  ",
"       $>,').   ",
"       $!$      ",
"       ~{       ",
"       )]       ",
"      #^/(      ",
"      _/:<      ",
"     [}|1/2     ",
"     3/4567     ",
"    890abc/d    ",
"    e/fbbghi    ",
"   jklmbbbnop   ",
"   q/rsssst/u   ",
"  vwxxxxxxxxyzA ",
"  BCCCCCCCCCCCD "};
