/* XPM */
static const char * car_xpm[] = {
"16 16 19 1",
" 	c None",
".	c #060606",
"+	c #111111",
"@	c #090909",
"#	c #121212",
"$	c #070707",
"%	c #000000",
"&	c #B2B2B2",
"*	c #FFFFFF",
"=	c #FDFDFD",
"-	c #828282",
";	c #9E9E9E",
">	c #606060",
",	c #595959",
"'	c #7E7E7E",
")	c #979797",
"!	c #969696",
"~	c #4D4D4D",
"{	c #747474",
"                ",
"                ",
"                ",
"                ",
"   .++@##$      ",
"  %&*=-**;      ",
" %>**=-***,     ",
"%%'))!~))){%%   ",
"%%%%%%%%%%%%%%%%",
"%%%%%%%%%%%%%%%%",
"%%%%%%%%%%%%%%%%",
" %%%        %%% ",
"  %          %  ",
"                ",
"                ",
"                "};
