/* XPM */
static const char * caravan_xpm[] = {
"16 16 43 1",
" 	c None",
".	c #958E71",
"+	c #BBB28D",
"@	c #ADA583",
"#	c #CDC29A",
"$	c #C0B591",
"%	c #9E9377",
"&	c #BAAE8C",
"*	c #E9DDAF",
"=	c #AFA484",
"-	c #968B71",
";	c #AEA383",
">	c #131311",
",	c #9C9176",
"'	c #5B5145",
")	c #90856C",
"!	c #867B65",
"~	c #857A64",
"{	c #B0A585",
"]	c #817661",
"^	c #A79C7E",
"/	c #A59A7D",
"(	c #887D67",
"_	c #A5997C",
":	c #000000",
"<	c #010101",
"[	c #CCC199",
"}	c #989073",
"|	c #312D27",
"1	c #3D3930",
"2	c #BCB38E",
"3	c #7A745D",
"4	c #9B9476",
"5	c #999274",
"6	c #201D1A",
"7	c #241F1C",
"8	c #3C382F",
"9	c #8D866C",
"0	c #171614",
"a	c #221E1B",
"b	c #141312",
"c	c #121111",
"d	c #111111",
"                ",
"                ",
"                ",
"                ",
"  .+++++++++++@ ",
"  #$%%&*=----;*>",
"  #,'')*!''''~*>",
"  #{]]^*/((((_*>",
"  #************>",
":<[**}|12******>",
"  3456778444449 ",
"     07ab       ",
"      cd        ",
"                ",
"                ",
"                "};
