/* XPM */
static const char * castle_xpm[] = {
"16 16 6 1",
" 	c None",
".	c #FFFFFF",
"+	c #BFBFBF",
"@	c #7F7F7F",
"#	c #000000",
"$	c #404040",
"                ",
"                ",
"                ",
"                ",
"   +@+    +@+   ",
"   ###    ###   ",
"   @#@@++@@#@   ",
"   @########@   ",
"   @$+####+$@   ",
"   @@ #### @@   ",
"   @###++###@   ",
"   @###  ###@   ",
"   +@@@  @@@+   ",
"                ",
"                ",
"                "};
