/* XPM */
static char * court_of_law_xpm[] = {
"16 11 82 1",
" 	c #FFFFFF",
".	c #B0B0B0",
"+	c #D0D0D0",
"@	c #F8F8F8",
"#	c #C5C5C5",
"$	c #848484",
"%	c #2B2B2B",
"&	c #484848",
"*	c #919191",
"=	c #CBCBCB",
"-	c #F6F6F6",
";	c #EAEAEA",
">	c #A1A1A1",
",	c #969696",
"'	c #303030",
")	c #222222",
"!	c #585858",
"~	c #797979",
"{	c #808080",
"]	c #6F6F6F",
"^	c #252525",
"/	c #2C2C2C",
"(	c #8E8E8E",
"_	c #949494",
":	c #E1E1E1",
"<	c #353535",
"[	c #C0C0C0",
"}	c #FBFBFB",
"|	c #FAFAFA",
"1	c #B8B8B8",
"2	c #323232",
"3	c #FEFEFE",
"4	c #EBEBEB",
"5	c #131313",
"6	c #979797",
"7	c #090909",
"8	c #E4E4E4",
"9	c #959595",
"0	c #666666",
"a	c #868686",
"b	c #FDFDFD",
"c	c #6C6C6C",
"d	c #525252",
"e	c #8C8C8C",
"f	c #7B7B7B",
"g	c #828282",
"h	c #909090",
"i	c #A4A4A4",
"j	c #9A9A9A",
"k	c #7F7F7F",
"l	c #717171",
"m	c #FCFCFC",
"n	c #CECECE",
"o	c #B6B6B6",
"p	c #C6C6C6",
"q	c #515151",
"r	c #3F3F3F",
"s	c #C3C3C3",
"t	c #777777",
"u	c #BEBEBE",
"v	c #BDBDBD",
"w	c #505050",
"x	c #686868",
"y	c #1D1D1D",
"z	c #EFEFEF",
"A	c #DEDEDE",
"B	c #1B1B1B",
"C	c #5E5E5E",
"D	c #4F4F4F",
"E	c #A2A2A2",
"F	c #7D7D7D",
"G	c #1F1F1F",
"H	c #000000",
"I	c #020202",
"J	c #8D8D8D",
"K	c #010101",
"L	c #1A1A1A",
"M	c #D6D6D6",
"N	c #E6E6E6",
"O	c #B9B9B9",
"P	c #B3B3B3",
"Q	c #E2E2E2",
"       .+       ",
"    @#$%&*=-    ",
" ;>,')!~{]^/(_: ",
"  <[}}    @|123 ",
" 456        $78 ",
" 90ab      @cde ",
"3fgh1      ijklm",
"no~pq     3rstuv",
"aiwxyz    ABCDEF",
"AGHIJ     3fKHLM",
" NhO        P(Q "};
