/* XPM */
static const char * crane_xpm[] = {
"16 16 54 1",
" 	c None",
".	c #FFFFFF",
"+	c #B7B7B7",
"@	c #909090",
"#	c #919191",
"$	c #989898",
"%	c #C4C4C4",
"&	c #CBCBCB",
"*	c #CFCFCF",
"=	c #D4D4D4",
"-	c #D9D9D9",
";	c #E2E2E2",
">	c #727272",
",	c #171717",
"'	c #000000",
")	c #050505",
"!	c #757575",
"~	c #939393",
"{	c #959595",
"]	c #5B5B5B",
"^	c #A3A3A3",
"/	c #B8B8B8",
"(	c #737373",
"_	c #535353",
":	c #E8E8E8",
"<	c #E5E5E5",
"[	c #A8A8A8",
"}	c #BEBEBE",
"|	c #656565",
"1	c #BFBFBF",
"2	c #FAFAFA",
"3	c #A0A0A0",
"4	c #686868",
"5	c #858585",
"6	c #555555",
"7	c #828282",
"8	c #F2F2F2",
"9	c #E0E0E0",
"0	c #B1B1B1",
"a	c #5E5E5E",
"b	c #5C5C5C",
"c	c #C3C3C3",
"d	c #646464",
"e	c #8E8E8E",
"f	c #707070",
"g	c #4B4B4B",
"h	c #777777",
"i	c #EAEAEA",
"j	c #616161",
"k	c #CECECE",
"l	c #AFAFAF",
"m	c #454545",
"n	c #AEAEAE",
"o	c #C1C1C1",
"                ",
"                ",
"                ",
"                ",
"                ",
"   +@##$%&*=-;  ",
"   >,'')!@~{]^  ",
"    /](_:   <   ",
"    [} |    12  ",
"    3456    78  ",
"    [1 |    9   ",
"    0a5b        ",
"    ^c d        ",
"    ef5g        ",
"    hi j        ",
" kllmnlmllllllo "};
