/* XPM */
static const char * danger_xpm[] = {
"16 16 65 1",
" 	c None",
".	c #5E5E5E",
"+	c #4E4E4E",
"@	c #5E573B",
"#	c #685A21",
"$	c #606060",
"%	c #AA8801",
"&	c #D0A600",
"*	c #50504E",
"=	c #675B2C",
"-	c #C49D00",
";	c #B08C00",
">	c #76641B",
",	c #585756",
"'	c #C69E00",
")	c #3B2F00",
"!	c #271F00",
"~	c #DCB000",
"{	c #595852",
"]	c #74631D",
"^	c #FFCC00",
"/	c #4D3E00",
"(	c #2C2300",
"_	c #7E6914",
":	c #737373",
"<	c #57554E",
"[	c #DDB100",
"}	c #675200",
"|	c #312800",
"1	c #E6B800",
"2	c #615E54",
"3	c #6A6A6A",
"4	c #846C0F",
"5	c #806600",
"6	c #392D00",
"7	c #876E0C",
"8	c #7B7B7B",
"9	c #5B5645",
"0	c #EFBF00",
"a	c #B18D00",
"b	c #7C6300",
"c	c #676353",
"d	c #676767",
"e	c #987A04",
"f	c #D6AB00",
"g	c #CEA400",
"h	c #917507",
"i	c #7F7F7F",
"j	c #615938",
"k	c #FAC800",
"l	c #453700",
"m	c #292000",
"n	c #F6C500",
"o	c #6B664F",
"p	c #5D5D5D",
"q	c #AD8B00",
"r	c #FBC900",
"s	c #C59E00",
"t	c #B79200",
"u	c #997B03",
"v	c #808080",
"w	c #434343",
"x	c #504C3E",
"y	c #4E4A3E",
"z	c #575757",
"                ",
"       .+       ",
"       @#       ",
"      $%&*      ",
"      =-;>      ",
"     ,')!~{     ",
"     ]^/(^_:    ",
"    <[^}|^12    ",
"   34^^56^^78   ",
"   90^^ab^^0c   ",
"  de^^^fg^^^hi  ",
"  jk^^^lm^^^no  ",
" pqrrrrstrrrruv ",
" wxxxxxxxxxxxyz ",
"                ",
"                "};
