/* XPM */
static const char * emergency_xpm[] = {
"16 16 48 1",
" 	c None",
".	c #0000D6",
"+	c #A7A5A7",
"@	c #DBD8DB",
"#	c #DBD9DB",
"$	c #DCD9DC",
"%	c #DDDADD",
"&	c #DDDBDD",
"*	c #DEDBDE",
"=	c #DECACC",
"-	c #DFB0B2",
";	c #DFDDDF",
">	c #E0DEE0",
",	c #838283",
"'	c #676567",
")	c #5E5D5E",
"!	c #818081",
"~	c #C3C1C3",
"{	c #FFFCFF",
"]	c #FFEDF0",
"^	c #FF6768",
"/	c #FF292A",
"(	c #FFBFC1",
"_	c #757375",
":	c #FFEAED",
"<	c #FF5657",
"[	c #FF2323",
"}	c #FFB2B4",
"|	c #FFE4E7",
"1	c #FFC0C2",
"2	c #AAA8AA",
"3	c #9D9B9D",
"4	c #8C8A8C",
"5	c #A19FA1",
"6	c #B6B4B6",
"7	c #545354",
"8	c #FCF9FC",
"9	c #8E8C8E",
"0	c #595859",
"a	c #CBC9CB",
"b	c #C2C0C2",
"c	c #939193",
"d	c #060506",
"e	c #000000",
"f	c #010101",
"g	c #B1AFB1",
"h	c #989698",
"i	c #232323",
"                ",
"                ",
"                ",
"                ",
"            .   ",
"+@#$%&*=-;>,')! ",
"~{{{{{]^/({   _ ",
"~{{{{{:<[}{   , ",
"~{{{{{{|1{{23345",
"~67+{{{{{{{890ab",
"cdefgbbbbbbheeih",
"  e         ee  ",
"                ",
"                ",
"                ",
"                "};
