/* XPM */
static const char * emergency_phone_xpm[] = {
"16 16 64 1",
" 	c None",
".	c #5D79B2",
"+	c #5C79B2",
"@	c #97A4BF",
"#	c #617CB3",
"$	c #003399",
"%	c #617DB4",
"&	c #607CB3",
"*	c #06379B",
"=	c #345DAE",
"-	c #06389B",
";	c #1B49A4",
">	c #FEFEFF",
",	c #FFFFFF",
"'	c #F9F9F9",
")	c #CFCFCF",
"!	c #CBCBCB",
"~	c #FEFFFF",
"{	c #1D4AA5",
"]	c #FEFEFE",
"^	c #555555",
"/	c #5A5A5A",
"(	c #627EB4",
"_	c #DCDCDC",
":	c #010101",
"<	c #5E5E5E",
"[	c #747474",
"}	c #637EB4",
"|	c #BABABA",
"1	c #050505",
"2	c #E2E2E2",
"3	c #D0D0D0",
"4	c #000000",
"5	c #B3B3B3",
"6	c #627DB3",
"7	c #FAFAFA",
"8	c #1A1A1A",
"9	c #3B3B3B",
"0	c #647FB5",
"a	c #868686",
"b	c #BFBFBF",
"c	c #FCFCFC",
"d	c #F6F6F6",
"e	c #303030",
"f	c #3D3D3D",
"g	c #B8B8B8",
"h	c #5F5F5F",
"i	c #A6A6A6",
"j	c #E0E0E0",
"k	c #292929",
"l	c #353535",
"m	c #646464",
"n	c #F8F8F8",
"o	c #6580B6",
"p	c #A1A1A1",
"q	c #8F8F8F",
"r	c #E3E3E3",
"s	c #05379B",
"t	c #325BAD",
"u	c #3059AC",
"v	c #2F59AC",
"w	c #2F58AC",
"x	c #6681B6",
"y	c #9AA7C1",
" .+++++++++++++@",
"#$$$$$$$$$$$$$$%",
"&$*==========-$&",
"%$;>,')!,,,,~{$&",
"%$;>]^//,,,,~{$&",
"($;>_:<[,,,,~{$&",
"}$;>|12],,,,~{$&",
"}$;>345,,,,,~{$&",
"6$;>789],,,,~{$&",
"0$;>,a4b,c,,~{$&",
"0$;>,defghi,~{$&",
"0$;>,,jk4lmn~{$&",
"o$;>,,,dpqr,~{$&",
"o$stuuuuuuvwvs$&",
"x$$$$$$$$$$$$$$%",
" %%%%%%%%%%%%%%y"};
