/* XPM */
static const char * exchange_xpm[] = {
"16 16 74 1",
" 	c None",
".	c #FFFFFF",
"+	c #E5E5E5",
"@	c #B5B5B5",
"#	c #F4F4F4",
"$	c #A7A7A7",
"%	c #000000",
"&	c #D9D9D9",
"*	c #DBDBDB",
"=	c #E0E0E0",
"-	c #D6D6D6",
";	c #818181",
">	c #858585",
",	c #AFAFAF",
"'	c #FAFAFA",
")	c #585858",
"!	c #919191",
"~	c #707070",
"{	c #C8C8C8",
"]	c #1B1B1B",
"^	c #B1B1B1",
"/	c #A0A0A0",
"(	c #313131",
"_	c #686868",
":	c #969696",
"<	c #838383",
"[	c #EAEAEA",
"}	c #EBEBEB",
"|	c #B6B6B6",
"1	c #B9B9B9",
"2	c #6C6C6C",
"3	c #737373",
"4	c #626262",
"5	c #676767",
"6	c #8A8A8A",
"7	c #010101",
"8	c #3B3B3B",
"9	c #F3F3F3",
"0	c #DCDCDC",
"a	c #959595",
"b	c #A2A2A2",
"c	c #3F3F3F",
"d	c #A3A3A3",
"e	c #464646",
"f	c #656565",
"g	c #777777",
"h	c #545454",
"i	c #929292",
"j	c #E1E1E1",
"k	c #5C5C5C",
"l	c #5F5F5F",
"m	c #E4E4E4",
"n	c #B2B2B2",
"o	c #F2F2F2",
"p	c #474747",
"q	c #5D5D5D",
"r	c #757575",
"s	c #727272",
"t	c #262626",
"u	c #444444",
"v	c #CFCFCF",
"w	c #EFEFEF",
"x	c #888888",
"y	c #E7E7E7",
"z	c #A5A5A5",
"A	c #484848",
"B	c #696969",
"C	c #F7F7F7",
"D	c #1E1E1E",
"E	c #B8B8B8",
"F	c #C6C6C6",
"G	c #6B6B6B",
"H	c #7D7D7D",
"I	c #F9F9F9",
"                ",
"+@@@@@@@@@@@@@@#",
"$%%%%%%%%%%%%%%&",
"$%*===-;>*===,%&",
"$%'...),!~...{%&",
"$%'...]^/(...{%&",
"$%'..._:<;[}.{%&",
"$%|111|23>456!%&",
"$%%%%%%%%7@8%%%&",
"90&ab0000cd)e00'",
"  fghi   jklm   ",
"  ]n:c   *o     ",
"  pqqr  stuv    ",
"  wx:' y7zAB    ",
"       CDEe6    ",
"        FGHI    "};
