/* XPM */
static const char * firebrigade_xpm[] = {
"16 16 72 1",
" 	c None",
".	c #FFFFFF",
"+	c #0000FF",
"@	c #E7E7FF",
"#	c #F2BBBB",
"$	c #CF7E7E",
"%	c #D47878",
"&	c #D28080",
"*	c #E58F8F",
"=	c #E76F6F",
"-	c #E56767",
";	c #E77070",
">	c #E97A7A",
",	c #801F8A",
"'	c #E7B4C2",
")	c #E49696",
"!	c #808080",
"~	c #8E6464",
"{	c #C46161",
"]	c #ED9494",
"^	c #FCEFEF",
"/	c #FAE2E2",
"(	c #E87676",
"_	c #FAE4E4",
":	c #FEFCFC",
"<	c #E87777",
"[	c #F4BBBB",
"}	c #F2B2B2",
"|	c #E45E5E",
"1	c #F8D8D8",
"2	c #F7CDCD",
"3	c #F4BEBE",
"4	c #807E7E",
"5	c #8F6363",
"6	c #827D7D",
"7	c #C46060",
"8	c #D71010",
"9	c #D40000",
"0	c #D60909",
"a	c #D50303",
"b	c #EB8989",
"c	c #EB8E8E",
"d	c #CA0F0F",
"e	c #CF2F2F",
"f	c #723030",
"g	c #6D2424",
"h	c #D33434",
"i	c #D00B0B",
"j	c #D40A0A",
"k	c #D50505",
"l	c #D50404",
"m	c #AF6262",
"n	c #635151",
"o	c #C54F4F",
"p	c #F8D6D6",
"q	c #E76E6E",
"r	c #CB8585",
"s	c #010101",
"t	c #000000",
"u	c #B97E7E",
"v	c #E46060",
"w	c #E87474",
"x	c #323232",
"y	c #6A5C5C",
"z	c #F5C1C1",
"A	c #FAFAFA",
"B	c #5C5C5C",
"C	c #515151",
"D	c #F4F4F4",
"E	c #9C9C9C",
"F	c #393939",
"G	c #C6C6C6",
"                ",
"                ",
"                ",
"                ",
"            ++@ ",
"#$$$%&&&*=-;>,' ",
")!!!~!!!{]^/(_]:",
")!!!~!!!{<[}|123",
")444566678909a9b",
"cdefghiijklkmnob",
"pqrstuvvvvvwxtyz",
"  ABCD      EFG ",
"                ",
"                ",
"                ",
"                "};
