/* XPM */
static const char * fuel_station_xpm[] = {
"16 16 47 1",
" 	c None",
".	c #FFFFFF",
"+	c #7E7E7E",
"@	c #000000",
"#	c #0A0A0A",
"$	c #B3B3B3",
"%	c #1F1F1F",
"&	c #262626",
"*	c #A1A1A1",
"=	c #676767",
"-	c #2B2B2B",
";	c #010101",
">	c #4A4A4A",
",	c #AFAFAF",
"'	c #202020",
")	c #4C4C4C",
"!	c #444444",
"~	c #4D4D4D",
"{	c #DFDFDF",
"]	c #343434",
"^	c #151515",
"/	c #686868",
"(	c #696969",
"_	c #6A6A6A",
":	c #424242",
"<	c #818181",
"[	c #393939",
"}	c #666666",
"|	c #F5F5F5",
"1	c #878787",
"2	c #B8B8B8",
"3	c #6F6F6F",
"4	c #ECECEC",
"5	c #6E6E6E",
"6	c #797979",
"7	c #BBBBBB",
"8	c #5B5B5B",
"9	c #5E5E5E",
"0	c #EEEEEE",
"a	c #4E4E4E",
"b	c #BCBCBC",
"c	c #6C6C6C",
"d	c #595959",
"e	c #D3D3D3",
"f	c #FBFBFB",
"g	c #161616",
"h	c #919191",
"                ",
"      +@@@@@@#  ",
"     $%&****=@  ",
"     -;>....,@  ",
"     '@)....,@  ",
"     !)~....,@  ",
"    {]=^=/(_:@  ",
"    <[}@@@@@@@  ",
"   |~_}@@@@@@@  ",
"   123}@@@@@@@  ",
"  4) 5}@@@@@@@  ",
"  67 /}@@@@@@@  ",
"  >  8}@@@@@@@  ",
"  9 0a}@@@@@@;  ",
"  bcdefg@@@@;h  ",
"                "};
