/* XPM */
static const char * garage_xpm[] = {
"16 16 68 1",
" 	c None",
".	c #6580B5",
"+	c #657FB5",
"@	c #9DA9C0",
"#	c #6782B6",
"$	c #003399",
"%	c #1141A0",
"&	c #3A61B0",
"*	c #6C86B8",
"=	c #6781B6",
"-	c #04369B",
";	c #6B89C4",
">	c #E8EDF6",
",	c #E5EAF5",
"'	c #ABBCDD",
")	c #1F4CA5",
"!	c #6C85B8",
"~	c #476CB5",
"{	c #D5DDEE",
"]	c #BAC8E4",
"^	c #2C56AB",
"/	c #083A9C",
"(	c #7D97CB",
"_	c #EBEFF7",
":	c #7E98CB",
"<	c #093A9C",
"[	c #6882B6",
"}	c #819ACD",
"|	c #D9E1F0",
"1	c #4D71B8",
"2	c #1E4BA5",
"3	c #AABBDD",
"4	c #98ACD6",
"5	c #6882B7",
"6	c #1846A2",
"7	c #06389B",
"8	c #315AAD",
"9	c #4C70B7",
"0	c #4A6FB7",
"a	c #2752A9",
"b	c #A4B7DB",
"c	c #F9FAFC",
"d	c #EDF0F8",
"e	c #EFF2F9",
"f	c #FEFEFF",
"g	c #8DA4D1",
"h	c #A6B8DC",
"i	c #486CB6",
"j	c #FFFFFF",
"k	c #6983B7",
"l	c #4A6EB7",
"m	c #C2CEE7",
"n	c #4F72B8",
"o	c #5073B9",
"p	c #A5B7DB",
"q	c #EEF2F8",
"r	c #F8F9FC",
"s	c #EAEEF7",
"t	c #CAD4EA",
"u	c #3E65B2",
"v	c #6A84B7",
"w	c #6B84B8",
"x	c #2B56AA",
"y	c #2C56AA",
"z	c #6D86B8",
"A	c #98A4BD",
"B	c #6A83B7",
"C	c #9EAAC1",
" ....+++++++++.@",
"#$$$$$$%&$$$$$$*",
"=$$$$-;>,')$$$$!",
"#$$$~{]^/(_:<$$!",
"[$$}|1$$$$234$$!",
"5$$678990a$$7$$!",
"5$$$$bcdefg$$$$!",
"5$$$$bh$$ij^$$$!",
"k$$$$bh$$<fl$$$!",
"k$$$$bmnopq%$$$!",
"k$$$$br_stu$$$$!",
"k$$$$bh$$$$$$$$!",
"v$$$$bh$$$$$$$$!",
"v$$$$bh$$$$$$$$!",
"w$$$$xy$$$$$$$$z",
"AkkkkBvvvvvvvvvC"};
