/* XPM */
static const char * garden_xpm[] = {
"16 16 4 1",
" 	c #A3B6F3",
".	c #008000",
"+	c #804000",
"@	c #45D749",
"                ",
"                ",
"                ",
"                ",
"                ",
"    ..          ",
"   ....         ",
"  ......        ",
"  ......        ",
" ........       ",
" ........       ",
"    ++      ..  ",
"    ++     .... ",
"@@@@@@@@@@@@@@@@",
"@@@@@@@@@@@@@@@@",
"@@@@@@@@@@@@@@@@"};
