/* XPM */
static const char * guest_house_xpm[] = {
"16 16 96 2",
"  	c None",
". 	c #FEFEFE",
"+ 	c #F0F0F0",
"@ 	c #CACACA",
"# 	c #B5B5B5",
"$ 	c #EDEDED",
"% 	c #CCCCCC",
"& 	c #B3B3B3",
"* 	c #B6B6B6",
"= 	c #EEEEEE",
"- 	c #CDCDCD",
"; 	c #B7B7B7",
"> 	c #CFCFCF",
", 	c #B8B8B8",
"' 	c #F1F1F1",
") 	c #D0D0D0",
"! 	c #F2F2F2",
"~ 	c #F6F6F6",
"{ 	c #656565",
"] 	c #1D1D1D",
"^ 	c #535353",
"/ 	c #BCBCBC",
"( 	c #E4E4E4",
"_ 	c #DBDBDB",
": 	c #4D4D4D",
"< 	c #DEDEDE",
"[ 	c #000000",
"} 	c #919191",
"| 	c #C4C4C4",
"1 	c #D2D2D2",
"2 	c #2D2D2D",
"3 	c #F4F4F4",
"4 	c #1C1C1C",
"5 	c #0E0E0E",
"6 	c #7B7B7B",
"7 	c #4C4C4C",
"8 	c #4B4B4B",
"9 	c #515151",
"0 	c #858585",
"a 	c #FBFBFB",
"b 	c #CECECE",
"c 	c #313131",
"d 	c #949494",
"e 	c #5F5F5F",
"f 	c #686868",
"g 	c #1E1E1E",
"h 	c #5D5D5D",
"i 	c #A8A8A8",
"j 	c #CBCBCB",
"k 	c #343434",
"l 	c #6B6B6B",
"m 	c #474747",
"n 	c #363636",
"o 	c #626262",
"p 	c #2C2C2C",
"q 	c #2F2F2F",
"r 	c #262626",
"s 	c #212121",
"t 	c #242424",
"u 	c #4A4A4A",
"v 	c #696969",
"w 	c #C8C8C8",
"x 	c #020202",
"y 	c #0B0B0B",
"z 	c #0C0C0C",
"A 	c #0A0A0A",
"B 	c #131313",
"C 	c #151515",
"D 	c #121212",
"E 	c #111111",
"F 	c #161616",
"G 	c #8A8A8A",
"H 	c #C5C5C5",
"I 	c #383838",
"J 	c #DDDDDD",
"K 	c #A9A9A9",
"L 	c #A7A7A7",
"M 	c #DCDCDC",
"N 	c #EAEAEA",
"O 	c #BBBBBB",
"P 	c #A2A2A2",
"Q 	c #A1A1A1",
"R 	c #AEAEAE",
"S 	c #E1E1E1",
"T 	c #8F8F8F",
"U 	c #C1C1C1",
"V 	c #3E3E3E",
"W 	c #E8E8E8",
"X 	c #818181",
"Y 	c #A3A3A3",
"Z 	c #F7F7F7",
"` 	c #E7E7E7",
" .	c #E9E9E9",
"..	c #B2B2B2",
"+.	c #EFEFEF",
"@.	c #C3C3C3",
"              . +               ",
"            . @ # $             ",
"          . % & & * =           ",
"          - & & & & ; +         ",
"        > & & & & & & , '       ",
"      ) & & & & & & & & , !     ",
"    ~ { ] ^ & & & & & & / (     ",
"_ : < [ [ [ } & & & & & |       ",
"1 2 3 4 [ 5 6 7 8 8 8 8 9 0 a   ",
"b c d e 4 f g [ [ [ [ [ [ [ h i ",
"j k l m n o f p q r s s t u v 0 ",
"w x y z A y z B C D E D F g 5 G ",
"H I 3 J K i L M N O P Q R S o T ",
"U V   W & & & =   b & & |   X Y ",
"Z `    .......+.  b ....@.      ",
"                                "};
