/* XPM */
static const char * helipad_xpm[] = {
"16 16 9 1",
" 	c None",
".	c #000000",
"+	c #7D7D7D",
"@	c #5A5A5A",
"#	c #FDFDFD",
"$	c #020202",
"%	c #FEFEFE",
"&	c #303030",
"*	c #9D9D9D",
"                ",
"                ",
"                ",
"                ",
"    ....+++.... ",
"  +@#### $ #### ",
" ++..........+  ",
" ++.......%. %& ",
"     *.... . %$ ",
"       ........ ",
"        ....... ",
"         +  +   ",
"       ........ ",
"                ",
"                ",
"                "};
