/* XPM */
static const char * hospital_xpm[] = {
"16 16 6 1",
" 	c None",
".	c #FF0000",
"+	c #FF8040",
"@	c #FF6040",
"#	c #FFFFFF",
"$	c #FFA040",
"     @@..@+     ",
"    ..####+.    ",
"   .##$..$##.   ",
"  .###$..$###.  ",
" .####$..$####. ",
"@.####$..$####@@",
"@#$$$$@..@$$$$#.",
".#............#.",
".#............#.",
"@#$$$$@..@$$$$#.",
"++####$..$####+@",
" .####$..$####. ",
"  .###$..$###.  ",
"   .##$..$##.   ",
"    .+####+.    ",
"     @....@     "};
