/* XPM */
static const char * hostel_xpm[] = {
"16 16 62 1",
" 	c None",
".	c #FFFFFF",
"+	c #D4D4D4",
"@	c #EEEEEE",
"#	c #D3D3D3",
"$	c #161616",
"%	c #373737",
"&	c #F0F0F0",
"*	c #D7D7D7",
"=	c #191919",
"-	c #000000",
";	c #3C3C3C",
">	c #F2F2F2",
",	c #DBDBDB",
"'	c #1C1C1C",
")	c #414141",
"!	c #F4F4F4",
"~	c #E7E7E7",
"{	c #DFDFDF",
"]	c #1F1F1F",
"^	c #464646",
"/	c #F6F6F6",
"(	c #A5A5A5",
"_	c #C1C1C1",
":	c #F3F3F3",
"<	c #424242",
"[	c #010101",
"}	c #747474",
"|	c #4A4A4A",
"1	c #707070",
"2	c #BDBDBD",
"3	c #040404",
"4	c #C4C4C4",
"5	c #020202",
"6	c #121212",
"7	c #E8E8E8",
"8	c #272727",
"9	c #636363",
"0	c #FEFEFE",
"a	c #B9B9B9",
"b	c #2C2C2C",
"c	c #FAFAFA",
"d	c #0A0A0A",
"e	c #484848",
"f	c #444444",
"g	c #2E2E2E",
"h	c #767676",
"i	c #242424",
"j	c #9A9A9A",
"k	c #5D5D5D",
"l	c #181818",
"m	c #5E5E5E",
"n	c #BFBFBF",
"o	c #404040",
"p	c #ADADAD",
"q	c #6F6F6F",
"r	c #BCBCBC",
"s	c #CECECE",
"t	c #3F3F3F",
"u	c #5A5A5A",
"v	c #F5F5F5",
"w	c #F9F9F9",
"                ",
"          +@    ",
"         #$%&   ",
"        *=--;>  ",
"       ,'----)! ",
"  ~!  {]------^/",
"  (_ :<-------[}",
"  |1  2-------3/",
" 456@ 2-------3/",
"78-5902-------3/",
"0a-bc 2--def[-3/",
">g--h 2--i >3-3/",
"jkl)mn2--i >3-3/",
"  op  2--i >3-3/",
"  qr  sttu v<t<w",
"                "};
