/* XPM */
static const char * hotel_xpm[] = {
"16 16 71 1",
" 	c None",
".	c #FFFFFF",
"+	c #838383",
"@	c #2A2A2A",
"#	c #777777",
"$	c #DBDBDB",
"%	c #4D4D4D",
"&	c #DEDEDE",
"*	c #000000",
"=	c #CECECE",
"-	c #D2D2D2",
";	c #2D2D2D",
">	c #F4F4F4",
",	c #1C1C1C",
"'	c #141414",
")	c #AFAFAF",
"!	c #6C6C6C",
"~	c #6A6A6A",
"{	c #858585",
"]	c #FBFBFB",
"^	c #313131",
"/	c #949494",
"(	c #656565",
"_	c #272727",
":	c #959595",
"<	c #2B2B2B",
"[	c #5D5D5D",
"}	c #A8A8A8",
"|	c #CBCBCB",
"1	c #343434",
"2	c #6B6B6B",
"3	c #8C8C8C",
"4	c #303030",
"5	c #2F2F2F",
"6	c #4A4A4A",
"7	c #696969",
"8	c #C8C8C8",
"9	c #020202",
"0	c #0B0B0B",
"a	c #0D0D0D",
"b	c #0E0E0E",
"c	c #101010",
"d	c #121212",
"e	c #131313",
"f	c #151515",
"g	c #171717",
"h	c #191919",
"i	c #1A1A1A",
"j	c #1E1E1E",
"k	c #8A8A8A",
"l	c #C5C5C5",
"m	c #383838",
"n	c #F2F2F2",
"o	c #F1F1F1",
"p	c #EFEFEF",
"q	c #EDEDED",
"r	c #ECECEC",
"s	c #EAEAEA",
"t	c #E8E8E8",
"u	c #E6E6E6",
"v	c #E5E5E5",
"w	c #E3E3E3",
"x	c #E1E1E1",
"y	c #626262",
"z	c #8F8F8F",
"A	c #C1C1C1",
"B	c #3E3E3E",
"C	c #818181",
"D	c #A3A3A3",
"E	c #F7F7F7",
"F	c #E7E7E7",
"                ",
"                ",
"                ",
"                ",
"                ",
"                ",
"   +@#          ",
"$%&***=         ",
"-;>,*')!~~~~~{] ",
"=^/(_:<*******[}",
"|12%%3:45555567{",
"890abcdefghi,jbk",
"lm>nopqrstuvwxyz",
"AB            CD",
"EF              ",
"                "};
