/* XPM */
static const char * incline_xpm[] = {
"16 16 71 1",
" 	c None",
".	c #D12828",
"+	c #D12727",
"@	c #D36161",
"#	c #CD0303",
"$	c #D36060",
"%	c #CF1212",
"&	c #E16868",
"*	c #CF1111",
"=	c #D34949",
"-	c #D01313",
";	c #FBEAEA",
">	c #D01414",
",	c #D28484",
"'	c #CD0404",
")	c #EA9595",
"!	c #FFFFFF",
"~	c #F9F9F9",
"{	c #D23030",
"]	c #D63131",
"^	c #F8F4F4",
"/	c #E8E8E8",
"(	c #8F8F8F",
"_	c #FAF7F7",
":	c #D63232",
"<	c #D22F2F",
"[	c #D26969",
"}	c #CC0202",
"|	c #CF9D9D",
"1	c #B3B3B3",
"2	c #A3A3A3",
"3	c #D1D1D1",
"4	c #B8B8B8",
"5	c #B38282",
"6	c #D01818",
"7	c #DE5A5A",
"8	c #FDFDFD",
"9	c #A4A4A4",
"0	c #A0A0A0",
"a	c #969696",
"b	c #2B2B2B",
"c	c #040404",
"d	c #AB2727",
"e	c #D35050",
"f	c #CE0C0C",
"g	c #F9E3E3",
"h	c #C4C4C4",
"i	c #464646",
"j	c #000000",
"k	c #341E1E",
"l	c #CD0B0B",
"m	c #CD0707",
"n	c #E78686",
"o	c #E7E7E7",
"p	c #666666",
"q	c #050505",
"r	c #872727",
"s	c #D23838",
"t	c #CF2020",
"u	c #928B8B",
"v	c #1C1A1A",
"w	c #0E0D0D",
"x	c #241C1C",
"y	c #C61818",
"z	c #D27070",
"A	c #CC0000",
"B	c #CE0B0B",
"C	c #D11919",
"D	c #CF7F7F",
"E	c #D05858",
"F	c #CF7E7E",
"                ",
"                ",
"       .+       ",
"      @##$      ",
"      %&&*      ",
"     =-;;>=     ",
"    ,')!~)#,    ",
"    {]^/(_:<    ",
"   [}|12345}[   ",
"   67890abcd6   ",
"  efg!hijjjkle  ",
"  mnopqjjjjjrm  ",
" stuvwwwwwwwxys ",
"zABCCCCCCCCCCBAz",
"DEEEEEEEEEEEEEEF",
"                "};
