/* XPM */
static const char * information_xpm[] = {
"16 16 29 1",
" 	c None",
".	c #0000FF",
"+	c #0707FF",
"@	c #8B8BFF",
"#	c #8C8CFF",
"$	c #0A0AFF",
"%	c #3636FF",
"&	c #FFFFFF",
"*	c #3E3EFF",
"=	c #0909FF",
"-	c #8A8AFF",
";	c #9191FF",
">	c #0B0BFF",
",	c #4242FF",
"'	c #4343FF",
")	c #0F0FFF",
"!	c #1818FF",
"~	c #A6A6FF",
"{	c #3737FF",
"]	c #2F2FFF",
"^	c #0505FF",
"/	c #4949FF",
"(	c #5050FF",
"_	c #0606FF",
":	c #1D1DFF",
"<	c #B5B5FF",
"[	c #B7B7FF",
"}	c #B6B6FF",
"|	c #2121FF",
"     ......     ",
"   ..........   ",
"  ....+@#$....  ",
" .....%&&*..... ",
" .....=-;$..... ",
".....>,'')......",
".....!~&&{......",
"......]&&{......",
"......]&&{......",
"......]&&{......",
"......]&&{......",
" .....]&&{..... ",
" ....^/&&(_.... ",
"  ...:<[[}|...  ",
"   ..........   ",
"     ......     "};
