/* XPM */
static const char * island_xpm[] = {
"16 16 40 1",
" 	c None",
".	c #1E370C",
"+	c #3A6A16",
"@	c #3C6D17",
"#	c #427819",
"$	c #2F5512",
"%	c #3D6F17",
"&	c #335C13",
"*	c #356014",
"=	c #294B10",
"-	c #2B4E10",
";	c #3F7318",
">	c #26450E",
",	c #48831B",
"'	c #3B6A16",
")	c #407318",
"!	c #4B881C",
"~	c #60AF24",
"{	c #437A19",
"]	c #60AE24",
"^	c #446E14",
"/	c #779713",
"(	c #918201",
"_	c #AF9A00",
":	c #B49F00",
"<	c #B5A000",
"[	c #B29E00",
"}	c #A99600",
"|	c #928000",
"1	c #494100",
"2	c #998700",
"3	c #D0B900",
"4	c #DAC200",
"5	c #DDC400",
"6	c #DFC600",
"7	c #DFC500",
"8	c #E0C700",
"9	c #E4CA00",
"0	c #E2C900",
"a	c #685D00",
"                ",
"                ",
"       .        ",
"      +@        ",
"    #$+%#       ",
"    &*@=        ",
"   -;> ,        ",
"     *  '       ",
"     )          ",
"    !           ",
"    ~           ",
"   {]           ",
"   ^/(_:<[}|    ",
" 123456755890[a ",
"                ",
"                "};
