/* XPM */
static const char * lighthouse_xpm[] = {
"16 16 62 1",
" 	c None",
".	c #FFFFFF",
"+	c #FEFEFE",
"@	c #CFCBCB",
"#	c #FBFBFB",
"$	c #EEEEEE",
"%	c #FCFCFC",
"&	c #752A2A",
"*	c #B51313",
"=	c #812121",
"-	c #E5E5E5",
";	c #E9E9E9",
">	c #ADADAD",
",	c #828282",
"'	c #7D7D7D",
")	c #9F9F9F",
"!	c #EDEDED",
"~	c #A41818",
"{	c #DB1313",
"]	c #BE1010",
"^	c #CCC8C8",
"/	c #C1C1C1",
"(	c #909090",
"_	c #B6B6B6",
":	c #BBBBBB",
"<	c #C3C3C3",
"[	c #DDDDDD",
"}	c #B11414",
"|	c #CB1212",
"1	c #BAB2B2",
"2	c #B9B9B9",
"3	c #7F7F7F",
"4	c #ACACAC",
"5	c #CECECE",
"6	c #CDC9C9",
"7	c #BD1010",
"8	c #D81313",
"9	c #ACA1A1",
"0	c #BDBDBD",
"a	c #959595",
"b	c #7E7E7E",
"c	c #A6A6A6",
"d	c #AFA9A9",
"e	c #7B1010",
"f	c #871212",
"g	c #9A9191",
"h	c #F9F9F9",
"i	c #A7A7A7",
"j	c #A5A5A5",
"k	c #7E6565",
"l	c #841B1B",
"m	c #663A3A",
"n	c #945151",
"o	c #8F2B2B",
"p	c #903636",
"q	c #8C1C1C",
"r	c #8D2222",
"s	c #8D1818",
"t	c #5E1D1D",
"u	c #8D1C1C",
"v	c #5E1919",
"w	c #F1F1F1",
"                ",
"    +@#      $  ",
"   %&*=-;>,'')  ",
"   !~{]^/(_::<  ",
"   [}{|1234<<5  ",
"   67{89$0abbc  ",
"   deffg        ",
"   4h..i        ",
"   c...c        ",
"   j...i        ",
"   j...j        ",
"   klllm        ",
"   n{{{o        ",
"   p{{{q        ",
"   r{{{s+       ",
"   tuuuvw       "};
