/* XPM */
static const char * marina_xpm[] = {
"16 16 14 1",
" 	c #FFFFFF",
".	c #BFBFBF",
"+	c #707070",
"@	c #606060",
"#	c #909090",
"$	c #404040",
"%	c #808080",
"&	c #E0E0E0",
"*	c #B0B0B0",
"=	c #505050",
"-	c #D0D0D0",
";	c #A0A0A0",
">	c #C0C0C0",
",	c #202020",
"      .+@.      ",
"      @.#$      ",
"      +#%@      ",
"   %+%%&*%%=%   ",
"   %$$$-;$$$%   ",
"      %&;%      ",
"      %&;%      ",
"      %&;%      ",
"  %   %&;%   %  ",
" +>@  %&;%  +>@ ",
"+&>*@ %&;% +&>*@",
"%@*$% %&;% %@-$%",
" @>@. %&;% %;-$ ",
" %;&#@@&>@@&>+% ",
"  .+;&&-->>+@.  ",
"    .%$$$,%.    "};
