/* XPM */
static const char * mine_xpm[] = {
"16 16 86 1",
" 	c None",
".	c #FFFFFF",
"+	c #B4B4B4",
"@	c #EDEDED",
"#	c #E3E3E3",
"$	c #F6F6F6",
"%	c #666666",
"&	c #000000",
"*	c #464646",
"=	c #FAFAFA",
"-	c #FDFDFD",
";	c #777777",
">	c #0B0B0B",
",	c #BABABA",
"'	c #E6E6E6",
")	c #323232",
"!	c #060606",
"~	c #909090",
"{	c #FBFBFB",
"]	c #575757",
"^	c #070707",
"/	c #535353",
"(	c #F4F4F4",
"_	c #F8F8F8",
":	c #343434",
"<	c #020202",
"[	c #C1C1C1",
"}	c #FCFCFC",
"|	c #585858",
"1	c #010101",
"2	c #9D9D9D",
"3	c #717171",
"4	c #181818",
"5	c #7A7A7A",
"6	c #EFEFEF",
"7	c #2F2F2F",
"8	c #313131",
"9	c #090909",
"0	c #E4E4E4",
"a	c #E8E8E8",
"b	c #0E0E0E",
"c	c #030303",
"d	c #BEBEBE",
"e	c #797979",
"f	c #F3F3F3",
"g	c #3A3A3A",
"h	c #484848",
"i	c #9E9E9E",
"j	c #161616",
"k	c #696969",
"l	c #D4D4D4",
"m	c #959595",
"n	c #EAEAEA",
"o	c #2A2A2A",
"p	c #737373",
"q	c #474747",
"r	c #333333",
"s	c #F2F2F2",
"t	c #878787",
"u	c #DEDEDE",
"v	c #050505",
"w	c #262626",
"x	c #565656",
"y	c #121212",
"z	c #171717",
"A	c #646464",
"B	c #606060",
"C	c #080808",
"D	c #C3C3C3",
"E	c #D2D2D2",
"F	c #5B5B5B",
"G	c #FEFEFE",
"H	c #6A6A6A",
"I	c #ACACAC",
"J	c #C8C8C8",
"K	c #0D0D0D",
"L	c #525252",
"M	c #F9F9F9",
"N	c #919191",
"O	c #BDBDBD",
"P	c #B1B1B1",
"Q	c #747474",
"R	c #AFAFAF",
"S	c #040404",
"T	c #AEAEAE",
"U	c #CFCFCF",
"                ",
"     +@   #     ",
"   $%&*=-;>,    ",
"  ')&!~ {]&^/(  ",
" _:&<[   }|&12  ",
" 3&4:5   678&90 ",
"abcd6)e fgh=ijk ",
" lm  nopqrf  st@",
"      uvw'      ",
"     }xyzA-     ",
"    -BCDEyF{    ",
"   GH<I  JKLM   ",
"   p&N    OCh$  ",
"  P&Q      RSe  ",
"  _TG       Uf  ",
"                "};
