/* XPM */
static const char * motorbike2_xpm[] = {
"16 16 58 1",
" 	c None",
".	c #D07272",
"+	c #CF5C5C",
"@	c #D35353",
"#	c #CE0C0C",
"$	c #CC0000",
"%	c #D12222",
"&	c #D32525",
"*	c #DD5555",
"=	c #D32323",
"-	c #F2BCBC",
";	c #FFFFFF",
">	c #E2E2E2",
",	c #EAEAEA",
"'	c #FBE9E9",
")	c #5D5D5D",
"!	c #575757",
"~	c #F4F4F4",
"{	c #3D3D3D",
"]	c #393939",
"^	c #F6F6F6",
"/	c #EFEFEF",
"(	c #4D4D4D",
"_	c #D4D4D4",
":	c #323232",
"<	c #7B7B7B",
"[	c #CACACA",
"}	c #151515",
"|	c #3A3A3A",
"1	c #4C4C4C",
"2	c #000000",
"3	c #555555",
"4	c #B1B1B1",
"5	c #E1E1E1",
"6	c #6C6C6C",
"7	c #1F1F1F",
"8	c #2B2B2B",
"9	c #717171",
"0	c #6B6B6B",
"a	c #E7E7E7",
"b	c #A5A5A5",
"c	c #D6D6D6",
"d	c #ECECEC",
"e	c #5A5A5A",
"f	c #2F2F2F",
"g	c #1B1B1B",
"h	c #313131",
"i	c #F5F5F5",
"j	c #CBCBCB",
"k	c #B0B0B0",
"l	c #E5AFAF",
"m	c #787878",
"n	c #777777",
"o	c #E9E9E9",
"p	c #E4E4E4",
"q	c #767676",
"r	c #7A7A7A",
"s	c #E8B3B3",
"      .++.      ",
"    @#$$$$#@    ",
"   %$$&**&$$%   ",
"  %$=-;>,;-=$%  ",
" @$=';;)!;;'=$@ ",
" #$-;;~{]^;;-$# ",
".$&;/)(_:<;;;&$.",
"+$*;[}|1:234;*$+",
"+$*566722890a*$+",
".$&bcdefghijk&$.",
" #$lmno;;pqrs$# ",
" @$=';;;;;;'=$@ ",
"  %$=-;;;;-=$%  ",
"   %$$&**&$$%   ",
"    @#$$$$#@    ",
"      .++.      "};
