/* XPM */
static const char * museum_xpm[] = {
"16 16 31 1",
" 	c None",
".	c #404040",
"+	c #646464",
"@	c #686868",
"#	c #434343",
"$	c #333333",
"%	c #464646",
"&	c #6B6B6B",
"*	c #939393",
"=	c #B1B1B1",
"-	c #B3B3B3",
";	c #B2B2B2",
">	c #969696",
",	c #6D6D6D",
"'	c #474747",
")	c #3B3B3B",
"!	c #484848",
"~	c #4E4E4E",
"{	c #4F4F4F",
"]	c #7F7F7F",
"^	c #505050",
"/	c #414141",
"(	c #585858",
"_	c #424242",
":	c #343434",
"<	c #363636",
"[	c #373737",
"}	c #4D4D4D",
"|	c #696969",
"1	c #676767",
"2	c #545454",
"                ",
"                ",
"      .+@#      ",
"  $%&*=--;>,'$  ",
" )!~~~~~~~~~~!) ",
" {]]]]]]]]]]]]^ ",
" /((((((((((((_ ",
"  $ $$ $$ $$ $  ",
"  $ $$ $$ $$ $  ",
"  $ $$ $$ $$ $  ",
"  $ $$ $$ $$ $  ",
"  $ $$ $$ $$ $  ",
" :<[<<[<<[<<[<: ",
" }||@@@@@@@@112 ",
"                ",
"                "};
