/* XPM */
static const char * parking_xpm[] = {
"16 16 48 1",
" 	c None",
".	c #6580B5",
"+	c #657FB5",
"@	c #9BA7C0",
"#	c #6A84B7",
"$	c #003399",
"%	c #6A83B7",
"&	c #5879BC",
"*	c #708CC6",
"=	c #6B89C4",
"-	c #4167B3",
";	c #013499",
">	c #6983B7",
",	c #C8D3E9",
"'	c #FFFFFF",
")	c #BAC8E3",
"!	c #093A9D",
"~	c #6B84B8",
"{	c #E1E7F3",
"]	c #1F4CA5",
"^	c #2551A8",
"/	c #88A0CF",
"(	c #7C96CA",
"_	c #DCE3F1",
":	c #E9EDF6",
"<	c #C0CCE6",
"[	c #6B85B8",
"}	c #0D3E9E",
"|	c #F4F6FA",
"1	c #B6C5E2",
"2	c #E9EEF6",
"3	c #5E7EBF",
"4	c #6483C1",
"5	c #C1CDE6",
"6	c #5778BC",
"7	c #6C85B8",
"8	c #F9FAFD",
"9	c #829BCD",
"0	c #E3E9F4",
"a	c #315AAC",
"b	c #2E58AC",
"c	c #0E3E9F",
"d	c #6C86B8",
"e	c #6D86B9",
"f	c #6180C0",
"g	c #6E87B9",
"h	c #99A6BE",
"i	c #9DA8C0",
" ....++++++++++@",
"#$$$$$$$$$$$$$$%",
"#$$$&***=-;$$$$>",
"#$$$,''''')!$$$>",
"~$$$,{]]^/'($$$>",
"~$$$,_$$$;:<$$$>",
"[$$$,_$$$}|1$$$>",
"[$$$,23345'6$$$>",
"7$$$,''''89$$$$>",
"7$$$,0aabc$$$$$>",
"7$$$,_$$$$$$$$$>",
"d$$$,_$$$$$$$$$>",
"e$$$,_$$$$$$$$$>",
"e$$$&f$$$$$$$$$>",
"g$$$$$$$$$$$$$$#",
"h>>>>%#########i"};
