/* XPM */
static const char * park_car_xpm[] = {
"16 16 85 1",
" 	c None",
".	c #6580B5",
"+	c #657FB5",
"@	c #9BA7C0",
"#	c #6A84B7",
"$	c #88A0CF",
"%	c #ABBBDD",
"&	c #A6B8DB",
"*	c #7B95CA",
"=	c #1342A0",
"-	c #003399",
";	c #6A83B7",
">	c #CCD6EA",
",	c #FBFCFD",
"'	c #E3E9F4",
")	c #EAEEF7",
"!	c #FFFFFF",
"~	c #E1E7F3",
"{	c #1847A3",
"]	c #6983B7",
"^	c #D9E1F0",
"/	c #5174B9",
"(	c #90A6D3",
"_	c #6B84B8",
":	c #E6EBF5",
"<	c #C1CDE6",
"[	c #2450A7",
"}	c #FBFCFE",
"|	c #A5B7DB",
"1	c #6B85B8",
"2	c #F0F3F9",
"3	c #99ADD6",
"4	c #9FB2D9",
"5	c #E8ECF6",
"6	c #FAFBFD",
"7	c #345DAE",
"8	c #FDFEFE",
"9	c #F5F7FB",
"0	c #F2F5FA",
"a	c #CBD6EA",
"b	c #4A6EB6",
"c	c #6C85B8",
"d	c #02349A",
"e	c #7D97CB",
"f	c #93A8D4",
"g	c #92A8D3",
"h	c #1443A1",
"i	c #8BA2D1",
"j	c #95AAD4",
"k	c #1B48A4",
"l	c #6E8BC5",
"m	c #1C49A4",
"n	c #7792C9",
"o	c #6987C3",
"p	c #DEE4F2",
"q	c #0A3B9D",
"r	c #5E7EBE",
"s	c #2752A9",
"t	c #6A88C3",
"u	c #0C3D9E",
"v	c #6C86B8",
"w	c #DCE3F1",
"x	c #F7F8FC",
"y	c #F3F5FA",
"z	c #C9D4EA",
"A	c #6D86B9",
"B	c #2B55AA",
"C	c #2D57AB",
"D	c #9BAFD7",
"E	c #A4B6DB",
"F	c #FCFCFE",
"G	c #9CB0D8",
"H	c #A1B4DA",
"I	c #E3E8F4",
"J	c #7591C8",
"K	c #D5DEEE",
"L	c #A3B6DA",
"M	c #A9BBDD",
"N	c #91A7D3",
"O	c #ECF0F7",
"P	c #6E87B9",
"Q	c #B6C4E2",
"R	c #B2C1E0",
"S	c #99A6BE",
"T	c #9DA8C0",
" ....++++++++++@",
"#$%%%&*=-------;",
"#>,'')!~{------]",
"#>^---/!(------]",
"_>^----:<------]",
"_>^---[}|------]",
"1>2334567------]",
"1>8990ab-------]",
"c>^-defffgh----]",
"c>^-ijklkmn----]",
"c>^opq-r--stu--]",
"v>^w,00xyyy!,ze]",
"ABC^DE!!!!!FGHI]",
"A--J2KLMMMMNO^$]",
"P---QD------R4-#",
"S]]]];#########T"};
