/* XPM */
static const char * parking2_xpm[] = {
"16 16 19 1",
" 	c None",
".	c #D07373",
"+	c #CF5E5E",
"@	c #D35555",
"#	c #CF0F0F",
"$	c #CC0000",
"%	c #D22525",
"&	c #C60205",
"*	c #8F0F2D",
"=	c #6A194A",
"-	c #C70104",
";	c #28297B",
">	c #003399",
",	c #A20B1F",
"'	c #0F2F8E",
")	c #A20B20",
"!	c #900F2D",
"~	c #A20A1F",
"{	c #D05F5F",
"      .++.      ",
"    @#$$$$#@    ",
"   %$&*==*&$%   ",
"  %$-;>>>>;-$%  ",
" @$-$,'>>',$-$@ ",
" #&;,$)'')$,;&# ",
".$!>')$~~$)'>!$.",
"{$=>>'~$$~'>>=${",
"{$=>>'~$$~'>>=${",
".$!>')$~~$)'>!$.",
" #&;,$)'')$,;&# ",
" @$-$,'>>',$-$@ ",
"  %$-;>>>>;-$%  ",
"   %$&*==*&$%   ",
"    @#$$$$#@    ",
"      .++.      "};
