/* XPM */
static const char * pharmacy_xpm[] = {
"16 16 33 1",
" 	c None",
".	c #17FF17",
"+	c #45FF45",
"@	c #16FF16",
"#	c #53FF53",
"$	c #BCFFBC",
"%	c #82FF82",
"&	c #BDFFBD",
"*	c #51FF51",
"=	c #76FF76",
"-	c #00FF00",
";	c #41FF41",
">	c #99FF99",
",	c #3FFF3F",
"'	c #79FF79",
")	c #6DFF6D",
"!	c #FFFFFF",
"~	c #6AFF6A",
"{	c #43FF43",
"]	c #69FF69",
"^	c #A9FFA9",
"/	c #A7FFA7",
"(	c #A2FFA2",
"_	c #9FFF9F",
":	c #40FF40",
"<	c #65FF65",
"[	c #A5FFA5",
"}	c #94FF94",
"|	c #3DFF3D",
"1	c #BEFFBE",
"2	c #86FF86",
"3	c #BFFFBF",
"4	c #15FF15",
".++++++++++++++@",
"#$%%%%%%%%%%%%&*",
"#=---;>>>>,---'*",
"#=---)!!!!~---'*",
"#=---)!!!!~---'*",
"#={]]^!!!!/]];'*",
"#=(!!!!!!!!!!_'*",
"#=(!!!!!!!!!!_'*",
"#=(!!!!!!!!!!_'*",
"#=(!!!!!!!!!!_'*",
"#=:<</!!!![<<,'*",
"#=---)!!!!~---'*",
"#=---)!!!!~---'*",
"#=---,}}}}|---'*",
"#12222222222223*",
"@{{{{{{{{{{{{{{4"};
