/* XPM */
static const char * picnic_xpm[] = {
"16 16 41 1",
" 	c None",
".	c #D1D1F2",
"+	c #D0D0F2",
"@	c #C9C9EF",
"#	c #CECEF1",
"$	c #9898BB",
"%	c #535375",
"&	c #737396",
"*	c #000023",
"=	c #BDBDDF",
"-	c #A6A6C9",
";	c #37375A",
">	c #4A4A6C",
",	c #7B7B9D",
"'	c #AFAFD2",
")	c #1B1B3E",
"!	c #B9B9DB",
"~	c #9A9ABC",
"{	c #68688B",
"]	c #28284A",
"^	c #C2C2E4",
"/	c #646486",
"(	c #1F1F41",
"_	c #48486B",
":	c #29294C",
"<	c #060629",
"[	c #141436",
"}	c #8C8CAE",
"|	c #262648",
"1	c #454567",
"2	c #404062",
"3	c #8A8AAD",
"4	c #0A0A2D",
"5	c #CFCFF1",
"6	c #2B2B4D",
"7	c #666688",
"8	c #7E7EA1",
"9	c #353558",
"0	c #4C4C6F",
"a	c #8181A4",
"b	c #B4B4D6",
"  .+++++++++++  ",
" @+++++++++++++ ",
"#++$%%%%%%%%%+++",
"+++&*********+++",
"+++=-;*>>**,-+++",
"++++')*!!**~++++",
"++++{*]^+/*(++++",
"+_::<*[::[*<:::}",
"+|*************,",
"+++1*2++++3**+++",
"+++*4$++++56*7++",
"++8*9++++++9*0++",
"++a%&++++++=%%b+",
" ++++++++++++++ ",
"  ++++++++++++  ",
"                "};
