/* XPM */
static const char * plant_xpm[] = {
"16 16 48 1",
" 	c None",
".	c #415100",
"+	c #247D00",
"@	c #149500",
"#	c #1C8800",
"$	c #2C7100",
"%	c #237D00",
"&	c #208300",
"*	c #1A8C00",
"=	c #109B00",
"-	c #306A00",
";	c #5C2700",
">	c #533500",
",	c #297500",
"'	c #0DA000",
")	c #0BA300",
"!	c #2D6E00",
"~	c #326700",
"{	c #00B300",
"]	c #1C8900",
"^	c #523600",
"/	c #592C00",
"(	c #543300",
"_	c #2B7100",
":	c #1F8300",
"<	c #0AA400",
"[	c #484600",
"}	c #454B00",
"|	c #0BA200",
"1	c #09A500",
"2	c #267900",
"3	c #4A4300",
"4	c #444B00",
"5	c #414F00",
"6	c #228000",
"7	c #119A00",
"8	c #444C00",
"9	c #592B00",
"0	c #316900",
"a	c #582D00",
"b	c #5B2700",
"c	c #020100",
"d	c #582500",
"e	c #381700",
"f	c #000000",
"g	c #0C0500",
"h	c #150900",
"i	c #0E0600",
"                ",
"                ",
"     .          ",
"   +@#$         ",
"  %&*=-;>,')!   ",
"  ~){]^;/(_:<[  ",
" }|12  ;;   345 ",
" 678   ;;     9 ",
" 0a     ;       ",
"(      ;;;      ",
"       ;;       ",
"       b;       ",
"      cdbef     ",
"     ffghiff    ",
"      fffff     ",
"                "};
