/* XPM */
static const char * post_box_xpm[] = {
"16 16 2 1",
" 	c None",
".	c #600000",
"                ",
"                ",
"                ",
"................",
"....        ....",
".. ...    ... ..",
"..  ...  ...  ..",
"..    ....    ..",
"..     ..     ..",
"..            ..",
"..            ..",
"..            ..",
"................",
"                ",
"                ",
"                "};
