/* XPM */
static const char * proposed_xpm[] = {
"16 16 96 2",
"  	c None",
". 	c #FFFF00",
"+ 	c #CACA00",
"@ 	c #3E3E00",
"# 	c #DFDF00",
"$ 	c #ACAC00",
"% 	c #808000",
"& 	c #FCFC00",
"* 	c #FDFD00",
"= 	c #7F7F00",
"- 	c #000000",
"; 	c #9F9F00",
"> 	c #989800",
", 	c #626200",
"' 	c #D2D200",
") 	c #090900",
"! 	c #0A0A00",
"~ 	c #101000",
"{ 	c #797900",
"] 	c #6E6E00",
"^ 	c #EFEF00",
"/ 	c #595900",
"( 	c #9B9B00",
"_ 	c #424200",
": 	c #666600",
"< 	c #9D9D00",
"[ 	c #F8F800",
"} 	c #070700",
"| 	c #050500",
"1 	c #6D6D00",
"2 	c #ABAB00",
"3 	c #747400",
"4 	c #A0A000",
"5 	c #4B4B00",
"6 	c #0D0D00",
"7 	c #757500",
"8 	c #F0F000",
"9 	c #E3E300",
"0 	c #FEFE00",
"a 	c #505000",
"b 	c #010100",
"c 	c #737300",
"d 	c #7E7E00",
"e 	c #B9B900",
"f 	c #949400",
"g 	c #B3B300",
"h 	c #313100",
"i 	c #282800",
"j 	c #888800",
"k 	c #C2C200",
"l 	c #A1A100",
"m 	c #444400",
"n 	c #2D2D00",
"o 	c #4F4F00",
"p 	c #D7D700",
"q 	c #EAEA00",
"r 	c #D5D500",
"s 	c #E9E900",
"t 	c #202000",
"u 	c #8E8E00",
"v 	c #B6B600",
"w 	c #040400",
"x 	c #303000",
"y 	c #FBFB00",
"z 	c #6A6A00",
"A 	c #717100",
"B 	c #939300",
"C 	c #D1D100",
"D 	c #909000",
"E 	c #262600",
"F 	c #8D8D00",
"G 	c #111100",
"H 	c #DEDE00",
"I 	c #B0B000",
"J 	c #5A5A00",
"K 	c #F7F700",
"L 	c #3F3F00",
"M 	c #0E0E00",
"N 	c #E5E500",
"O 	c #969600",
"P 	c #545400",
"Q 	c #BFBF00",
"R 	c #525200",
"S 	c #6F6F00",
"T 	c #5C5C00",
"U 	c #868600",
"V 	c #C6C600",
"W 	c #D3D300",
"X 	c #4A4A00",
"Y 	c #C1C100",
"Z 	c #020200",
"` 	c #C9C900",
" .	c #F2F200",
"..	c #C7C700",
"+.	c #999900",
"@.	c #9A9A00",
". . . . . . . . . . . . . . . . ",
". . . . . . + @ # . . . $ % . . ",
". . . & * . = - ; . . . > , . . ",
". . ' ) ! ~ { ] ^ . . . > , . . ",
". . / ( _ - : . . . . . < : . . ",
". [ } ' | - 1 . . . . . 2 3 . . ",
". * 4 5 - 6 7 . . . . . 8 9 . . ",
". . 0 a b c d . . . . . e f . . ",
". . g h d i j . . . . . k l . . ",
". . m n i j o & . . p q . . . . ",
". r ~ s t u v % . k w x y . . . ",
". z A . B , . C D E - - F . . . ",
"8 G H . I J . K L - - - M N . . ",
"O P . . Q R . S - - - - - T . . ",
"U V . . W X Y Z - - - - - Z ` . ",
" .. . . . ..k +.+.+.@.( ( ( ... "};
