/* XPM */
static const char * railway_xpm[] = {
"16 16 65 1",
" 	c None",
".	c #FFFFFF",
"+	c #3F3F3F",
"@	c #919191",
"#	c #424242",
"$	c #D2D2D2",
"%	c #646464",
"&	c #565656",
"*	c #767676",
"=	c #929292",
"-	c #656565",
";	c #D4D4D4",
">	c #F3F3F3",
",	c #131313",
"'	c #000000",
")	c #FCFCFC",
"!	c #D1D1D1",
"~	c #151515",
"{	c #F4F4F4",
"]	c #CFCFCF",
"^	c #9E9E9E",
"/	c #9F9F9F",
"(	c #747474",
"_	c #0F0F0F",
":	c #0C0C0C",
"<	c #101010",
"[	c #0D0D0D",
"}	c #8D8D8D",
"|	c #B6B6B6",
"1	c #8B8B8B",
"2	c #3B3B3B",
"3	c #232323",
"4	c #262626",
"5	c #383838",
"6	c #060606",
"7	c #FAFAFA",
"8	c #BBBBBB",
"9	c #C3C3C3",
"0	c #F6F6F6",
"a	c #010101",
"b	c #F8F8F8",
"c	c #212121",
"d	c #4A4A4A",
"e	c #2D2D2D",
"f	c #313131",
"g	c #464646",
"h	c #F9F9F9",
"i	c #E4E4E4",
"j	c #252525",
"k	c #282828",
"l	c #E6E6E6",
"m	c #080808",
"n	c #777777",
"o	c #737373",
"p	c #B9B9B9",
"q	c #ECECEC",
"r	c #191919",
"s	c #8E8E8E",
"t	c #8A8A8A",
"u	c #1B1B1B",
"v	c #EEEEEE",
"w	c #595959",
"x	c #454545",
"y	c #FDFDFD",
"z	c #5C5C5C",
"       +@#      ",
"    $%&*=*&-;   ",
"   >,'';)!''~{  ",
"   ]'*^^/^^('$  ",
"   ]_       :$  ",
"   ]<       [$  ",
"   ]'}|||||1'$  ",
"   ]'''''''''$  ",
"   ]'''''''''$  ",
"   ]'23'''45'$  ",
"   !678'''90a;  ",
"   bcde'''fg3h  ",
"    ij'''''kl   ",
"    |m(nnnomp   ",
"   qrs     tuv  ",
"   wxy     y#z  "};
