/* XPM */
static const char * restrictions_xpm[] = {
"16 16 21 1",
" 	c None",
".	c #D07373",
"+	c #CF5E5E",
"@	c #D35353",
"#	c #CF1010",
"$	c #CC0000",
"%	c #D22525",
"&	c #DF5F5F",
"*	c #E88C8C",
"=	c #D12424",
"-	c #DE5858",
";	c #FBEBEB",
">	c #FFFFFF",
",	c #D45656",
"'	c #DD5757",
")	c #FFFEFE",
"!	c #CF0F0F",
"~	c #FBECEC",
"{	c #D17676",
"]	c #D05F5F",
"^	c #E88D8D",
"      .++.      ",
"    @#$$$$#@    ",
"   %$#&**&#$%   ",
"  =$-;>>>>;-$=  ",
" ,$')>>>>>>)'$, ",
" !#~>>>>>>>>~#! ",
"{$&>>>>>>>>>>&${",
"]$^>>>>>>>>>>^$]",
"]$^>>>>>>>>>>^$]",
"{$&>>>>>>>>>>&${",
" !#~>>>>>>>>~#! ",
" ,$')>>>>>>)'$, ",
"  =$-;>>>>;-$=  ",
"   %$#&**&#$%   ",
"    @#$$$$#@    ",
"      .++.      "};
