/* XPM */
static const char * right_of_way_xpm[] = {
"16 16 49 1",
" 	c None",
".	c #D16E6E",
"+	c #D24A4A",
"@	c #D26565",
"#	c #CC0000",
"$	c #D21D1D",
"%	c #D73737",
"&	c #D26464",
"*	c #D22C2C",
"=	c #D52F2F",
"-	c #FEFAFA",
";	c #FFFFFF",
">	c #D63030",
",	c #D28080",
"'	c #CD0303",
")	c #E99393",
"!	c #EA9494",
"~	c #D34545",
"{	c #D01212",
"]	c #FBEAEA",
"^	c #FBEBEB",
"/	c #CF0E0E",
"(	c #E06666",
"_	c #E16767",
":	c #D35E5E",
"<	c #CD0404",
"[	c #F5CBCB",
"}	c #D12424",
"|	c #D83C3C",
"1	c #FEFCFC",
"2	c #D27878",
"3	c #CC0101",
"4	c #ECA1A1",
"5	c #ECA2A2",
"6	c #D33E3E",
"7	c #D11A1A",
"8	c #FCF0F0",
"9	c #D11B1B",
"0	c #D33D3D",
"a	c #CE0A0A",
"b	c #E37474",
"c	c #E37575",
"d	c #CE0909",
"e	c #D35757",
"f	c #CD0606",
"g	c #D35656",
"h	c #D11D1D",
"i	c #D11C1C",
"j	c #D07979",
"                ",
".++++++++++++++.",
"@#$%%%%%%%%%%$#&",
" *=-;;;;;;;;->* ",
" ,');;;;;;;;!', ",
"  ~{];;;;;;^{~  ",
"   /(;;;;;;_/   ",
"   :<[;;;;[<:   ",
"    }|1;;1|}    ",
"    234;;532    ",
"     678890     ",
"      abcd      ",
"      effg      ",
"       hi       ",
"       jj       ",
"                "};
