/* XPM */
static const char * road_works_xpm[] = {
"16 16 104 2",
"  	c None",
". 	c #DF9090",
"+ 	c #DC7E7E",
"@ 	c #D22525",
"# 	c #D01818",
"$ 	c #DC6B6B",
"% 	c #CC0707",
"& 	c #CD0B0B",
"* 	c #D95959",
"= 	c #CE0E0E",
"- 	c #E37777",
"; 	c #E68383",
"> 	c #CD0909",
", 	c #D84E4E",
"' 	c #D01A1A",
") 	c #FCF1F1",
"! 	c #FDF5F5",
"~ 	c #D22222",
"{ 	c #D64343",
"] 	c #E19393",
"^ 	c #CB0202",
"/ 	c #EC9F9F",
"( 	c #FFFFFF",
"_ 	c #F2F2F2",
": 	c #EEABAB",
"< 	c #DF8A8A",
"[ 	c #D43030",
"} 	c #D63737",
"| 	c #B7B5B5",
"1 	c #AFAFAF",
"2 	c #464646",
"3 	c #F0EFEF",
"4 	c #D84141",
"5 	c #D32C2C",
"6 	c #DD7575",
"7 	c #CC0303",
"8 	c #C29494",
"9 	c #666666",
"0 	c #020202",
"a 	c #D9D9D9",
"b 	c #F5CFCF",
"c 	c #CC0404",
"d 	c #DD7373",
"e 	c #D01717",
"f 	c #DE5D5D",
"g 	c #F7F7F7",
"h 	c #656565",
"i 	c #2D2D2D",
"j 	c #E3E3E3",
"k 	c #E06767",
"l 	c #CF1616",
"m 	c #DA5A5A",
"n 	c #CD0C0C",
"o 	c #F9E4E4",
"p 	c #C6C6C6",
"q 	c #505050",
"r 	c #616161",
"s 	c #BEBEBE",
"t 	c #ECECEC",
"u 	c #8F8F8F",
"v 	c #F8E7E7",
"w 	c #CE1010",
"x 	c #DA5D5D",
"y 	c #E2A2A2",
"z 	c #E68585",
"A 	c #FEFEFE",
"B 	c #6E6E6E",
"C 	c #F9F9F9",
"D 	c #7B7B7B",
"E 	c #DCDCDC",
"F 	c #2C2C2C",
"G 	c #010101",
"H 	c #818181",
"I 	c #E88F8F",
"J 	c #CD0808",
"K 	c #E4A8A8",
"L 	c #D63F3F",
"M 	c #D22323",
"N 	c #FDF6F6",
"O 	c #F3F3F3",
"P 	c #C0C0C0",
"Q 	c #A3A3A3",
"R 	c #6B6B6B",
"S 	c #2F2F2F",
"T 	c #333333",
"U 	c #D9D3D3",
"V 	c #D42A2A",
"W 	c #D74545",
"X 	c #DF8484",
"Y 	c #CB0000",
"Z 	c #D11F1F",
"` 	c #D84242",
" .	c #D84343",
"..	c #D94545",
"+.	c #D94646",
"@.	c #DA4848",
"#.	c #DA4949",
"$.	c #D32626",
"%.	c #CB0101",
"&.	c #E18F8F",
"*.	c #DE8282",
"=.	c #D64B4B",
"-.	c #D64D4D",
";.	c #E18E8E",
"                                ",
"              . +               ",
"              @ #               ",
"            $ % & *             ",
"            = - ; >             ",
"          , ' ) ! ~ {           ",
"        ] ^ / ( _ : ^ <         ",
"        [ } | 1 2 3 4 5         ",
"      6 7 8 9 0 a ( b c d       ",
"      e f g h i j ( ( k l       ",
"    m n o p q r s t u v w x     ",
"  y % z A B C D E F G H I J K   ",
"  L M N O P ( Q R i S T U V W   ",
"X Y Z `  .......+.@.@.@.#.$.%.&.",
"*.=.=.=.=.=.=.=.=.=.=.-.-.-.-.;.",
"                                "};
