/* XPM */
static const char * roundabout_right_xpm[] = {
"16 16 76 1",
" 	c None",
".	c #C3CAD9",
"+	c #A2B0CE",
"@	c #93A6CD",
"#	c #375FAF",
"$	c #03359A",
"%	c #003399",
"&	c #5677BA",
"*	c #013499",
"=	c #01349A",
"-	c #06389B",
";	c #3960B0",
">	c #5B7CBD",
",	c #5C7CBC",
"'	c #04369B",
")	c #708DC6",
"!	c #D8E0EF",
"~	c #2F58AC",
"{	c #04369A",
"]	c #DCE3F1",
"^	c #EAEEF7",
"/	c #5C7CBE",
"(	c #0C3D9E",
"_	c #B3C2E1",
":	c #ABBCDE",
"<	c #1D4AA4",
"[	c #ADBEDE",
"}	c #CAD4EA",
"|	c #718EC6",
"1	c #ACBDDE",
"2	c #5779BC",
"3	c #6685C2",
"4	c #A7B9DC",
"5	c #7590C8",
"6	c #1443A1",
"7	c #D9E1F0",
"8	c #2450A8",
"9	c #0B3C9D",
"0	c #1E4BA5",
"a	c #E2E8F3",
"b	c #A2B1CE",
"c	c #6D8AC5",
"d	c #839BCD",
"e	c #DDE4F1",
"f	c #244FA7",
"g	c #D7DFEF",
"h	c #1C49A4",
"i	c #07399C",
"j	c #B2C1E0",
"k	c #FEFEFE",
"l	c #6A88C4",
"m	c #D0DAEC",
"n	c #1A48A3",
"o	c #08399C",
"p	c #4F72B9",
"q	c #8CA3D1",
"r	c #02359A",
"s	c #1544A2",
"t	c #4E71B8",
"u	c #1644A2",
"v	c #9CB0D7",
"w	c #A2B4DA",
"x	c #1C4AA4",
"y	c #2A55AA",
"z	c #98ADD6",
"A	c #FAFBFD",
"B	c #859DCE",
"C	c #7691C8",
"D	c #D9E0F0",
"E	c #D5DDEE",
"F	c #DAE2F0",
"G	c #D1DAED",
"H	c #5D7DBE",
"I	c #1B49A4",
"J	c #1847A3",
"K	c #486CB6",
"      .++.      ",
"    @#$%%$#@    ",
"   &%%*=%-;>,   ",
"  &%')!~{]^/(&  ",
" @%'_:<%%[}:{%@ ",
" #%|1$%%%2345%# ",
".6*789%%%%90a$$.",
"bcde1f%%%%%%gh%b",
"bijkl%%%%%%%mn%b",
".$op%%%%%%%%qr$.",
" #%%s*%%6tu%%%# ",
" @%%vwx%yzAB%%@ ",
"  &%'CaDEFGH%&  ",
"   &%%$IJ=1n&   ",
"    @#$%%$K@    ",
"      .++.      "};
