/* XPM */
static const char * roundabout_left_xpm[] = {
"16 16 76 1",
" 	c None",
".	c #C3CAD9",
"+	c #A2B0CE",
"@	c #93A6CD",
"#	c #375FAF",
"$	c #03359A",
"%	c #003399",
"&	c #5C7CBC",
"*	c #5B7CBD",
"=	c #3960B0",
"-	c #06389B",
";	c #01349A",
">	c #013499",
",	c #5677BA",
"'	c #0C3D9E",
")	c #5C7CBE",
"!	c #EAEEF7",
"~	c #DCE3F1",
"{	c #04369A",
"]	c #2F58AC",
"^	c #D8E0EF",
"/	c #708DC6",
"(	c #04369B",
"_	c #ABBCDE",
":	c #CAD4EA",
"<	c #ADBEDE",
"[	c #1D4AA4",
"}	c #B3C2E1",
"|	c #7590C8",
"1	c #A7B9DC",
"2	c #6685C2",
"3	c #5779BC",
"4	c #ACBDDE",
"5	c #718EC6",
"6	c #E2E8F3",
"7	c #1E4BA5",
"8	c #0B3C9D",
"9	c #2450A8",
"0	c #D9E1F0",
"a	c #1443A1",
"b	c #A2B1CE",
"c	c #1C49A4",
"d	c #D7DFEF",
"e	c #244FA7",
"f	c #DDE4F1",
"g	c #839BCD",
"h	c #6D8AC5",
"i	c #1A48A3",
"j	c #D0DAEC",
"k	c #6A88C4",
"l	c #FEFEFE",
"m	c #B2C1E0",
"n	c #07399C",
"o	c #02359A",
"p	c #8CA3D1",
"q	c #4F72B9",
"r	c #08399C",
"s	c #1644A2",
"t	c #4E71B8",
"u	c #1544A2",
"v	c #859DCE",
"w	c #FAFBFD",
"x	c #98ADD6",
"y	c #2A55AA",
"z	c #1C4AA4",
"A	c #A2B4DA",
"B	c #9CB0D7",
"C	c #5D7DBE",
"D	c #D1DAED",
"E	c #DAE2F0",
"F	c #D5DDEE",
"G	c #D9E0F0",
"H	c #7691C8",
"I	c #1847A3",
"J	c #1B49A4",
"K	c #486CB6",
"      .++.      ",
"    @#$%%$#@    ",
"   &*=-%;>%%,   ",
"  ,')!~{]^/(%,  ",
" @%{_:<%%[_}(%@ ",
" #%|123%%%$45%# ",
".$$678%%%%890>a.",
"b%cd%%%%%%e4fghb",
"b%ij%%%%%%%klmnb",
".$op%%%%%%%%qr$.",
" #%%%sta%%>u%%# ",
" @%%vwxy%zAB%%@ ",
"  ,%CDEFG6H(%,  ",
"   ,i4;IJ$%%,   ",
"    @K$%%$#@    ",
"      .++.      "};
