/* XPM */
static const char * shopping_xpm[] = {
"16 16 154 2",
"  	c None",
". 	c #D6DAE1",
"+ 	c #B4B9C2",
"@ 	c #AEAFB3",
"# 	c #C7CBD1",
"$ 	c #CCD2DE",
"% 	c #BDC8DE",
"& 	c #ABB7D4",
"* 	c #8B97B2",
"= 	c #DCE5EB",
"- 	c #B0BBC9",
"; 	c #636A78",
"> 	c #BEC2C9",
", 	c #BBC5D8",
"' 	c #AFBBD6",
") 	c #9EAAC5",
"! 	c #96A4C6",
"~ 	c #7E879E",
"{ 	c #B8C0D0",
"] 	c #ADB7CB",
"^ 	c #B6BECC",
"/ 	c #6E7483",
"( 	c #4B4C4F",
"_ 	c #5B5B5B",
": 	c #C5CBD6",
"< 	c #B8C0D3",
"[ 	c #B4BDD3",
"} 	c #BFC5D2",
"| 	c #C1C7D5",
"1 	c #A5ACBD",
"2 	c #B9C2D5",
"3 	c #B3BCCF",
"4 	c #A1A7B5",
"5 	c #838DA5",
"6 	c #464A55",
"7 	c #525151",
"8 	c #96A0BA",
"9 	c #828EB5",
"0 	c #7985AC",
"a 	c #7A86AF",
"b 	c #7D89B1",
"c 	c #7B87AF",
"d 	c #7A86AE",
"e 	c #8F9BB9",
"f 	c #737E96",
"g 	c #454951",
"h 	c #525252",
"i 	c #4F576D",
"j 	c #6A748F",
"k 	c #494F60",
"l 	c #545C74",
"m 	c #49526F",
"n 	c #6F7A95",
"o 	c #677391",
"p 	c #505A77",
"q 	c #515D7C",
"r 	c #495370",
"s 	c #687184",
"t 	c #4D525D",
"u 	c #424449",
"v 	c #525251",
"w 	c #515661",
"x 	c #626C84",
"y 	c #6C7484",
"z 	c #747B88",
"A 	c #788399",
"B 	c #808DAA",
"C 	c #7885A8",
"D 	c #5D698E",
"E 	c #6A789C",
"F 	c #56607D",
"G 	c #696F7F",
"H 	c #4C4F58",
"I 	c #444549",
"J 	c #565656",
"K 	c #535C71",
"L 	c #6D768B",
"M 	c #828893",
"N 	c #8A94A8",
"O 	c #747D90",
"P 	c #656E85",
"Q 	c #646D8B",
"R 	c #737FA6",
"S 	c #5B6177",
"T 	c #5F636D",
"U 	c #61656D",
"V 	c #48494C",
"W 	c #5E5E5D",
"X 	c #525762",
"Y 	c #6E7991",
"Z 	c #A3ACC3",
"` 	c #A6B0C8",
" .	c #A6B0CA",
"..	c #A3ADC7",
"+.	c #A5B0CD",
"@.	c #A0A9C1",
"#.	c #7F8695",
"$.	c #686C75",
"%.	c #434344",
"&.	c #505562",
"*.	c #505875",
"=.	c #4D5674",
"-.	c #4B5372",
";.	c #4A5270",
">.	c #495270",
",.	c #48516F",
"'.	c #535C78",
").	c #6D7386",
"!.	c #585C67",
"~.	c #414141",
"{.	c #7D7D7E",
"].	c #99999A",
"^.	c #9A9A9B",
"/.	c #9A9A9A",
"(.	c #8C8E91",
"_.	c #696E79",
":.	c #4E515C",
"<.	c #4A4A4B",
"[.	c #9AA0AC",
"}.	c #949BAD",
"|.	c #8890A7",
"1.	c #868EA7",
"2.	c #878FA7",
"3.	c #7C859C",
"4.	c #7B8398",
"5.	c #5C6068",
"6.	c #555657",
"7.	c #8B8F94",
"8.	c #666F84",
"9.	c #505871",
"0.	c #4B526A",
"a.	c #4C536C",
"b.	c #61677E",
"c.	c #A0A6B3",
"d.	c #666B74",
"e.	c #5F636C",
"f.	c #424856",
"g.	c #505156",
"h.	c #575758",
"i.	c #5D5D5E",
"j.	c #6E6F70",
"k.	c #6D7179",
"l.	c #373C47",
"m.	c #575B65",
"n.	c #5F5F60",
"o.	c #5D616C",
"p.	c #575A62",
"q.	c #5C5C5D",
"r.	c #6F6F6F",
"s.	c #757474",
"t.	c #717172",
"u.	c #696C73",
"v.	c #585D67",
"w.	c #57595D",
"                                ",
"            . +                 ",
"      @ # $ % & *       = - ;   ",
"      > , ' ) ! ~ { ]   ^ / ( _ ",
"      : < [ } | 1 2 3 4 5 6 7   ",
"  8 9 0 a a b b c c d e f g h   ",
"  i j k l m n o p q r s t u v   ",
"  w x y z A B C D E F G H I J   ",
"    K L M N O P Q R S T U V W   ",
"    X Y Z Z `  ...+.@.#.$.%.    ",
"      &.*.=.-.;.>.,.'.).!.~.    ",
"          {.].^.]./.(._.:.<.    ",
"          [.}.|.1.2.3.4.5.6.    ",
"          7.8.9.0.a.b.c.d.e.    ",
"          g f.g.h.i.j.k.l.m.n.  ",
"          o.p.q.r.s.t.u.v.w.    "};
