/* XPM */
static const char * sports_xpm[] = {
"16 16 93 2",
"  	c None",
". 	c #050505",
"+ 	c #313131",
"@ 	c #343434",
"# 	c #010101",
"$ 	c #000000",
"% 	c #1B1B1B",
"& 	c #484848",
"* 	c #E4E4E4",
"= 	c #FFFFFF",
"- 	c #F6F6F6",
"; 	c #777777",
"> 	c #0A0A0A",
", 	c #444444",
"' 	c #7C7C7C",
") 	c #191919",
"! 	c #2A2A2A",
"~ 	c #5C5C5C",
"{ 	c #CDCDCD",
"] 	c #D4D4D4",
"^ 	c #929292",
"/ 	c #CCCCCC",
"( 	c #2E2E2E",
"_ 	c #AEAEAE",
": 	c #FCFCFC",
"< 	c #A3A3A3",
"[ 	c #888888",
"} 	c #151515",
"| 	c #616161",
"1 	c #5A5A5A",
"2 	c #707070",
"3 	c #363636",
"4 	c #212121",
"5 	c #CECECE",
"6 	c #F7F7F7",
"7 	c #494949",
"8 	c #141414",
"9 	c #C3C3C3",
"0 	c #FEFEFE",
"a 	c #656565",
"b 	c #6E6E6E",
"c 	c #5B5B5B",
"d 	c #505050",
"e 	c #2D2D2D",
"f 	c #B0B0B0",
"g 	c #A4A4A4",
"h 	c #080808",
"i 	c #FDFDFD",
"j 	c #BABABA",
"k 	c #020202",
"l 	c #A8A8A8",
"m 	c #B4B4B4",
"n 	c #A9A9A9",
"o 	c #959595",
"p 	c #434343",
"q 	c #F9F9F9",
"r 	c #565656",
"s 	c #353535",
"t 	c #999999",
"u 	c #E9E9E9",
"v 	c #818181",
"w 	c #F3F3F3",
"x 	c #7B7B7B",
"y 	c #D8D8D8",
"z 	c #848484",
"A 	c #939393",
"B 	c #737373",
"C 	c #E7E7E7",
"D 	c #1A1A1A",
"E 	c #121212",
"F 	c #111111",
"G 	c #ACACAC",
"H 	c #F1F1F1",
"I 	c #727272",
"J 	c #EDEDED",
"K 	c #4F4F4F",
"L 	c #474747",
"M 	c #5D5D5D",
"N 	c #C8C8C8",
"O 	c #7A7A7A",
"P 	c #ADADAD",
"Q 	c #E0E0E0",
"R 	c #919191",
"S 	c #030303",
"T 	c #161616",
"U 	c #2F2F2F",
"V 	c #DDDDDD",
"W 	c #AFAFAF",
"X 	c #323232",
"Y 	c #767676",
"Z 	c #FAFAFA",
"` 	c #0C0C0C",
" .	c #8E8E8E",
"                                ",
"          . + @ # $ $           ",
"      % & * = - ; > , ' )       ",
"    ! ~ { = = = ] ^ = = / (     ",
"  $ $ $ _ = = : ^ < = = = [ $   ",
"  $ $ } | 1 2 3 # 4 5 = 6 7 $   ",
"$ $ 8 9 = 0 a $ $ $ % b c ) $ $ ",
"d e f = = = g # $ $ h g i j k $ ",
"l m n = = 0 o } # $ p q = q r s ",
"t u v 0 w x t 6 y z A = = y o B ",
"2 C D E F G = = = H I J 6 ' H K ",
"  L # $ $ 1 q = = 6 r # > M N   ",
"  $ $ $ $ 8 O P Q R S $ $ k T   ",
"    $ $ U 5 : V W X $ $ $ $     ",
"      $ Y Z = = = 9 ` $ $       ",
"          p '  .R ' >           "};
