/* XPM */
static const char * stop_xpm[] = {
"16 16 60 1",
" 	c None",
".	c #F9F3F3",
"+	c #F3CBCB",
"@	c #F2CBCB",
"#	c #F8F3F3",
"$	c #FAF4F4",
"%	c #DE5959",
"&	c #CC0000",
"*	c #CC0101",
"=	c #E78686",
"-	c #F3C2C2",
";	c #D94040",
">	c #F2BDBD",
",	c #F4C5C5",
"'	c #E37575",
")	c #E37373",
"!	c #F3C4C4",
"~	c #DA4343",
"{	c #E06565",
"]	c #F4C6C6",
"^	c #E78787",
"/	c #CF1010",
"(	c #F3C1C1",
"_	c #D63434",
":	c #E57D7D",
"<	c #D32525",
"[	c #EFADAD",
"}	c #CD0303",
"|	c #F6CFCF",
"1	c #D42727",
"2	c #F0B2B2",
"3	c #E57C7C",
"4	c #DD5454",
"5	c #EEABAB",
"6	c #D11B1B",
"7	c #CD0505",
"8	c #E47777",
"9	c #CE0909",
"0	c #D22020",
"a	c #F4C9C9",
"b	c #D01414",
"c	c #F1B7B7",
"d	c #E26B6B",
"e	c #F1BABA",
"f	c #D01616",
"g	c #CE0B0B",
"h	c #E68181",
"i	c #DE5B5B",
"j	c #D01515",
"k	c #EA9494",
"l	c #D73737",
"m	c #EB9B9B",
"n	c #D42626",
"o	c #DC5151",
"p	c #E98F8F",
"q	c #D11A1A",
"r	c #E78888",
"s	c #DA4444",
"t	c #E06363",
"u	c #D94141",
"    .+@@@@+#    ",
"   $%&&&&&&%$   ",
"  $%&&&&&&&&%$  ",
" $%&&&&&&&&&&%$ ",
".%&&&&&&&&&&&&%.",
"+*=-;>,')!~{]^*+",
"+/(_:<[}|123456+",
"+7,8905&abc3def+",
"+&gh=05&abc3ei&+",
"+jklm05&|n23o&&+",
"+*p(_qr&)!stu&&+",
".%&&&&&&&&&&&&%.",
" $%&&&&&&&&&&%$ ",
"  $%&&&&&&&&%$  ",
"   $%&&&&&&%$   ",
"    .+@@@@+.    "};
