/* XPM */
static const char * tap_drinking_xpm[] = {
"16 16 14 1",
" 	c None",
".	c #000000",
"+	c #0000EC",
"@	c #0000DA",
"#	c #0000C1",
"$	c #0000D2",
"%	c #0000CD",
"&	c #0000E9",
"*	c #0000C3",
"=	c #0000D6",
"-	c #0000CE",
";	c #0000C9",
">	c #0000C6",
",	c #0000FF",
"      ....      ",
"        .       ",
"    ......      ",
"   ..........   ",
"   ...........  ",
"            ..  ",
"            ..  ",
"     +++@   ..  ",
"    #+++$   ..  ",
"     +++%   ..  ",
"     &++*       ",
"     =++        ",
"     -++        ",
"      ;>        ",
"             ,  ",
"                "};
