/* XPM */
static const char * telephone_xpm[] = {
"16 16 58 1",
" 	c None",
".	c #FEFEFE",
"+	c #959595",
"@	c #2E2E2E",
"#	c #6D6D6D",
"$	c #252525",
"%	c #E7E7E7",
"&	c #7F7F7F",
"*	c #000000",
"=	c #676767",
"-	c #CBCBCB",
";	c #151515",
">	c #646464",
",	c #C6C6C6",
"'	c #050505",
")	c #666666",
"!	c #010101",
"~	c #C5C5C5",
"{	c #787878",
"]	c #939393",
"^	c #FDFDFD",
"/	c #272727",
"(	c #232323",
"_	c #FCFCFC",
":	c #4F4F4F",
"<	c #1F1F1F",
"[	c #7C7C7C",
"}	c #A7A7A7",
"|	c #C3C3C3",
"1	c #FBFBFB",
"2	c #1C1C1C",
"3	c #9A9A9A",
"4	c #979797",
"5	c #1A1A1A",
"6	c #F3F3F3",
"7	c #434343",
"8	c #737373",
"9	c #F7F7F7",
"0	c #E4E4E4",
"a	c #181818",
"b	c #404040",
"c	c #343434",
"d	c #898989",
"e	c #171717",
"f	c #303030",
"g	c #DADADA",
"h	c #C7C7C7",
"i	c #0B0B0B",
"j	c #060606",
"k	c #7A7A7A",
"l	c #393939",
"m	c #131313",
"n	c #575757",
"o	c #919191",
"p	c #E6E6E6",
"q	c #5F5F5F",
"r	c #0C0C0C",
"s	c #A5A5A5",
"  .+@#$%        ",
"  &**=*-        ",
"  ;**>*,        ",
"  '**)!~        ",
"  ;**{]^        ",
"  /*(_          ",
"  :*<^          ",
"  [**}          ",
"  |**/1         ",
"  _2**3         ",
"   4**56        ",
"   ^7**8 1=#9   ",
"    0a*!bcdefg  ",
"     hi***jkl;  ",
"      |m****no  ",
"       pqr'bs^  "};
