/* XPM */
static const char * theater_xpm[] = {
"16 16 128 2",
"  	c None",
". 	c #CECECE",
"+ 	c #D3D3D3",
"@ 	c #FCFCFC",
"# 	c #FEFEFE",
"$ 	c #D0D0D0",
"% 	c #808080",
"& 	c #D8D8D8",
"* 	c #F8F8F8",
"= 	c #F4F4F4",
"- 	c #E0E0E0",
"; 	c #A1A1A1",
"> 	c #3B3B3B",
", 	c #636363",
"' 	c #9D9D9D",
") 	c #949494",
"! 	c #E4E4E4",
"~ 	c #4F4F4F",
"{ 	c #4D4D4D",
"] 	c #595959",
"^ 	c #505050",
"/ 	c #464646",
"( 	c #454545",
"_ 	c #5A5A5A",
": 	c #F6F6F6",
"< 	c #8C8C8C",
"[ 	c #979797",
"} 	c #787878",
"| 	c #F9F9F9",
"1 	c #EAEAEA",
"2 	c #010101",
"3 	c #575757",
"4 	c #000000",
"5 	c #393939",
"6 	c #838383",
"7 	c #F5F5F5",
"8 	c #8B8B8B",
"9 	c #FBFBFB",
"0 	c #A5A5A5",
"a 	c #606060",
"b 	c #616161",
"c 	c #494949",
"d 	c #242424",
"e 	c #939393",
"f 	c #050505",
"g 	c #2B2B2B",
"h 	c #2C2C2C",
"i 	c #545454",
"j 	c #333333",
"k 	c #EBEBEB",
"l 	c #7D7D7D",
"m 	c #BABABA",
"n 	c #A2A2A2",
"o 	c #BFBFBF",
"p 	c #E5E5E5",
"q 	c #666666",
"r 	c #1D1D1D",
"s 	c #ACACAC",
"t 	c #474747",
"u 	c #292929",
"v 	c #DADADA",
"w 	c #BEBEBE",
"x 	c #DEDEDE",
"y 	c #7F7F7F",
"z 	c #E7E7E7",
"A 	c #DCDCDC",
"B 	c #E9E9E9",
"C 	c #B7B7B7",
"D 	c #272727",
"E 	c #767676",
"F 	c #4C4C4C",
"G 	c #828282",
"H 	c #121212",
"I 	c #161616",
"J 	c #D6D6D6",
"K 	c #9A9A9A",
"L 	c #C3C3C3",
"M 	c #D9D9D9",
"N 	c #707070",
"O 	c #383838",
"P 	c #030303",
"Q 	c #2E2E2E",
"R 	c #959595",
"S 	c #0A0A0A",
"T 	c #525252",
"U 	c #737373",
"V 	c #E2E2E2",
"W 	c #F7F7F7",
"X 	c #303030",
"Y 	c #151515",
"Z 	c #343434",
"` 	c #3F3F3F",
" .	c #6A6A6A",
"..	c #AFAFAF",
"+.	c #B4B4B4",
"@.	c #555555",
"#.	c #EEEEEE",
"$.	c #A4A4A4",
"%.	c #EDEDED",
"&.	c #232323",
"*.	c #484848",
"=.	c #818181",
"-.	c #919191",
";.	c #A8A8A8",
">.	c #797979",
",.	c #6D6D6D",
"'.	c #A6A6A6",
").	c #C0C0C0",
"!.	c #7C7C7C",
"~.	c #6B6B6B",
"{.	c #8D8D8D",
"].	c #7E7E7E",
"^.	c #0C0C0C",
"/.	c #CFCFCF",
"(.	c #717171",
"_.	c #020202",
":.	c #CACACA",
"<.	c #4B4B4B",
"[.	c #515151",
"}.	c #626262",
"|.	c #ADADAD",
"1.	c #696969",
"2.	c #585858",
"3.	c #AAAAAA",
"4.	c #929292",
"5.	c #D4D4D4",
"6.	c #CDCDCD",
"7.	c #757575",
"                          . +   ",
"  @ #       $ % & * = - ; > ,   ",
"  ' ) #     ! ~ { ] ^ / ( _ > : ",
"  < [ } | @ 1 / 2 3 4 5 6 5 > 7 ",
"  8 9 0 a b a c d e f g h i j k ",
"  l m n o @ p q r s t u m v ^ w ",
"x y z e A B C ] D E F G H I ~ C ",
"J K L m G M N O ~ P Q R 2 S T B ",
"* U     _ V   W { X Y ) 6 Z ` : ",
"   ...+.@.#.$.%.&.*.=.-.;.>.,.  ",
"  =.'.Q ).!.~.i {.*.].^.h ` /.  ",
"  M (.u _.j i :.# } <.[.5 =.#   ",
"  # }.|.1.2.3.    @ $.4.5.9     ",
"    6.~ 7._ @                   ",
"      : B W                     ",
"                                "};
