/* XPM */
static const char * toilets_xpm[] = {
"16 16 99 2",
"  	c None",
". 	c #FFFFFF",
"+ 	c #D4D4D4",
"@ 	c #6C6C6C",
"# 	c #D6D6D6",
"$ 	c #696969",
"% 	c #464646",
"& 	c #AEAEAE",
"* 	c #4F4F4F",
"= 	c #D8D8D8",
"- 	c #575757",
"; 	c #000000",
"> 	c #5D5D5D",
", 	c #4C4C4C",
"' 	c #232323",
") 	c #383838",
"! 	c #7C7C7C",
"~ 	c #BFBFBF",
"{ 	c #484848",
"] 	c #C2C2C2",
"^ 	c #686868",
"/ 	c #E2E2E2",
"( 	c #CFCFCF",
"_ 	c #3B3B3B",
": 	c #454545",
"< 	c #4B4B4B",
"[ 	c #E6E6E6",
"} 	c #FCFCFC",
"| 	c #6F6F6F",
"1 	c #303030",
"2 	c #2E2E2E",
"3 	c #343434",
"4 	c #C3C3C3",
"5 	c #767676",
"6 	c #030303",
"7 	c #010101",
"8 	c #929292",
"9 	c #D9D9D9",
"0 	c #060606",
"a 	c #040404",
"b 	c #0C0C0C",
"c 	c #FDFDFD",
"d 	c #393939",
"e 	c #3C3C3C",
"f 	c #DFDFDF",
"g 	c #373737",
"h 	c #252525",
"i 	c #595959",
"j 	c #3D3D3D",
"k 	c #C9C9C9",
"l 	c #505050",
"m 	c #080808",
"n 	c #272727",
"o 	c #323232",
"p 	c #E1E1E1",
"q 	c #E4E4E4",
"r 	c #262626",
"s 	c #616161",
"t 	c #333333",
"u 	c #6A6A6A",
"v 	c #5E5E5E",
"w 	c #969696",
"x 	c #E7E7E7",
"y 	c #2D2D2D",
"z 	c #666666",
"A 	c #282828",
"B 	c #F3F3F3",
"C 	c #8B8B8B",
"D 	c #FBFBFB",
"E 	c #F9F9F9",
"F 	c #CACACA",
"G 	c #777777",
"H 	c #BBBBBB",
"I 	c #7D7D7D",
"J 	c #121212",
"K 	c #161616",
"L 	c #1E1E1E",
"M 	c #8D8D8D",
"N 	c #2A2A2A",
"O 	c #606060",
"P 	c #414141",
"Q 	c #757575",
"R 	c #2B2B2B",
"S 	c #4A4A4A",
"T 	c #6B6B6B",
"U 	c #7B7B7B",
"V 	c #787878",
"W 	c #535353",
"X 	c #7A7A7A",
"Y 	c #818181",
"Z 	c #2F2F2F",
"` 	c #848484",
" .	c #9D9D9D",
"..	c #B8B8B8",
"+.	c #4E4E4E",
"@.	c #B6B6B6",
"#.	c #ADADAD",
"$.	c #F7F7F7",
"%.	c #F5F5F5",
"                                ",
"    + @ #     $ %     & * =     ",
"    - ; >     , '     ) ; !     ",
"    ~ { ]     , '     ~ ^ /     ",
"  ( _ : < [   , ' } | 1 2 3 4   ",
"  5 6 ; 7 8   , ' 9 0 a ; b %   ",
"c 2 d ; < e   , ' f g h ; i j   ",
"k l m ; n o p , ' q o r ; s t   ",
"5 u ; ; 7 v w , ' x y n ; z A   ",
"B | ; ; ; C D , ' E F A 3 G H   ",
"  I J K L M   , '     N O !     ",
"    P O Q     , '     R u !     ",
"    S T U     , '     y V !     ",
"    W X Y     , '     Z ` U     ",
"              + h     V @ #     ",
"              $ %               "};
