/* XPM */
static const char * traffic_jam_xpm[] = {
"16 16 64 1",
" 	c None",
".	c #D07979",
"+	c #D07878",
"@	c #D11C1C",
"#	c #D35656",
"$	c #CD0606",
"%	c #CE0909",
"&	c #E47676",
"*	c #E47777",
"=	c #D33D3D",
"-	c #D11B1B",
";	c #FCF1F1",
">	c #D27777",
",	c #CC0101",
"'	c #EDA3A3",
")	c #FFFFFF",
"!	c #D12323",
"~	c #D83D3D",
"{	c #FFFDFD",
"]	c #D35D5D",
"^	c #CD0404",
"/	c #CAA1A1",
"(	c #C4C4C4",
"_	c #BEBEBE",
":	c #F5CDCD",
"<	c #CF0E0E",
"[	c #E16868",
"}	c #737373",
"|	c #363636",
"1	c #838383",
"2	c #C1C1C1",
"3	c #FEFEFE",
"4	c #D34545",
"5	c #D01313",
"6	c #FBEBEB",
"7	c #E5E5E5",
"8	c #111111",
"9	c #212121",
"0	c #B0B0B0",
"a	c #C7C7C7",
"b	c #B9A9A9",
"c	c #D34444",
"d	c #D27F7F",
"e	c #CD0303",
"f	c #EA9494",
"g	c #F5F5F5",
"h	c #D4D4D4",
"i	c #565656",
"j	c #131313",
"k	c #181818",
"l	c #EA9595",
"m	c #CC0202",
"n	c #D22B2B",
"o	c #D63131",
"p	c #FEFBFB",
"q	c #909090",
"r	c #797979",
"s	c #D26464",
"t	c #CC0000",
"u	c #D21B1B",
"v	c #D73535",
"w	c #D21C1C",
"x	c #D16F6F",
"y	c #D24C4C",
"                ",
"       .+       ",
"       @@       ",
"      #$$#      ",
"      %&*%      ",
"     =-;;-=     ",
"    >,'))',>    ",
"    !~{)){~!    ",
"   ]^/(_)):^]   ",
"   <[}|1223[<   ",
"  4567(890ab5c  ",
" def))ghij8klmd ",
" nop))))q_arpon ",
"stuvvvvvvvvvvwts",
"xyyyyyyyyyyyyyyx",
"                "};
