/* XPM */
static const char * traffic_light_xpm[] = {
"16 16 76 1",
" 	c None",
".	c #350000",
"+	c #6A0000",
"@	c #6B0000",
"#	c #360000",
"$	c #2D0000",
"%	c #B40000",
"&	c #F00000",
"*	c #F10000",
"=	c #B70000",
"-	c #300000",
";	c #5A0000",
">	c #EE0000",
",	c #F90000",
"'	c #5F0000",
")	c #500000",
"!	c #EC0000",
"~	c #570000",
"{	c #180000",
"]	c #AE0000",
"^	c #F20100",
"/	c #F30100",
"(	c #B20000",
"_	c #1B0000",
":	c #000000",
"<	c #2A1800",
"[	c #A15300",
"}	c #A35400",
"|	c #2C1900",
"1	c #181800",
"2	c #ABAD00",
"3	c #EFF200",
"4	c #AEB100",
"5	c #1B1B00",
"6	c #515300",
"7	c #EDF100",
"8	c #F9FF00",
"9	c #EEF200",
"0	c #585A00",
"a	c #545500",
"b	c #EEF100",
"c	c #EFF300",
"d	c #5A5C00",
"e	c #B1B300",
"f	c #F1F400",
"g	c #F1F500",
"h	c #B4B700",
"i	c #1E1E00",
"j	c #1C2800",
"k	c #5C9701",
"l	c #5D9A01",
"m	c #1E2B00",
"n	c #001200",
"o	c #008E03",
"p	c #01CC05",
"q	c #01CD05",
"r	c #009103",
"s	c #001500",
"t	c #004301",
"u	c #00C805",
"v	c #00D305",
"w	c #00C905",
"x	c #004801",
"y	c #004E02",
"z	c #00CB05",
"A	c #005201",
"B	c #002A01",
"C	c #009E03",
"D	c #00CD05",
"E	c #00CE05",
"F	c #00A103",
"G	c #002C01",
"H	c #003301",
"I	c #006202",
"J	c #006302",
"K	c #003401",
"      .+@#      ",
"     $%&*=-     ",
"     ;>,,&'     ",
"     )!,,>~     ",
"     {]^/(_     ",
"     :<[}|:     ",
"     123345     ",
"     678890     ",
"     ab88cd     ",
"     5efghi     ",
"     :jklm:     ",
"     nopqrs     ",
"     tuvvwx     ",
"     yzvvzA     ",
"     BCDEFG     ",
"      HIJK      "};
