/* XPM */
static const char * trees_xpm[] = {
"16 16 74 1",
" 	c None",
".	c #1E8500",
"+	c #336400",
"@	c #08A600",
"#	c #01B100",
"$	c #00B300",
"%	c #1F8400",
"&	c #1A8B00",
"*	c #08A700",
"=	c #3E5400",
"-	c #07A800",
";	c #198C00",
">	c #139600",
",	c #169100",
"'	c #00B200",
")	c #109A00",
"!	c #346300",
"~	c #02B100",
"{	c #218000",
"]	c #2D6E00",
"^	c #1C8800",
"/	c #0E9D00",
"(	c #218100",
"_	c #0CA000",
":	c #129800",
"<	c #267700",
"[	c #1C8700",
"}	c #178F00",
"|	c #2A7200",
"1	c #01B200",
"2	c #02B000",
"3	c #385D00",
"4	c #385B00",
"5	c #129700",
"6	c #326600",
"7	c #3B5900",
"8	c #03AE00",
"9	c #2C6F00",
"0	c #1B8900",
"a	c #07A900",
"b	c #1A8A00",
"c	c #1F8200",
"d	c #227E00",
"e	c #346400",
"f	c #04AC00",
"g	c #454A00",
"h	c #287500",
"i	c #159300",
"j	c #09A600",
"k	c #03AD00",
"l	c #149500",
"m	c #2C7000",
"n	c #179000",
"o	c #3B5800",
"p	c #513700",
"q	c #257900",
"r	c #2D6D00",
"s	c #563000",
"t	c #503900",
"u	c #5A2A00",
"v	c #5C2700",
"w	c #512200",
"x	c #000000",
"y	c #2F1400",
"z	c #4A2000",
"A	c #4B2000",
"B	c #5B2700",
"C	c #090300",
"D	c #010100",
"E	c #030100",
"F	c #2C1300",
"G	c #220E00",
"H	c #291100",
"I	c #441C00",
"                ",
"                ",
"   .    +@#$@%  ",
"  &*   =-$$$$$; ",
"  >$   ,$$$$$$')",
" !~${ ]$$$$$$$''",
" ^$$/ ,$$$$$$$(_",
" :$$$<[}_$$|1232",
" #$$$2456'$7890a",
"b$$$$$c defg+&. ",
"hi/jk$l mnopqr  ",
"   st     uv    ",
"   vw     vv    ",
" xyzAx    Bv    ",
" xCDExx  FGHI   ",
"  xxx    xxxx   "};
