/* XPM */
static const char * vehicle_xpm[] = {
"16 16 11 1",
" 	c None",
".	c #000000",
"+	c #131313",
"@	c #565656",
"#	c #060606",
"$	c #9A9A9A",
"%	c #FFFFFF",
"&	c #676767",
"*	c #484848",
"=	c #BABABA",
"-	c #272727",
"                ",
"                ",
"                ",
"  ............  ",
"  .%%%%%%%%%%.  ",
"  .%%%%%%%%%%.  ",
" ..%%%%%%%%%%.. ",
" +@#........#@+ ",
".$%&........&%$.",
".*=-........-=*.",
"................",
" .............. ",
" ...         .. ",
" ...         .. ",
"                ",
"                "};
