/* XPM */
static const char * works_xpm[] = {
"16 16 37 1",
" 	c None",
".	c #2A2413",
"+	c #3A321A",
"@	c #110F08",
"#	c #63552D",
"$	c #87743D",
"%	c #292312",
"&	c #292413",
"*	c #2B2513",
"=	c #2B2514",
"-	c #000000",
";	c #2C2614",
">	c #131008",
",	c #352E18",
"'	c #040302",
")	c #43391E",
"!	c #020201",
"~	c #17130A",
"{	c #1C180D",
"]	c #776636",
"^	c #514625",
"/	c #060503",
"(	c #5A4D29",
"_	c #7C6A38",
":	c #2E2715",
"<	c #83713B",
"[	c #1C180C",
"}	c #4D4223",
"|	c #7E6C39",
"1	c #5B4F29",
"2	c #65572E",
"3	c #2F2815",
"4	c #84723C",
"5	c #85723C",
"6	c #4F4424",
"7	c #6D5D31",
"8	c #15120A",
"                ",
"  .+@           ",
"  #$%           ",
"  #$&           ",
"  #$&           ",
"  #$.           ",
"  #$.           ",
"  #$*           ",
"  #$=  -   -  - ",
"  #$; >, ')! ;~ ",
"  #$*{]^/(_!:<[ ",
"  #$}|$12$_34$[ ",
"  #$$$$$$$55$$[ ",
"  #$$$$$$$$$$$[ ",
"  6777777777778 ",
"                "};
