/* XPM */
static const char * wpttemp_red_xpm[] = {
"16 16 75 1",
" 	c None",
".	c #B40317",
"+	c #EA0021",
"@	c #EB0021",
"#	c #A71815",
"$	c #F70223",
"%	c #FF0025",
"&	c #F70023",
"*	c #DB001E",
"=	c #9B4425",
"-	c #CF0F1B",
";	c #FD0024",
">	c #FF0125",
",	c #F60023",
"'	c #E19186",
")	c #E18654",
"!	c #9F3B09",
"~	c #CD0E1A",
"{	c #FA0024",
"]	c #FE0025",
"^	c #E80021",
"/	c #E94159",
"(	c #EF0325",
"_	c #DB0420",
":	c #DB8580",
"<	c #FCB48D",
"[	c #FD6614",
"}	c #DE5001",
"|	c #A8420C",
"1	c #AD2213",
"2	c #CB0719",
"3	c #B70118",
"4	c #E64E64",
"5	c #FD2A48",
"6	c #FB0022",
"7	c #E62F37",
"8	c #F8A077",
"9	c #FF6E1F",
"0	c #FF5A00",
"a	c #FF5B00",
"b	c #E74803",
"c	c #972608",
"d	c #E0324B",
"e	c #FC1A3A",
"f	c #FB0023",
"g	c #E42123",
"h	c #F75E11",
"i	c #F55201",
"j	c #D32C0C",
"k	c #F11433",
"l	c #F20220",
"m	c #E3270E",
"n	c #F85401",
"o	c #D72C0D",
"p	c #F40123",
"q	c #F20222",
"r	c #E71616",
"s	c #E31B15",
"t	c #E40320",
"u	c #B44454",
"v	c #E90727",
"w	c #FC0025",
"x	c #FA0025",
"y	c #FC0024",
"z	c #D6001D",
"A	c #A0A1A1",
"B	c #868283",
"C	c #AF1329",
"D	c #F90024",
"E	c #868686",
"F	c #E40020",
"G	c #D6001E",
"H	c #848484",
"I	c #828282",
"J	c #747474",
"                ",
"         .+@    ",
"         #$%&*  ",
"         =-;>,  ",
"        ')!~{]^ ",
"    /(_:<[}|123 ",
"   4567890abc   ",
"   defghaaij    ",
"    k%lmino     ",
"     p%qrst     ",
"     uv%wxyz    ",
"    ABC@D;,     ",
"    E    FG     ",
"   H            ",
"  I             ",
" J              "};
