/* XPM */
static const char * wpttemp_yellow_xpm[] = {
"16 16 78 1",
" 	c None",
".	c #B27201",
"+	c #EA8F00",
"@	c #EB9000",
"#	c #A07B08",
"$	c #F79901",
"%	c #FF9C00",
"&	c #F79700",
"*	c #DB8600",
"=	c #8D8F24",
"-	c #CA8C06",
";	c #FE9B00",
">	c #F69700",
",	c #DED184",
"'	c #D1E154",
")	c #859206",
"!	c #C78A04",
"~	c #FA9901",
"{	c #FE9C00",
"]	c #E88E00",
"^	c #E9A841",
"/	c #EF9304",
"(	c #DB8903",
"_	c #D8C579",
":	c #F1FC8D",
"<	c #E6FD14",
"[	c #C6DE01",
"}	c #93A20B",
"|	c #9F8408",
"1	c #C98604",
"2	c #B77301",
"3	c #E6AB4E",
"4	c #FDAC2A",
"5	c #FB9800",
"6	c #E4AC23",
"7	c #EDF776",
"8	c #E7FF1F",
"9	c #E3FF00",
"0	c #E5FF00",
"a	c #D3E003",
"b	c #8A8406",
"c	c #E09D32",
"d	c #FCA41A",
"e	c #E1AA0F",
"f	c #E3F611",
"g	c #E4FF00",
"h	c #E1F501",
"i	c #CEBA03",
"j	c #F19B14",
"k	c #F29700",
"l	c #D9BA00",
"m	c #E1F401",
"n	c #E1F601",
"o	c #D0BA01",
"p	c #F49501",
"q	c #F39601",
"r	c #E3AA01",
"s	c #DCAA01",
"t	c #E38E00",
"u	c #B48844",
"v	c #E99107",
"w	c #FC9801",
"x	c #FB9701",
"y	c #FC9A00",
"z	c #D68400",
"A	c #A0A0A1",
"B	c #868482",
"C	c #AF7313",
"D	c #EB8F00",
"E	c #F99800",
"F	c #FD9B00",
"G	c #F69600",
"H	c #868686",
"I	c #E48C00",
"J	c #D68300",
"K	c #848484",
"L	c #828282",
"M	c #747474",
"                ",
"         .+@    ",
"         #$%&*  ",
"         =-;%>  ",
"        ,')!~{] ",
"    ^/(_:<[}|12 ",
"   34567890ab   ",
"   cd5efgghi    ",
"    j%klmno     ",
"     p%qrst     ",
"     uv%wxyz    ",
"    ABCDEFG     ",
"    H    IJ     ",
"   K            ",
"  L             ",
" M              "};
