/* XPM */
static const char * wpttemp_green_xpm[] = {
"16 16 75 1",
" 	c None",
".	c #54B402",
"+	c #72EA00",
"@	c #73EB00",
"#	c #40A70B",
"$	c #78F700",
"%	c #7DFF00",
"&	c #79F700",
"*	c #6ADA00",
"=	c #369B2B",
"-	c #5CCE09",
";	c #7DFD00",
">	c #78F600",
",	c #99E183",
"'	c #56E156",
")	c #1A9E17",
"!	c #5ACD08",
"~	c #7AF900",
"{	c #7DFE00",
"]	c #71E800",
"^	c #93E940",
"/	c #77EF03",
"(	c #6BDB02",
"_	c #97DB78",
":	c #8DFD8C",
"<	c #14FD13",
"[	c #04DE05",
"}	c #15A714",
"|	c #3DAC11",
"1	c #5DCB05",
"2	c #57B601",
"3	c #99E74E",
"4	c #92FD29",
"5	c #7BFB00",
"6	c #70E623",
"7	c #7AF875",
"8	c #1EFF1E",
"9	c #00FF00",
"0	c #0EE703",
"a	c #23960E",
"b	c #88E032",
"c	c #89FC1A",
"d	c #7CFB00",
"e	c #5CE40F",
"f	c #14F711",
"g	c #07F500",
"h	c #2DD202",
"i	c #80F113",
"j	c #73F200",
"k	c #37E200",
"l	c #06F500",
"m	c #05F800",
"n	c #2ED701",
"o	c #78F400",
"p	c #75F200",
"q	c #52E601",
"r	c #4DE301",
"s	c #6DE400",
"t	c #7BB444",
"u	c #75E906",
"v	c #7EFC00",
"w	c #7DFA00",
"x	c #7CFC00",
"y	c #69D600",
"z	c #A1A0A1",
"A	c #848682",
"B	c #5FAE13",
"C	c #73EA00",
"D	c #7CFD00",
"E	c #868686",
"F	c #70E400",
"G	c #68D500",
"H	c #848484",
"I	c #828282",
"J	c #747474",
"                ",
"         .+@    ",
"         #$%&*  ",
"         =-;%>  ",
"        ,')!~{] ",
"    ^/(_:<[}|12 ",
"   345678990a   ",
"   bcdef99gh    ",
"    i%jklmn     ",
"     o%pqrs     ",
"     tu%vwxy    ",
"    zABC~D>     ",
"    E    FG     ",
"   H            ",
"  I             ",
" J              "};
