/* XPM */
static const char * wpttemp_xpm[] = {
"16 16 75 1",
" 	c None",
".	c #0256B4",
"+	c #0074EA",
"@	c #0075EB",
"#	c #0B42A7",
"$	c #017AF7",
"%	c #007FFF",
"&	c #007BF7",
"*	c #006CDB",
"=	c #2B369B",
"-	c #095DCF",
";	c #007FFD",
">	c #017FFF",
",	c #007AF6",
"'	c #849AE1",
")	c #5757E1",
"!	c #161A9F",
"~	c #095BCD",
"{	c #007CFA",
"]	c #007FFE",
"^	c #0073E8",
"/	c #4194E9",
"(	c #0478EF",
"_	c #036CDB",
":	c #7997DB",
"<	c #8D8EFC",
"[	c #1414FD",
"}	c #0504DE",
"|	c #1415A8",
"1	c #113DAD",
"2	c #055DCB",
"3	c #0158B7",
"4	c #4E9AE6",
"5	c #2A93FD",
"6	c #007DFB",
"7	c #2371E6",
"8	c #767AF8",
"9	c #1F1EFF",
"0	c #0000FF",
"a	c #030EE7",
"b	c #0E2397",
"c	c #3288E0",
"d	c #1A8AFC",
"e	c #007EFB",
"f	c #0F5DE4",
"g	c #1115F7",
"h	c #0107F5",
"i	c #032CD3",
"j	c #1482F1",
"k	c #0074F2",
"l	c #0037E3",
"m	c #0105F8",
"n	c #012ED7",
"o	c #017AF4",
"p	c #0177F2",
"q	c #0153E7",
"r	c #014CE3",
"s	c #006EE4",
"t	c #447CB4",
"u	c #0777E9",
"v	c #017FFC",
"w	c #017FFA",
"x	c #007EFC",
"y	c #006AD6",
"z	c #A1A1A0",
"A	c #828486",
"B	c #1360AF",
"C	c #0074EB",
"D	c #007CF9",
"E	c #007EFD",
"F	c #868686",
"G	c #0071E4",
"H	c #848484",
"I	c #828282",
"J	c #747474",
"                ",
"         .+@    ",
"         #$%&*  ",
"         =-;>,  ",
"        ')!~{]^ ",
"    /(_:<[}|123 ",
"   45678900ab   ",
"   cdefg00hi    ",
"    j%klhmn     ",
"     o%pqrs     ",
"     tu%vwxy    ",
"    zABCDE,     ",
"    F    Gy     ",
"   H            ",
"  I             ",
" J              "};
