/* XPM */
static const char * zoo_xpm[] = {
"16 16 78 1",
" 	c None",
".	c #FFFFFF",
"+	c #D9D9D9",
"@	c #9D9D9D",
"#	c #E4E4E4",
"$	c #B9B9B9",
"%	c #0D0D0D",
"&	c #000000",
"*	c #0A0A0A",
"=	c #727272",
"-	c #9E9E9E",
";	c #AFAFAF",
">	c #D0D0D0",
",	c #E1E1E1",
"'	c #E9E9E9",
")	c #E5E5E5",
"!	c #0C0C0C",
"~	c #020202",
"{	c #6A6A6A",
"]	c #F3F3F3",
"^	c #9F9F9F",
"/	c #222222",
"(	c #D4D4D4",
"_	c #545454",
":	c #080808",
"<	c #232323",
"[	c #2F2F2F",
"}	c #F8F8F8",
"|	c #070707",
"1	c #505050",
"2	c #E7E7E7",
"3	c #CDCDCD",
"4	c #010101",
"5	c #EFEFEF",
"6	c #F0F0F0",
"7	c #BCBCBC",
"8	c #E6E6E6",
"9	c #FDFDFD",
"0	c #141414",
"a	c #F9F9F9",
"b	c #A0A0A0",
"c	c #5C5C5C",
"d	c #292929",
"e	c #FAFAFA",
"f	c #525252",
"g	c #ABABAB",
"h	c #6D6D6D",
"i	c #C0C0C0",
"j	c #F1F1F1",
"k	c #191919",
"l	c #1A1A1A",
"m	c #626262",
"n	c #F7F7F7",
"o	c #555555",
"p	c #9A9A9A",
"q	c #252525",
"r	c #2B2B2B",
"s	c #909090",
"t	c #353535",
"u	c #454545",
"v	c #ECECEC",
"w	c #AEAEAE",
"x	c #848484",
"y	c #DFDFDF",
"z	c #737373",
"A	c #D8D8D8",
"B	c #1C1C1C",
"C	c #212121",
"D	c #B4B4B4",
"E	c #606060",
"F	c #CFCFCF",
"G	c #DBDBDB",
"H	c #A6A6A6",
"I	c #3D3D3D",
"J	c #A7A7A7",
"K	c #959595",
"L	c #424242",
"M	c #A3A3A3",
"                ",
"                ",
"   +@#          ",
"  $%&*=-;>,'    ",
" )!&&&&&&&&~{]  ",
" ^&&&&&&&&&&&/( ",
" _&:<&&&&&&&&&[ ",
"}|123&&&&&&&&&45",
"6&7 8&&&&&&&&&['",
"90a b&&&c0&&&&de",
")fg h&<&ijk~l&m ",
"nop qr@&s t&s&uv",
"   w~xy&zABCD&E ",
"   F-GHIJ   KLM ",
"                ",
"                "};
