/* XPM */
static const char * accept_xpm[] = {
"16 16 136 2",
"  	c None",
". 	c #5BC239",
"+ 	c #54BD31",
"@ 	c #52BB2D",
"# 	c #52B92B",
"$ 	c #59C236",
"% 	c #74C259",
"& 	c #A3D796",
"* 	c #AEDCA5",
"= 	c #A1D695",
"- 	c #6AB950",
"; 	c #42AB1F",
"> 	c #55C034",
", 	c #90CE7F",
"' 	c #B7E1AF",
") 	c #9DD892",
"! 	c #83CE77",
"~ 	c #B5E1AE",
"{ 	c #8BC878",
"] 	c #329D1D",
"^ 	c #55BE34",
"/ 	c #7ACC6D",
"( 	c #76CA6A",
"_ 	c #72C868",
": 	c #74C868",
"< 	c #75C868",
"[ 	c #79C96B",
"} 	c #B4DFAC",
"| 	c #89C476",
"1 	c #2D961C",
"2 	c #70BF57",
"3 	c #70C765",
"4 	c #6EC563",
"5 	c #6EC462",
"6 	c #71C463",
"7 	c #BEE3B6",
"8 	c #7EC76F",
"9 	c #B5DFAC",
"0 	c #5EA948",
"a 	c #54BB2D",
"b 	c #A1D795",
"c 	c #9BD791",
"d 	c #76C969",
"e 	c #6FC664",
"f 	c #6EC461",
"g 	c #6FC361",
"h 	c #6FC261",
"i 	c #C0E4B9",
"j 	c #FFFFFF",
"k 	c #E6F4E3",
"l 	c #99D18B",
"m 	c #9DCE8B",
"n 	c #20881C",
"o 	c #4BB426",
"p 	c #B1DDA7",
"q 	c #80CC72",
"r 	c #73C766",
"s 	c #B7E1B0",
"t 	c #D6EED2",
"u 	c #70C163",
"v 	c #BFE3B8",
"w 	c #FCFDFB",
"x 	c #99D08C",
"y 	c #7EC169",
"z 	c #AED7A1",
"A 	c #1E7F1B",
"B 	c #42AD1F",
"C 	c #AFDCA6",
"D 	c #7FCA70",
"E 	c #80CA73",
"F 	c #F1F9F0",
"G 	c #EDF7EB",
"H 	c #96CD88",
"I 	c #71B95B",
"J 	c #7DBE67",
"K 	c #AFD7A0",
"L 	c #1E7A1B",
"M 	c #42A91F",
"N 	c #9FD291",
"O 	c #9AD48D",
"P 	c #74C364",
"Q 	c #87C979",
"R 	c #F4FAF2",
"S 	c #FDFEFD",
"T 	c #96CB86",
"U 	c #6DB757",
"V 	c #72B95B",
"W 	c #97CC85",
"X 	c #9AC787",
"Y 	c #1F781B",
"Z 	c #64B04C",
"` 	c #B4DDAA",
" .	c #79C164",
"..	c #71BE5F",
"+.	c #85C575",
"@.	c #D9ECD4",
"#.	c #99CD8A",
"$.	c #6CB656",
"%.	c #6EB558",
"&.	c #74B75C",
"*.	c #B4DAA6",
"=.	c #4E9B41",
"-.	c #2F961C",
";.	c #87C272",
">.	c #B2DBA8",
",.	c #77BC60",
"'.	c #73BA5C",
").	c #70B859",
"!.	c #6FB559",
"~.	c #6FB558",
"{.	c #74B75B",
"].	c #B3D9A5",
"^.	c #7FB869",
"/.	c #1E711A",
"(.	c #208A1B",
"_.	c #83BE6D",
":.	c #B5DBA8",
"<.	c #98CC87",
"[.	c #7DBC66",
"}.	c #7CBA64",
"|.	c #98CB86",
"1.	c #B4D9A5",
"2.	c #7DB766",
"3.	c #1D6C1A",
"4.	c #1F831B",
"5.	c #52A042",
"6.	c #9ACA87",
"7.	c #ABD39B",
"8.	c #ABD29B",
"9.	c #96C783",
"0.	c #4C973D",
"a.	c #1E6E1A",
"b.	c #1F7A1B",
"c.	c #1E731A",
"d.	c #1E701A",
"e.	c #1F711B",
"                                ",
"            . + @ #             ",
"        $ % & * * = - ;         ",
"      > , ' ) ! ! ) ~ { ]       ",
"    ^ , ~ / ( _ : < [ } | 1     ",
"    2 ' / _ 3 4 5 6 7 8 9 0     ",
"  a b c d e f g h i j k l m n   ",
"  o p q r s t u v j w x y z A   ",
"  B C D E F j G j w H I J K L   ",
"  M N O P Q R j S T U V W X Y   ",
"    Z `  ...+.@.#.$.%.&.*.=.    ",
"    -.;.>.,.'.).!.~.{.].^./.    ",
"      (._.:.<.[.}.|.1.2.3.      ",
"        4.5.6.7.8.9.0.a.        ",
"            b.c.d.e.            ",
"                                "};
