/* XPM */
static const char * asterisk_yellow_xpm[] = {
"16 16 119 2",
"  	c None",
". 	c #FDC100",
"+ 	c #FCBF00",
"@ 	c #F5B600",
"# 	c #F3B400",
"$ 	c #FDC922",
"% 	c #FEDC67",
"& 	c #FEE079",
"* 	c #F9BB00",
"= 	c #F4B600",
"- 	c #FDDD7A",
"; 	c #F9CE51",
"> 	c #EFAF00",
", 	c #FCCC2D",
"' 	c #FEE587",
") 	c #FFE991",
"! 	c #F8C015",
"~ 	c #F5C129",
"{ 	c #FFE180",
"] 	c #FCD972",
"^ 	c #EDAC00",
"/ 	c #FBD044",
"( 	c #FFE891",
"_ 	c #FAD357",
": 	c #F4B500",
"< 	c #F2B300",
"[ 	c #F9D056",
"} 	c #FFE07E",
"| 	c #F4C23A",
"1 	c #F7B900",
"2 	c #FAD04D",
"3 	c #FEE589",
"4 	c #F2B200",
"5 	c #F9D058",
"6 	c #FFE181",
"7 	c #F5C746",
"8 	c #EAA900",
"9 	c #FEE283",
"0 	c #FEDE70",
"a 	c #FFDD71",
"b 	c #FBD566",
"c 	c #EAA800",
"d 	c #F9BC00",
"e 	c #F9C422",
"f 	c #F6B800",
"g 	c #F1B200",
"h 	c #FCD967",
"i 	c #FFDB64",
"j 	c #FFD960",
"k 	c #FBD35F",
"l 	c #E7A500",
"m 	c #E5A300",
"n 	c #E3A000",
"o 	c #E19D00",
"p 	c #E5A81A",
"q 	c #DC9700",
"r 	c #F8BA00",
"s 	c #FDDF7A",
"t 	c #FFECA4",
"u 	c #FDE081",
"v 	c #FBDB75",
"w 	c #FBDA72",
"x 	c #FFE079",
"y 	c #FFDA61",
"z 	c #FFD85C",
"A 	c #FFDB6B",
"B 	c #FAD56F",
"C 	c #F8D065",
"D 	c #FBD775",
"E 	c #FFDE85",
"F 	c #F5CB5F",
"G 	c #D69000",
"H 	c #F6B700",
"I 	c #F0B100",
"J 	c #EFAE00",
"K 	c #FAD25D",
"L 	c #FFD961",
"M 	c #FFD75B",
"N 	c #FAD05C",
"O 	c #E29F00",
"P 	c #E09D00",
"Q 	c #DE9A00",
"R 	c #DB9500",
"S 	c #D68F00",
"T 	c #D18900",
"U 	c #FDDE7D",
"V 	c #FCD563",
"W 	c #FFDA67",
"X 	c #F9D05E",
"Y 	c #E09C00",
"Z 	c #F3C548",
"` 	c #FAD872",
" .	c #E4A100",
"..	c #F3C652",
"+.	c #FFDB73",
"@.	c #EDBB41",
"#.	c #D99300",
"$.	c #F1C13E",
"%.	c #FFE285",
"&.	c #EEBB3A",
"*.	c #DF9B00",
"=.	c #F1C24D",
"-.	c #FFD86C",
";.	c #E5AE36",
">.	c #EFBB33",
",.	c #FEE082",
"'.	c #FCDA77",
").	c #E2A624",
"!.	c #FFD76A",
"~.	c #F9D067",
"{.	c #D49219",
"].	c #E5A200",
"^.	c #F2C651",
"/.	c #EFBE44",
"(.	c #D18A00",
"_.	c #F2C660",
":.	c #E2AA3C",
"<.	c #C47A00",
"[.	c #C87E00",
"                                ",
"        . +         @ #         ",
"      $ % & *     = - ; >       ",
"      , ' ) !     ~ { ] ^       ",
"        / ( _ : < [ } |         ",
"        1 2 3 4 5 6 7 8         ",
"          # 9 0 a b c           ",
"d e f @ # g h i j k l m n o p q ",
"r s t u v w x y z A B C D E F G ",
"H : < I J ^ K L M N O P Q R S T ",
"          8 U V W X Y           ",
"        8 Z `  ...+.@.#.        ",
"      c $.%.&.  *.=.-.;.        ",
"      >.,.'.o     ).!.~.{.      ",
"      ].^./.      (._.:.<.      ",
"        P Q         [.          "};
