/* XPM */
static const char * bell_xpm[] = {
"16 16 142 2",
"  	c None",
". 	c #DAB326",
"+ 	c #D5AD25",
"@ 	c #C89522",
"# 	c #D8B225",
"$ 	c #E0B432",
"% 	c #EBB544",
"& 	c #B78321",
"* 	c #DDB726",
"= 	c #D7AF26",
"- 	c #E2B635",
"; 	c #C68F21",
"> 	c #C68D2C",
", 	c #AD7C20",
"' 	c #DBB626",
") 	c #E9CF6D",
"! 	c #F8EABC",
"~ 	c #F9E9B9",
"{ 	c #F0CC71",
"] 	c #EAB341",
"^ 	c #D49830",
"/ 	c #B27F20",
"( 	c #E0BF39",
"_ 	c #EBD68A",
": 	c #FAEAB6",
"< 	c #F1CE56",
"[ 	c #EEC342",
"} 	c #E9AF2B",
"| 	c #E8B037",
"1 	c #E8B843",
"2 	c #B68220",
"3 	c #E6CB58",
"4 	c #F3E0A9",
"5 	c #F8E3A2",
"6 	c #F1CB4A",
"7 	c #EFC441",
"8 	c #ECBD3A",
"9 	c #EBB833",
"0 	c #EAB42E",
"a 	c #EABC49",
"b 	c #CC8E24",
"c 	c #EBD37E",
"d 	c #FBF0CB",
"e 	c #F5DD84",
"f 	c #EBC647",
"g 	c #E9BD3E",
"h 	c #E5B537",
"i 	c #DCA62D",
"j 	c #E3AC2C",
"k 	c #E9B02B",
"l 	c #E8B948",
"m 	c #BF8522",
"n 	c #D7AD25",
"o 	c #EBD255",
"p 	c #F9E89D",
"q 	c #F6E178",
"r 	c #F6D861",
"s 	c #F7D352",
"t 	c #EAC141",
"u 	c #DBAA31",
"v 	c #D69F2B",
"w 	c #D19726",
"x 	c #E0A727",
"y 	c #E6B646",
"z 	c #B07A20",
"A 	c #D2A024",
"B 	c #F2DD69",
"C 	c #F2DD82",
"D 	c #CAA42C",
"E 	c #D0AA2A",
"F 	c #D5A936",
"G 	c #DCA936",
"H 	c #E9B836",
"I 	c #CB9124",
"J 	c #CE9023",
"K 	c #E3A624",
"L 	c #EBBA45",
"M 	c #E1AC3C",
"N 	c #A9741F",
"O 	c #C99422",
"P 	c #DAB43C",
"Q 	c #EED97C",
"R 	c #D4AE4F",
"S 	c #B48138",
"T 	c #BD9240",
"U 	c #BC8B21",
"V 	c #DFAC2E",
"W 	c #EEB930",
"X 	c #D29221",
"Y 	c #DD9D1F",
"Z 	c #E8B744",
"` 	c #CF962B",
" .	c #C28E21",
"..	c #CFA732",
"+.	c #F2DD7A",
"@.	c #AF772E",
"#.	c #F6E08C",
"$.	c #EDD078",
"%.	c #B88A2C",
"&.	c #C98D1E",
"*.	c #EFB526",
"=.	c #DD9D20",
"-.	c #E5B544",
";.	c #B77D21",
">.	c #BA8621",
",.	c #C8A031",
"'.	c #C89E57",
").	c #DEBD73",
"!.	c #F6DE82",
"~.	c #DAB459",
"{.	c #915D0D",
"].	c #BD8016",
"^.	c #F3B225",
"/.	c #E2AE3D",
"(.	c #A7701F",
"_.	c #BD8E2F",
":.	c #BA8C38",
"<.	c #AF782B",
"[.	c #C69742",
"}.	c #955B0C",
"|.	c #884A09",
"1.	c #CE921C",
"2.	c #DDA734",
"3.	c #A0681D",
"4.	c #AD791F",
"5.	c #C69830",
"6.	c #E3C84B",
"7.	c #E7C547",
"8.	c #C89D29",
"9.	c #E4B628",
"0.	c #D0972E",
"a.	c #9A631D",
"b.	c #A7731F",
"c.	c #A7711E",
"d.	c #BD8B2B",
"e.	c #D9A334",
"f.	c #D99F33",
"g.	c #B37927",
"h.	c #955D1C",
"i.	c #98611D",
"j.	c #925D1C",
"k.	c #91581C",
"                        . + @   ",
"                      # $ % &   ",
"              * . = + - ; > ,   ",
"            ' ) ! ~ { ] ^ /     ",
"          ( _ : < [ } | 1 2     ",
"      * 3 4 5 6 7 8 9 0 a b     ",
"  * . c d e f g h i j k l m     ",
"n o p q r s t u v w x } y z     ",
"A B C D E F G H I J K L M N     ",
"O P Q R S T U V W X Y Z `       ",
"   ...+.@.#.$.%.&.*.=.-.;.      ",
"    >.,.'.).!.~.{.].^./.(.      ",
"      / _.:.<.[.}.|.1.2.3.      ",
"          4.5.6.7.8.9.0.a.      ",
"            b.c.d.e.f.g.h.      ",
"                  i.j.k.        "};
