/* XPM */
static const char * blue_flag_xpm[] = {
"16 16 32 1",
" 	c None",
".	c #399DAB",
"+	c #78BAF8",
"@	c #E5F1FE",
"#	c #65B6F6",
"$	c #49A5F5",
"%	c #53AAF6",
"&	c #3CAED9",
"*	c #8AC4F9",
"=	c #D3E8FD",
"-	c #9BCBFA",
";	c #40A1F5",
">	c #6BBAF7",
",	c #5AADF6",
"'	c #543318",
")	c #A2CDFA",
"!	c #A7D1FA",
"~	c #44A3F5",
"{	c #386595",
"]	c #46A4F5",
"^	c #623A15",
"/	c #3E9FC5",
"(	c #4DA8F6",
"_	c #3AAAC9",
":	c #4EA7F6",
"<	c #B8DAFB",
"[	c #3A7FC2",
"}	c #3DAFED",
"|	c #67B3F7",
"1	c #B17645",
"2	c #593619",
"3	c #FFFFFF",
"                ",
" 33333333333333 ",
" 3)-*++|,%$2223 ",
" 3-@@@==!))/123 ",
" 3*@,%%($~;[1^3 ",
" 3+=%%:$]~;{1^3 ",
" 3|<%:$$~;;{1^3 ",
" 3,!($$];;;{123 ",
" 3%-$]~;;;;{1'3 ",
" 3$*>>#####^1'3 ",
" 3}}&&___/.21'3 ",
" 333333333321'3 ",
"          321'3 ",
"          32123 ",
"          32223 ",
"          33333 "};
