/* XPM */
static const char * bullet_delete_xpm[] = {
"16 16 29 1",
" 	c None",
".	c #C04D0E",
"+	c #BC4204",
"@	c #B94503",
"#	c #D17338",
"$	c #F7B58D",
"%	c #FED6B8",
"&	c #F5A872",
"*	c #CB6B2D",
"=	c #B94403",
"-	c #F6B58D",
";	c #FF924D",
">	c #FF7711",
",	c #FF8621",
"'	c #EB8A40",
")	c #FECDAE",
"!	c #FFFFFF",
"~	c #EF7F18",
"{	c #F49D63",
"]	c #FF7F18",
"^	c #F87600",
"/	c #EE7600",
"(	c #E16803",
"_	c #C3571A",
":	c #C96425",
"<	c #E67721",
"[	c #EA7905",
"}	c #DD6401",
"|	c #BD4D04",
"                ",
"                ",
"                ",
"                ",
"                ",
"      .+@       ",
"     #$%&*      ",
"    =-;>,'=     ",
"    +)!!!~+     ",
"    @{]^/(@     ",
"    _:<[}|      ",
"      @+@       ",
"                ",
"                ",
"                ",
"                "};
