/* XPM */
static const char * bullet_error_xpm[] = {
"16 16 56 1",
" 	c None",
".	c #DEBD5C",
"+	c #DDBA59",
"@	c #EDDBAB",
"#	c #DBB656",
"$	c #EBD7A4",
"%	c #FBF4DC",
"&	c #D7AF51",
"*	c #F8EBB4",
"=	c #F8E68E",
"-	c #EEDDB5",
";	c #D3A649",
">	c #D5AA4D",
",	c #ECD9AC",
"'	c #F8E382",
")	c #C28833",
"!	c #FAEDAC",
"~	c #CF9E43",
"{	c #DFBD7B",
"]	c #F9EAA2",
"^	c #F6DC61",
"/	c #C28731",
"(	c #F7E177",
"_	c #F0DEB6",
":	c #CA943A",
"<	c #EFDBAB",
"[	c #F7E074",
"}	c #F5DA58",
"|	c #F5DB5D",
"1	c #F8E690",
"2	c #E1C192",
"3	c #E1C28E",
"4	c #F9E897",
"5	c #F5DB5B",
"6	c #C28832",
"7	c #F6DE6A",
"8	c #F6E7B1",
"9	c #C2832D",
"0	c #C99138",
"a	c #F6ECDD",
"b	c #F9EEBD",
"c	c #F8EAAC",
"d	c #F8EAAB",
"e	c #F8EAAD",
"f	c #FBF3D4",
"g	c #E4C8A4",
"h	c #BE7B26",
"i	c #C58A32",
"j	c #C48730",
"k	c #C3852F",
"l	c #C1812B",
"m	c #C07F29",
"n	c #BF7D28",
"o	c #BD7925",
"p	c #BD7723",
"q	c #BC7622",
"                ",
"                ",
"                ",
"       .        ",
"      +@#       ",
"      $%&       ",
"     &*=-;      ",
"    >,')!~      ",
"    {]^/(_:     ",
"   ~<[}}|12     ",
"   34^565789    ",
"  0abcdddefgh   ",
"  ijk9lmnhopq   ",
"                ",
"                ",
"                "};
