/* XPM */
static const char * bullet_arrow_up_xpm[] = {
"16 16 21 1",
" 	g None",
".	g #ABABAB",
"+	g #A6A6A6",
"@	g #939393",
"#	g #A2A2A2",
"$	g #A8A8A8",
"%	g #B1B1B1",
"&	g #999999",
"*	g #7A7A7A",
"=	g #9D9D9D",
"-	g #A5A5A5",
";	g #AFAFAF",
">	g #A9A9A9",
",	g #868686",
"'	g #656565",
")	g #8E8E8E",
"!	g #848484",
"~	g #717171",
"{	g #696969",
"]	g #626262",
"^	g #5C5C5C",
"                ",
"                ",
"                ",
"                ",
"                ",
"                ",
"       .        ",
"      +.@       ",
"     #$%&*      ",
"    =-;>#,'     ",
"    )!*~{]^     ",
"                ",
"                ",
"                ",
"                ",
"                "};
