/* XPM */
static const char * bullet_white_xpm[] = {
"16 16 17 1",
" 	g None",
".	g #E5E5E5",
"+	g #E4E4E4",
"@	g #E3E3E3",
"#	g #F2F2F2",
"$	g #F7F7F7",
"%	g #F1F1F1",
"&	g #E1E1E1",
"*	g #F0F0F0",
"=	g #F6F6F6",
"-	g #E0E0E0",
";	g #EFEFEF",
">	g #DFDFDF",
",	g #F5F5F5",
"'	g #DCDCDC",
")	g #DEDEDE",
"!	g #DBDBDB",
"                ",
"                ",
"                ",
"                ",
"                ",
"      ..+@      ",
"     .#$$%&     ",
"     .$#*=-     ",
"     +$*;=>     ",
"     @*=,;'     ",
"      ->)!      ",
"                ",
"                ",
"                ",
"                ",
"                "};
