/* XPM */
static const char * bullet_picture_xpm[] = {
"16 16 81 1",
" 	c None",
".	c #7993B9",
"+	c #879DC3",
"@	c #7694C2",
"#	c #7795C3",
"$	c #7896C3",
"%	c #7794C3",
"&	c #7895C1",
"*	c #718DB8",
"=	c #879FC3",
"-	c #EAEBEB",
";	c #F4F5F7",
">	c #E8EEF2",
",	c #7D99C2",
"'	c #7895C3",
")	c #CCDBE9",
"!	c #90BC5E",
"~	c #9FCA4A",
"{	c #95C445",
"]	c #77AE58",
"^	c #B1C8DC",
"/	c #E9F0F7",
"(	c #7E9AC5",
"_	c #7996C3",
":	c #F0F5F7",
"<	c #C8D9E7",
"[	c #9CC848",
"}	c #A8CF5A",
"|	c #9DCA53",
"1	c #75B439",
"2	c #9AB7D2",
"3	c #E7EFF5",
"4	c #7F9BC4",
"5	c #EFF4F7",
"6	c #BBCFE1",
"7	c #8BC040",
"8	c #99C74F",
"9	c #8DC248",
"0	c #63AA31",
"a	c #89AACB",
"b	c #E7EEF6",
"c	c #7E9AC4",
"d	c #EEF3F7",
"e	c #AEC7DF",
"f	c #6CA665",
"g	c #6AAD39",
"h	c #5EA82F",
"i	c #4E974E",
"j	c #89AED2",
"k	c #ECF1F7",
"l	c #9EBEDC",
"m	c #9BBDDE",
"n	c #CC9E4F",
"o	c #A17831",
"p	c #91B7DA",
"q	c #8DB2D6",
"r	c #E6EEF6",
"s	c #7F9BC5",
"t	c #7895C2",
"u	c #EDF1F6",
"v	c #70A247",
"w	c #6B9D42",
"x	c #66973C",
"y	c #609136",
"z	c #5A8B31",
"A	c #55862C",
"B	c #E6EDF7",
"C	c #7A95C0",
"D	c #ECEEF0",
"E	c #F1F4F8",
"F	c #F0F4F8",
"G	c #F0F4F7",
"H	c #EFF3F7",
"I	c #EAEEF2",
"J	c #7E99C4",
"K	c #708BB8",
"L	c #7D97C1",
"M	c #7B97C3",
"N	c #7D99C4",
"O	c #7D98C4",
"P	c #728DB9",
"                ",
"                ",
"                ",
"   .+@#$%%%&*   ",
"   =-;;;;;;>,   ",
"   ';)!~{]^/(   ",
"   _:<[}|1234   ",
"   '567890abc   ",
"   'defghijbc   ",
"   $klmnopqrs   ",
"   tuvwxyzAB(   ",
"   CDEFGHHHIJ   ",
"   KLMNJNOO,P   ",
"                ",
"                ",
"                "};
