/* XPM */
static const char * bullet_arrow_down_xpm[] = {
"16 16 21 1",
" 	g None",
".	g #C0C0C0",
"+	g #BABABA",
"@	g #B3B3B3",
"#	g #ABABAB",
"$	g #A2A2A2",
"%	g #989898",
"&	g #8E8E8E",
"*	g #B7B7B7",
"=	g #BFBFBF",
"-	g #B9B9B9",
";	g #9C9C9C",
">	g #7F7F7F",
",	g #A8A8A8",
"'	g #B1B1B1",
")	g #999999",
"!	g #7A7A7A",
"~	g #898989",
"{	g #949494",
"]	g #767676",
"^	g #717171",
"                ",
"                ",
"                ",
"                ",
"                ",
"                ",
"    .+@#$%&     ",
"    *+=-@;>     ",
"     $,')!      ",
"      ~{]       ",
"       ^        ",
"                ",
"                ",
"                ",
"                ",
"                "};
