/* XPM */
static const char * bullet_star_xpm[] = {
"16 16 28 1",
" 	c None",
".	c #F6D04D",
"+	c #F6CC3F",
"@	c #F8D252",
"#	c #F8D766",
"$	c #F8D259",
"%	c #F5C426",
"&	c #F8D962",
"*	c #F9D86A",
"=	c #F8DA73",
"-	c #FAE08B",
";	c #F9DD82",
">	c #F7CE51",
",	c #F4C332",
"'	c #F3B71C",
")	c #F8DA74",
"!	c #FAE08C",
"~	c #F9DD83",
"{	c #F6D054",
"]	c #F3BB1C",
"^	c #F7D04C",
"/	c #F9DE83",
"(	c #F9D97A",
"_	c #F4C12C",
":	c #F7CF4D",
"<	c #F3C01F",
"[	c #F4C333",
"}	c #F5C72F",
"                ",
"                ",
"                ",
"                ",
"                ",
"       .+       ",
"      @#$%      ",
"    &*=-;>,'    ",
"     @)!~{]     ",
"      ^/(_      ",
"      :%<[      ",
"      }  '      ",
"                ",
"                ",
"                ",
"                "};
