/* XPM */
static const char * bullet_add_xpm[] = {
"16 16 26 1",
" 	c None",
".	c #6E9458",
"+	c #668E4F",
"@	c #598440",
"#	c #688F51",
"$	c #81AB61",
"%	c #B4D495",
"&	c #D0E6BA",
"*	c #8FBB6A",
"=	c #578F2D",
"-	c #376B19",
";	c #5D8744",
">	c #B1D390",
",	c #B1D692",
"'	c #FFFFFF",
")	c #8CBC65",
"!	c #8FBC67",
"~	c #4C7B31",
"{	c #B6D49C",
"]	c #B2D295",
"^	c #396C1B",
"/	c #8BBA62",
"(	c #87BA60",
"_	c #87B960",
":	c #538C28",
"<	c #8DBA64",
"                ",
"                ",
"                ",
"                ",
"                ",
"      .+@       ",
"    #$%&*=-     ",
"    ;>,')!-     ",
"    ~{''']-     ",
"    ^/('_!-     ",
"    -:<]<:-     ",
"     -----      ",
"                ",
"                ",
"                ",
"                "};
