/* XPM */
static const char * bullet_pink_xpm[] = {
"16 16 31 1",
" 	c None",
".	c #FF47FE",
"+	c #FC46FB",
"@	c #F846F7",
"#	c #EF46F2",
"$	c #FDA2FE",
"%	c #FCCCFA",
"&	c #FBC7F9",
"*	c #F3A0F4",
"=	c #DE46E2",
"-	c #FB46FA",
";	c #FAA1F5",
">	c #F895F5",
",	c #F8AFF7",
"'	c #D346D9",
")	c #F246F4",
"!	c #FAC1F9",
"~	c #F897F4",
"{	c #F790F5",
"]	c #F5A7F6",
"^	c #C846CF",
"/	c #EA46EC",
"(	c #F29FF3",
"_	c #F8AEF6",
":	c #F6A6F4",
"<	c #EA9DEC",
"[	c #B146BB",
"}	c #D746DC",
"|	c #CE46D4",
"1	c #C346CA",
"2	c #AE46B8",
"                ",
"                ",
"                ",
"                ",
"                ",
"      .+@#      ",
"     .$%&*=     ",
"     -%;>,'     ",
"     )!~{]^     ",
"     /(_:<[     ",
"      }|12      ",
"                ",
"                ",
"                ",
"                ",
"                "};
