/* XPM */
static const char * camera_small_xpm[] = {
"16 16 87 1",
" 	c None",
".	c #7B7B7B",
"+	c #7A7A7A",
"@	c #797979",
"#	c #787878",
"$	c #777777",
"%	c #727272",
"&	c #6C6C6C",
"*	c #646464",
"=	c #C8C8C8",
"-	c #A3A3A3",
";	c #979797",
">	c #494949",
",	c #F9E0A4",
"'	c #F3BE41",
")	c #676767",
"!	c #707070",
"~	c #4F4F4F",
"{	c #828282",
"]	c #999999",
"^	c #C9C9C9",
"/	c #D7D7D7",
"(	c #D1D1D1",
"_	c #B6B6B6",
":	c #7E7E7E",
"<	c #AEAEAE",
"[	c #868686",
"}	c #808080",
"|	c #444444",
"1	c #8F8F8F",
"2	c #C7C7C7",
"3	c #7CAADB",
"4	c #348ADD",
"5	c #71A2D2",
"6	c #686868",
"7	c #A1A1A1",
"8	c #5F5F5F",
"9	c #3F3F3F",
"0	c #969696",
"a	c #D0D0D0",
"b	c #3387DD",
"c	c #2588E4",
"d	c #258AE4",
"e	c #338EDD",
"f	c #A6A6A6",
"g	c #5A5A5A",
"h	c #565656",
"i	c #747474",
"j	c #3B3B3B",
"k	c #8C8C8C",
"l	c #C3C3C3",
"m	c #3286DB",
"n	c #2489E4",
"o	c #258DE5",
"p	c #3290DE",
"q	c #909090",
"r	c #505050",
"s	c #919191",
"t	c #4D4D4D",
"u	c #6D6D6D",
"v	c #373737",
"w	c #A0A0A0",
"x	c #6997C9",
"y	c #318ADB",
"z	c #318EDB",
"A	c #5E94BF",
"B	c #6B6B6B",
"C	c #888888",
"D	c #464646",
"E	c #363636",
"F	c #848484",
"G	c #929292",
"H	c #858585",
"I	c #656565",
"J	c #4A4A4A",
"K	c #606060",
"L	c #767676",
"M	c #5E5E5E",
"N	c #313131",
"O	c #424242",
"P	c #434343",
"Q	c #3D3D3D",
"R	c #323232",
"S	c #2D2D2D",
"T	c #2C2C2C",
"U	c #2B2B2B",
"V	c #2A2A2A",
"                ",
"                ",
"                ",
"                ",
"  ..++@#$% &*   ",
"  $=-;>,'>)@!~  ",
"  {]^/(_:<-[}|  ",
"  123445-678.9  ",
"  0abcdefg]hij  ",
"  klmnopqrstuv  ",
"  @wxyzAB>CD6E  ",
"  *)FGHIJKLIMN  ",
"  JOPOQvRSTUVV  ",
"                ",
"                ",
"                "};
