/* XPM */
static const char * cart_xpm[] = {
"16 16 93 2",
"  	g None",
". 	g #A3A3A3",
"+ 	g #9E9E9E",
"@ 	g #9A9A9A",
"# 	g #C5C5C5",
"$ 	g #C3C3C3",
"% 	g #C0C0C0",
"& 	g #BDBDBD",
"* 	g #BABABA",
"= 	g #B7B7B7",
"- 	g #B3B3B3",
"; 	g #AFAFAF",
"> 	g #ABABAB",
", 	g #A7A7A7",
"' 	g #A2A2A2",
") 	g #FBFBFB",
"! 	g #E4E4E4",
"~ 	g #909090",
"{ 	g #C4C4C4",
"] 	g #FCFCFC",
"^ 	g #F9F9F9",
"/ 	g #F3F3F3",
"( 	g #9D9D9D",
"_ 	g #F1F1F1",
": 	g #D8D8D8",
"< 	g #8F8F8F",
"[ 	g #C2C2C2",
"} 	g #E3E3E3",
"| 	g #C7C7C7",
"1 	g #E1E1E1",
"2 	g #DFDFDF",
"3 	g #BBBBBB",
"4 	g #DBDBDB",
"5 	g #B4B4B4",
"6 	g #ACACAC",
"7 	g #D4D4D4",
"8 	g #BCBCBC",
"9 	g #C6C6C6",
"0 	g #C1C1C1",
"a 	g #A5A5A5",
"b 	g #B8B8B8",
"c 	g #D2D2D2",
"d 	g #DEDEDE",
"e 	g #D7D7D7",
"f 	g #A4A4A4",
"g 	g #D0D0D0",
"h 	g #898989",
"i 	g #B0B0B0",
"j 	g #F4F4F4",
"k 	g #B9B9B9",
"l 	g #B2B2B2",
"m 	g #9C9C9C",
"n 	g #7E7E7E",
"o 	g #CACACA",
"p 	g #DADADA",
"q 	g #AAAAAA",
"r 	g #D3D3D3",
"s 	g #9B9B9B",
"t 	g #CCCCCC",
"u 	g #787878",
"v 	g #A1A1A1",
"w 	g #989898",
"x 	g #939393",
"y 	g #8A8A8A",
"z 	g #858585",
"A 	g #818181",
"B 	g #7F7F7F",
"C 	g #B1B1B1",
"D 	g #747474",
"E 	g #737373",
"F 	g #6F6F6F",
"G 	g #979797",
"H 	g #929292",
"I 	g #8D8D8D",
"J 	g #888888",
"K 	g #848484",
"L 	g #7B7B7B",
"M 	g #767676",
"N 	g #727272",
"O 	g #6A6A6A",
"P 	g #8C8C8C",
"Q 	g #6D6D6D",
"R 	g #666666",
"S 	g #C9C9C9",
"T 	g #A6A6A6",
"U 	g #797979",
"V 	g #757575",
"W 	g #717171",
"X 	g #999999",
"Y 	g #959595",
"Z 	g #626262",
"` 	g #868686",
" .	g #656565",
"                                ",
"                        . + @   ",
"# # $ % & * = - ; > , ' # ) ! ~ ",
"{ ] ^ ^ ^ ^ ^ ^ ^ ^ / ( _ : <   ",
"[ : } | 1 [ 2 3 4 5 : 6 7 >     ",
"  8 9   0   3   -   6   a @     ",
"  b c % d * 4 - e 6 7 f g h     ",
"    i j k   l   >   f   m n     ",
"      o p l e q r . g s t u     ",
"      v ( w x < y z A B C D     ",
"                        E F     ",
"    s G H I J K B L M N   O     ",
"        P             Q   R     ",
"    ~ 6 S T n U V W X # Y Z     ",
"      ` A              .Z       ",
"                                "};
