/* XPM */
static const char * drink_xpm[] = {
"16 16 104 2",
"  	c None",
". 	c #C0C0C0",
"+ 	c #BEBEBE",
"@ 	c #BCBCBC",
"# 	c #BABABA",
"$ 	c #B9B9B9",
"% 	c #B7B7B7",
"& 	c #B5B5B5",
"* 	c #B3B3B3",
"= 	c #C3C3C3",
"- 	c #CCCCCC",
"; 	c #D3D3D3",
"> 	c #D7D7D7",
", 	c #D6D6D6",
"' 	c #D5D5D5",
") 	c #CECECE",
"! 	c #C5C5C5",
"~ 	c #B6B6B6",
"{ 	c #AAAAAA",
"] 	c #C1C1C1",
"^ 	c #F4F4F4",
"/ 	c #E6E6E6",
"( 	c #DADADA",
"_ 	c #D2D2D2",
": 	c #CBCBCB",
"< 	c #E7E7E7",
"[ 	c #EFEFEF",
"} 	c #A8A8A8",
"| 	c #DFDFDF",
"1 	c #F3F3F3",
"2 	c #C2D9EB",
"3 	c #B0D4EE",
"4 	c #AED7F6",
"5 	c #ADDAFC",
"6 	c #ADD9FC",
"7 	c #A9D3F4",
"8 	c #A6CCE9",
"9 	c #B9D1E4",
"0 	c #EFF1F2",
"a 	c #A6A6A6",
"b 	c #D4D6D8",
"c 	c #A4C6E0",
"d 	c #A2CAE9",
"e 	c #A6D1F3",
"f 	c #ABD7FA",
"g 	c #AAD7FA",
"h 	c #A1CFF0",
"i 	c #95C1E3",
"j 	c #8FB9D8",
"k 	c #A9BAC8",
"l 	c #A5A5A5",
"m 	c #B8B8B8",
"n 	c #CED2D5",
"o 	c #A1BED4",
"p 	c #89AECA",
"q 	c #7FA7C6",
"r 	c #78A2C3",
"s 	c #75A0C2",
"t 	c #84ABC8",
"u 	c #AFBEC9",
"v 	c #CFD1D3",
"w 	c #A0BDD3",
"x 	c #7EA7C5",
"y 	c #76A1C2",
"z 	c #87ACC9",
"A 	c #B4C0CA",
"B 	c #AFAFAF",
"C 	c #CDCECF",
"D 	c #BED0DE",
"E 	c #AEC6D8",
"F 	c #B7C2CA",
"G 	c #ABABAB",
"H 	c #FAFAFA",
"I 	c #A9A9A9",
"J 	c #CACACA",
"K 	c #A2A2A2",
"L 	c #DEDEDE",
"M 	c #C4C4C4",
"N 	c #A0A0A0",
"O 	c #B0B0B0",
"P 	c #E4E4E4",
"Q 	c #B1B1B1",
"R 	c #9F9F9F",
"S 	c #989898",
"T 	c #D4D4D4",
"U 	c #F9F9F9",
"V 	c #F5F5F5",
"W 	c #E5E5E5",
"X 	c #E8E8E8",
"Y 	c #BDBDBD",
"Z 	c #949494",
"` 	c #C8C8C8",
" .	c #DBDBDB",
"..	c #E3E3E3",
"+.	c #F6F6F6",
"@.	c #E0E0E0",
"#.	c #D0D0D0",
"$.	c #9A9A9A",
"%.	c #929292",
"&.	c #A1A1A1",
"*.	c #9D9D9D",
"=.	c #9B9B9B",
"-.	c #999999",
";.	c #969696",
"                                ",
"        . + @ # $ % & *         ",
"  = - ; > > > , > > ' ) ! ~ {   ",
"  ] ^ / ( _ ) : : ) ; ( < [ }   ",
"  . | 1 2 3 4 5 6 7 8 9 0 ) a   ",
"    @ b c d e f g h i j k l     ",
"      m n o p q r s t u l       ",
"        * v w x y z A l         ",
"          B C D E F l           ",
"            G H ^ l             ",
"            I ( J K             ",
"            a L M N             ",
"      { O . % P % Q * R S       ",
"    { T U V W W P X V U Y Z     ",
"    } Q `  ...+.+.@.#.~ $.%.    ",
"        &.R *.=.-.S ;.Z         "};
