/* XPM */
static const char * female_xpm[] = {
"16 16 79 1",
" 	c None",
".	c #E7B3E1",
"+	c #EABBE5",
"@	c #E9B9E4",
"#	c #E5AFE0",
"$	c #E4ACDE",
"%	c #EFCEEC",
"&	c #F7E3F5",
"*	c #F9E9F8",
"=	c #F9E8F8",
"-	c #F5DCF2",
";	c #EDC2E9",
">	c #DE99D8",
",	c #FAEEF9",
"'	c #FAECF9",
")	c #FAEBF9",
"!	c #F8E5F6",
"~	c #E9B5E4",
"{	c #F5DCF3",
"]	c #EBBBE7",
"^	c #E9B3E4",
"/	c #F2D1EF",
"(	c #F9E9F7",
"_	c #F1CEEE",
":	c #DB85D2",
"<	c #EAB9E6",
"[	c #E5A3DF",
"}	c #F9E8F7",
"|	c #F6DEF4",
"1	c #D97DD0",
"2	c #E7B3E2",
"3	c #E9B1E3",
"4	c #E399DB",
"5	c #F6DDF4",
"6	c #D876CE",
"7	c #E3A7DE",
"8	c #F4D9F1",
"9	c #F1CDEE",
"0	c #E49FDE",
"a	c #E398DB",
"b	c #EDC0E9",
"c	c #F8E6F6",
"d	c #EEC3EA",
"e	c #D571CC",
"f	c #EABAE5",
"g	c #F7E1F5",
"h	c #E197DA",
"i	c #DB8DD3",
"j	c #E7AEE2",
"k	c #F3D4F0",
"l	c #F8E4F6",
"m	c #F3D0EF",
"n	c #E297DA",
"o	c #D36DC9",
"p	c #DC7ED3",
"q	c #F5D9F2",
"r	c #F7E0F5",
"s	c #D86BCE",
"t	c #D77ECF",
"u	c #DA7BD1",
"v	c #DA75D0",
"w	c #F4D6F1",
"x	c #D769CC",
"y	c #D66BCB",
"z	c #D36EC8",
"A	c #D979D0",
"B	c #F8E2F6",
"C	c #F6DDF3",
"D	c #F2CFEE",
"E	c #D46CCA",
"F	c #D671CD",
"G	c #F3D3F0",
"H	c #F2D0EE",
"I	c #D56CCA",
"J	c #D36FCA",
"K	c #D56BCB",
"L	c #D36EC9",
"M	c #F1CFEE",
"N	c #D26EC8",
"      .+@#      ",
"    $%&*=-;>    ",
"    %*,'))!~    ",
"   .&'{]^/(_:   ",
"   @*)<  [}|1   ",
"   2=)3  4}56   ",
"   78(90abcde   ",
"    fg}}cc{h    ",
"    ijk!lmno    ",
"      pqrs      ",
"    tuvw5xyz    ",
"    AkwBgCDE    ",
"    FkkrrGHI    ",
"    JKxGGxKL    ",
"      KMDK      ",
"      NIIL      "};
