/* XPM */
static const char * flag_yellow_xpm[] = {
"16 16 110 2",
"  	c None",
". 	c #B6A552",
"+ 	c #C5A226",
"@ 	c #C39F24",
"# 	c #A39A5C",
"$ 	c #886534",
"% 	c #87581D",
"& 	c #CD9502",
"* 	c #E9C32D",
"= 	c #F8EDC0",
"- 	c #F5E39B",
"; 	c #E4B706",
"> 	c #C09905",
", 	c #FBF7EF",
"' 	c #BB8436",
") 	c #B5AA5C",
"! 	c #C89207",
"~ 	c #CA9000",
"{ 	c #CB9200",
"] 	c #CC9300",
"^ 	c #F1D97C",
"/ 	c #F9F4CC",
"( 	c #FBF8DF",
"_ 	c #F7F1BE",
": 	c #F5EEB5",
"< 	c #C2B6A0",
"[ 	c #E2BC86",
"} 	c #A4722E",
"| 	c #BCAB49",
"1 	c #F3DD85",
"2 	c #F4DF8B",
"3 	c #F4DE86",
"4 	c #F7E7AA",
"5 	c #F9EDBD",
"6 	c #F2EA9F",
"7 	c #F8F2C4",
"8 	c #EEE380",
"9 	c #EDE073",
"0 	c #976E35",
"a 	c #E4C18F",
"b 	c #8F5F21",
"c 	c #C6AF3A",
"d 	c #EBC42A",
"e 	c #F0D566",
"f 	c #F5EEB2",
"g 	c #F5EEB3",
"h 	c #EEE37E",
"i 	c #E0D14C",
"j 	c #AC7935",
"k 	c #DBAF6E",
"l 	c #AAA97D",
"m 	c #D1B227",
"n 	c #F4DE89",
"o 	c #EBC52F",
"p 	c #ECC733",
"q 	c #F0D567",
"r 	c #F5E192",
"s 	c #F6F0BD",
"t 	c #F2EAA0",
"u 	c #ECE377",
"v 	c #DDD483",
"w 	c #C08C42",
"x 	c #DFB77D",
"y 	c #AEA96D",
"z 	c #EFD97E",
"A 	c #F0D362",
"B 	c #ECC839",
"C 	c #ECC83B",
"D 	c #F1D66B",
"E 	c #F5E297",
"F 	c #F9F6D5",
"G 	c #F4ECA9",
"H 	c #F2EB9D",
"I 	c #D0C789",
"J 	c #D6A256",
"K 	c #C79246",
"L 	c #B5A956",
"M 	c #F3DC85",
"N 	c #EBC222",
"O 	c #F0D361",
"P 	c #F8EAB3",
"Q 	c #EDE181",
"R 	c #DAC92A",
"S 	c #DCCC17",
"T 	c #CFA121",
"U 	c #B07E3A",
"V 	c #BEAB43",
"W 	c #F2DB7D",
"X 	c #F5E090",
"Y 	c #F4DF8E",
"Z 	c #F6E5A3",
"` 	c #E5B909",
" .	c #CD9702",
"..	c #CAB659",
"+.	c #CDD3B5",
"@.	c #A3BDAA",
"#.	c #B18106",
"$.	c #D49E53",
"%.	c #9A6A2B",
"&.	c #B2A45B",
"*.	c #C5920D",
"=.	c #CA9102",
"-.	c #C99002",
";.	c #C89208",
">.	c #B89B3E",
",.	c #9C6B2C",
"'.	c #B1803C",
").	c #CA974D",
"!.	c #BE8C45",
"~.	c #AC7B38",
"                                ",
"              . + @ # $ % %     ",
"            & * = - ; > , ' %   ",
"  ) ! ~ { ] ^ / ( _ : < [ }     ",
"  | 1 2 3 4 5 6 7 8 9 0 a b     ",
"  c 1 d d e 2 f g h i j k %     ",
"l m n o p q r s t u v w x %     ",
"y z A B C D E F G H I J K %     ",
"L M d N O E P Q R S T J U %     ",
"V W X Y Z `  ...+.@.#.$.%.      ",
"&.*.=.-.;.>.        ,.J %       ",
"                  % '.J %       ",
"                  % ).J %       ",
"                  % J !.%       ",
"                  % J ~.        ",
"                  % % %         "};
