/* XPM */
static const char * flag_purple_xpm[] = {
"16 16 110 2",
"  	c None",
". 	c #9860BF",
"+ 	c #A059D5",
"@ 	c #BD72F2",
"# 	c #A471E2",
"$ 	c #886534",
"% 	c #87581D",
"& 	c #A943F1",
"* 	c #C479FD",
"= 	c #EED7FE",
"- 	c #EACFFF",
"; 	c #C778FF",
"> 	c #A865D2",
", 	c #FBF7EF",
"' 	c #BB8436",
") 	c #B740FA",
"! 	c #B63FFA",
"~ 	c #B53EFA",
"{ 	c #B33EFA",
"] 	c #B13DFA",
"^ 	c #DAACFE",
"/ 	c #F2E1FF",
"( 	c #F7EDFF",
"_ 	c #F2E2FF",
": 	c #F0DEFF",
"< 	c #C0B4A0",
"[ 	c #E2BC86",
"} 	c #A4722E",
"| 	c #B442FC",
"1 	c #DFB4FF",
"2 	c #DFB7FF",
"3 	c #DDB4FF",
"4 	c #E8CAFF",
"5 	c #EDD6FF",
"6 	c #E7C8FF",
"7 	c #F0DCFF",
"8 	c #E6C6FF",
"9 	c #E3BFFF",
"0 	c #976E35",
"a 	c #E4C18F",
"b 	c #8F5F21",
"c 	c #AF44FD",
"d 	c #C67CFF",
"e 	c #C57BFF",
"f 	c #D6A0FF",
"g 	c #EBD3FF",
"h 	c #ECD3FF",
"i 	c #E5C5FF",
"j 	c #D6A4FD",
"k 	c #AC7935",
"l 	c #DBAF6E",
"m 	c #B14DFF",
"n 	c #DEB5FF",
"o 	c #C77EFF",
"p 	c #C781FF",
"q 	c #D6A1FF",
"r 	c #E1BBFF",
"s 	c #EED9FF",
"t 	c #E7C9FF",
"u 	c #E5C3FF",
"v 	c #DBBCF4",
"w 	c #C08C43",
"x 	c #DFB77D",
"y 	c #A74EDB",
"z 	c #D9AAFF",
"A 	c #D49DFF",
"B 	c #CA84FF",
"C 	c #CA86FF",
"D 	c #D6A3FF",
"E 	c #F4E7FF",
"F 	c #E9CDFF",
"G 	c #CEB7E1",
"H 	c #D39D7A",
"I 	c #C79246",
"J 	c #B244F3",
"K 	c #DEB3FF",
"L 	c #C176FF",
"M 	c #D39CFF",
"N 	c #E2BEFF",
"O 	c #EAD0FF",
"P 	c #DFB5FE",
"Q 	c #C17BF7",
"R 	c #C176FC",
"S 	c #BF82EF",
"T 	c #D196A3",
"U 	c #B07E3A",
"V 	c #B643FC",
"W 	c #DCADFF",
"X 	c #E0BAFF",
"Y 	c #E0B9FF",
"Z 	c #E5C4FF",
"` 	c #BB64FD",
" .	c #AA44F4",
"..	c #B175DC",
"+.	c #C185ED",
"@.	c #2B1C28",
"#.	c #D29879",
"$.	c #9A6A2B",
"%.	c #9A5CC2",
"&.	c #AA4DE2",
"*.	c #AF43F4",
"=.	c #AE43F2",
"-.	c #A54AE5",
";.	c #975BC1",
">.	c #9C6B2C",
",.	c #D6A256",
"'.	c #B1803C",
").	c #CA974D",
"!.	c #BE8C45",
"~.	c #AC7B38",
"                                ",
"              . + @ # $ % %     ",
"            & * = - ; > , ' %   ",
"  ) ! ~ { ] ^ / ( _ : < [ }     ",
"  | 1 2 3 4 5 6 7 8 9 0 a b     ",
"  c 1 d e f 2 g h i j k l %     ",
"  m n o p q r s t u v w x %     ",
"y z A B C D 9 E F h G H I %     ",
"J K e L M N O P Q R S T U %     ",
"V W X Y Z `  ...  +.@.#.$.      ",
"%.&.*.=.-.;.        >.,.%       ",
"                  % '.,.%       ",
"                  % ).,.%       ",
"                  % ,.!.%       ",
"                  % ,.~.        ",
"                  % % %         "};
