/* XPM */
static const char * flag_green_xpm[] = {
"16 16 107 2",
"  	c None",
". 	c #507A51",
"+ 	c #548D49",
"@ 	c #4C984C",
"# 	c #478856",
"$ 	c #886534",
"% 	c #87581D",
"& 	c #52A035",
"* 	c #79B75E",
"= 	c #C2E9BF",
"- 	c #B6E4AE",
"; 	c #80D16D",
"> 	c #539447",
", 	c #FBF7EF",
"' 	c #BB8436",
") 	c #478787",
"! 	c #4CA534",
"~ 	c #4CA631",
"{ 	c #4DA631",
"] 	c #4DA630",
"^ 	c #96C282",
"/ 	c #C6EBC3",
"( 	c #CBEDC9",
"_ 	c #BFE9B9",
": 	c #BCE7B7",
"< 	c #C0B4A0",
"[ 	c #E2BC86",
"} 	c #A4722E",
"| 	c #4B8C59",
"1 	c #C0E9BD",
"2 	c #BCE7B8",
"3 	c #C3EBC1",
"4 	c #C8ECC6",
"5 	c #B0E3A8",
"6 	c #BEE8BA",
"7 	c #A4DF99",
"8 	c #9EDCA7",
"9 	c #976E35",
"0 	c #E4C18F",
"a 	c #8F5F21",
"b 	c #A9E0A1",
"c 	c #78CF64",
"d 	c #92D884",
"e 	c #A3DE97",
"f 	c #B7E6B0",
"g 	c #B7E6B2",
"h 	c #A3DF98",
"i 	c #96CF8E",
"j 	c #AC7935",
"k 	c #DBAF6E",
"l 	c #5B9946",
"m 	c #ABE1A2",
"n 	c #7ACF66",
"o 	c #7CCF68",
"p 	c #A5DF9B",
"q 	c #BAE7B6",
"r 	c #A1DE95",
"s 	c #A2C99D",
"t 	c #C08C42",
"u 	c #DFB77D",
"v 	c #3C7BA0",
"w 	c #A9D3A0",
"x 	c #9BDB90",
"y 	c #7DD06A",
"z 	c #7ED16C",
"A 	c #94D986",
"B 	c #A7E09E",
"C 	c #C7ECC5",
"D 	c #B9E6B4",
"E 	c #90AB8D",
"F 	c #D6A256",
"G 	c #C79246",
"H 	c #3084A1",
"I 	c #B0E3AA",
"J 	c #77CE63",
"K 	c #74CD5F",
"L 	c #8ED680",
"M 	c #AFE3A7",
"N 	c #B9E7B4",
"O 	c #ABE0A3",
"P 	c #75C568",
"Q 	c #70C777",
"R 	c #ACB3AC",
"S 	c #B07E3A",
"T 	c #3B9477",
"U 	c #A5DE9B",
"V 	c #AAE0A3",
"W 	c #B1E3AB",
"X 	c #7BCD6A",
"Y 	c #4CB335",
"Z 	c #63A76A",
"` 	c #98D7B6",
" .	c #78BCB3",
"..	c #321D16",
"+.	c #D49E53",
"@.	c #9A6A2B",
"#.	c #428559",
"$.	c #45A33C",
"%.	c #47B233",
"&.	c #47B133",
"*.	c #47A538",
"=.	c #44864D",
"-.	c #9C6B2C",
";.	c #B1803C",
">.	c #CA974D",
",.	c #BE8C45",
"'.	c #AC7B38",
"                                ",
"              . + @ # $ % %     ",
"            & * = - ; > , ' %   ",
"  ) ! ~ { ] ^ / ( _ : < [ }     ",
"  | 1 2 : 3 4 5 6 7 8 9 0 a     ",
"  > b c c d e f g h i j k %     ",
"  l m n o d p q 5 r s t u %     ",
"v w x y z A B C D f E F G %     ",
"H I J K L M N O P Q R F S %     ",
"T U V V W X Y Z `  ...+.@.      ",
"#.$.%.&.*.=.        -.F %       ",
"                  % ;.F %       ",
"                  % >.F %       ",
"                  % F ,.%       ",
"                  % F '.        ",
"                  % % %         "};
