/* XPM */
static const char * green_flag_xpm[] = {
"16 16 32 1",
" 	c None",
".	c #58CC1C",
"+	c #6AE643",
"@	c #673800",
"#	c #51AE1B",
"$	c #65E73E",
"%	c #49D324",
"&	c #A7F58B",
"*	c #88E867",
"=	c #D7F5CD",
"-	c #9CF27D",
";	c #C9F5B9",
">	c #52D92C",
",	c #76E157",
"'	c #4DD429",
")	c #4CD824",
"!	c #47D420",
"~	c #52D72E",
"{	c #32831F",
"]	c #56DF24",
"^	c #59D832",
"/	c #6ADF4B",
"(	c #96E87B",
"_	c #60DA3F",
":	c #E9FDE2",
"<	c #50DA27",
"[	c #307F1D",
"}	c #5FE733",
"|	c #51921B",
"1	c #B17645",
"2	c #593619",
"3	c #FFFFFF",
"                ",
" 33333333333333 ",
" 3(**,/+$}}2223 ",
" 3*:==;;&&-^123 ",
" 3,=^~~><<<#123 ",
" 3/;~'''))<{123 ",
" 3_&''%%%!){123 ",
" 3^-'%%%!!!{123 ",
" 3>-%%%!!!![123 ",
" 3<*++$$$$$@123 ",
" 3]..#####|2123 ",
" 33333333332123 ",
"          32123 ",
"          32123 ",
"          32223 ",
"          33333 "};
