/* XPM */
static const char * heart_xpm[] = {
"16 16 140 2",
"  	c None",
". 	c #ED8B8B",
"+ 	c #EA8484",
"@ 	c #FCB3B3",
"# 	c #FCBBB9",
"$ 	c #FCBDBC",
"% 	c #FAB1AF",
"& 	c #F5A1A1",
"* 	c #EF9090",
"= 	c #F4A2A0",
"- 	c #FBC6C3",
"; 	c #F8B9B6",
"> 	c #ED8987",
", 	c #E36F6F",
"' 	c #FCB2B0",
") 	c #FED9D6",
"! 	c #FFDBD9",
"~ 	c #FFD6D4",
"{ 	c #FFDCDA",
"] 	c #FABFBD",
"^ 	c #F19595",
"/ 	c #EE8F8F",
"( 	c #F7B2B0",
"_ 	c #FFD4D2",
": 	c #FFC4C0",
"< 	c #FFC6C3",
"[ 	c #EE8F8D",
"} 	c #DD6060",
"| 	c #FBB2B2",
"1 	c #FECDCA",
"2 	c #FFCFCC",
"3 	c #FFB5B4",
"4 	c #FFB2B2",
"5 	c #FFAEAE",
"6 	c #FFCFCB",
"7 	c #FDCBC6",
"8 	c #FCC3C0",
"9 	c #FFCBC9",
"0 	c #FF9F9F",
"a 	c #FF9D9D",
"b 	c #FF9898",
"c 	c #FFA5A2",
"d 	c #FCCAC7",
"e 	c #DA5858",
"f 	c #F9ADAD",
"g 	c #FEDBD8",
"h 	c #FFB9B7",
"i 	c #FFB0B0",
"j 	c #FFAFAE",
"k 	c #FFABAB",
"l 	c #FFA6A6",
"m 	c #FFB8B5",
"n 	c #FF9C9C",
"o 	c #FF9C9A",
"p 	c #FF9696",
"q 	c #FF9694",
"r 	c #FF9190",
"s 	c #FDC8C5",
"t 	c #D75050",
"u 	c #F7A8A8",
"v 	c #FED8D5",
"w 	c #FFB1B0",
"x 	c #FFA9A9",
"y 	c #FFA8A7",
"z 	c #FFA2A2",
"A 	c #FF9A9A",
"B 	c #FF9494",
"C 	c #FF9292",
"D 	c #FF918F",
"E 	c #FF8A8A",
"F 	c #FF8887",
"G 	c #FDC3BF",
"H 	c #D54949",
"I 	c #F5A2A2",
"J 	c #FDD4D1",
"K 	c #FFADAB",
"L 	c #FFA1A0",
"M 	c #FF9393",
"N 	c #FF9090",
"O 	c #FF8C8C",
"P 	c #FF8989",
"Q 	c #FF8585",
"R 	c #FF8281",
"S 	c #FF8683",
"T 	c #FDC5C1",
"U 	c #D24242",
"V 	c #F39B9B",
"W 	c #F9ADAA",
"X 	c #FFC9C5",
"Y 	c #FF8B8B",
"Z 	c #FF8A88",
"` 	c #FF8484",
" .	c #FF8080",
"..	c #FF7D7C",
"+.	c #FF7574",
"@.	c #FFABA5",
"#.	c #E98583",
"$.	c #D03B3B",
"%.	c #EE8E8E",
"&.	c #F7ADAA",
"*.	c #FFC5C1",
"=.	c #FF9A97",
"-.	c #FF8382",
";.	c #FF807F",
">.	c #FF7675",
",.	c #FF827E",
"'.	c #FFB1AB",
").	c #EF9593",
"!.	c #CF3A3A",
"~.	c #E98080",
"{.	c #F2918D",
"].	c #FDC4C0",
"^.	c #FFAEA6",
"/.	c #FF7A79",
"(.	c #FF7B7A",
"_.	c #FF7877",
":.	c #FF6E6D",
"<.	c #FF9D95",
"[.	c #FEBEB9",
"}.	c #E87672",
"|.	c #CF3939",
"1.	c #E37171",
"2.	c #E16A6A",
"3.	c #F29C99",
"4.	c #FFB7B2",
"5.	c #FF7D79",
"6.	c #FF6F6D",
"7.	c #F19895",
"8.	c #D13E3E",
"9.	c #CF3838",
"0.	c #DB5B5B",
"a.	c #EB7C79",
"b.	c #FFBFBA",
"c.	c #FFBCB6",
"d.	c #EB807C",
"e.	c #D03D3D",
"f.	c #D64D4D",
"g.	c #D44747",
"h.	c #E56460",
"i.	c #D03C3C",
"                                ",
"                      . +       ",
"    @ # $ % &     * = - ; > ,   ",
"  ' ) ! ~ { ] ^ / ( _ : < ~ [ } ",
"| 1 2 3 4 5 6 7 8 9 0 a b c d e ",
"f g h i j k l 3 m n o p q r s t ",
"u v w x y z 0 A p B C D E F G H ",
"I J K L a A p M N O P Q R S T U ",
"V W X q B C D Y Z `  ...+.@.#.$.",
"  %.&.*.=.Q Q -.;...>.,.'.).!.  ",
"    ~.{.].^./.(._.:.<.[.}.|.    ",
"      1.2.3.4.5.6.@.7.8.9.      ",
"          0.a.b.c.d.e.          ",
"            f.g.h.i.            ",
"                                ",
"                                "};
