/* XPM */
static const char * house_xpm[] = {
"16 16 132 2",
"  	c None",
". 	c #B3702D",
"+ 	c #B5732E",
"@ 	c #B77730",
"# 	c #BA7A32",
"$ 	c #C28B48",
"% 	c #D0A66A",
"& 	c #D1A96E",
"* 	c #C69351",
"= 	c #BB8237",
"- 	c #B77630",
"; 	c #C38D4B",
"> 	c #D2AA70",
", 	c #D2AA71",
"' 	c #D2AC74",
") 	c #D3AF7A",
"! 	c #C49756",
"~ 	c #B78239",
"{ 	c #B87931",
"] 	c #C4904D",
"^ 	c #D3AB73",
"/ 	c #C69452",
"( 	c #BA833B",
"_ 	c #B9853C",
": 	c #C29556",
"< 	c #CFAC7D",
"[ 	c #BC9155",
"} 	c #AC7938",
"| 	c #BA7A33",
"1 	c #C69150",
"2 	c #D3AD76",
"3 	c #C69554",
"4 	c #BC8941",
"5 	c #D5D4D2",
"6 	c #B48341",
"7 	c #BB8D55",
"8 	c #C7A577",
"9 	c #B28450",
"0 	c #9E6833",
"a 	c #BA7E34",
"b 	c #C69352",
"c 	c #D3AE79",
"d 	c #C49755",
"e 	c #BA8742",
"f 	c #CCCBCA",
"g 	c #EDEDED",
"h 	c #EFEFEF",
"i 	c #DCDBD9",
"j 	c #A6763D",
"k 	c #AE804D",
"l 	c #BD9A6B",
"m 	c #A27547",
"n 	c #8B542D",
"o 	c #BB7F36",
"p 	c #C69553",
"q 	c #C49757",
"r 	c #BA8743",
"s 	c #D0CFCD",
"t 	c #EEEEEE",
"u 	c #DBDAD9",
"v 	c #976438",
"w 	c #9F7044",
"x 	c #B18C5C",
"y 	c #94643C",
"z 	c #7A4126",
"A 	c #BA8439",
"B 	c #C29657",
"C 	c #B3803E",
"D 	c #E0DEDC",
"E 	c #E3E1DF",
"F 	c #814B2D",
"G 	c #905F3A",
"H 	c #793E25",
"I 	c #B07E38",
"J 	c #918F8D",
"K 	c #F6F6F6",
"L 	c #747474",
"M 	c #767676",
"N 	c #777777",
"O 	c #787878",
"P 	c #F4F4F4",
"Q 	c #8D8B8A",
"R 	c #77412A",
"S 	c #8B8B8B",
"T 	c #F1F1F1",
"U 	c #999999",
"V 	c #9C9C9C",
"W 	c #7C7C7C",
"X 	c #858585",
"Y 	c #F0F0F0",
"Z 	c #7B7B7B",
"` 	c #9E9E9E",
" .	c #A1A1A1",
"..	c #818181",
"+.	c #717171",
"@.	c #56A14D",
"#.	c #568D50",
"$.	c #A4C1A2",
"%.	c #7E7E7E",
"&.	c #A4A4A4",
"*.	c #A6A6A6",
"=.	c #A8D6A1",
"-.	c #62AF59",
";.	c #569E4D",
">.	c #499141",
",.	c #62B158",
"'.	c #70B466",
").	c #7DBF72",
"!.	c #6DB462",
"~.	c #62915E",
"{.	c #E5E5E5",
"].	c #828282",
"^.	c #A9A9A9",
"/.	c #ACACAC",
"(.	c #898989",
"_.	c #E2E2E2",
":.	c #7EBC76",
"<.	c #8FCA84",
"[.	c #80C174",
"}.	c #5EA455",
"|.	c #2F702A",
"1.	c #3B8035",
"2.	c #3F703B",
"3.	c #4D694B",
"4.	c #686868",
"5.	c #878787",
"6.	c #8C8C8C",
"7.	c #525252",
"8.	c #51724E",
"9.	c #498343",
"0.	c #3B7E36",
"a.	c #246321",
"                                ",
"            . + @ #             ",
"          + $ % & * =           ",
"        - ; > , ' ) ! ~         ",
"      { ] ^ / ( _ : < [ }       ",
"    | 1 2 3 4 5 5 6 7 8 9 0     ",
"  a b c d e f g h i j k l m n   ",
"o p ) q r s t h h h u v w x y z ",
"  A B C D g h h h h h E F G H   ",
"    I J K h L M N O h P Q R     ",
"      S T h N U V W h P M       ",
"      X Y h Z `  ...h P +.      ",
"    @.#.$.Y %.&.*.X Y =.-.;.>.  ",
",.'.).!.~.{.].^./.(._.:.<.[.}.|.",
"@.>.1.2.3.4.5.(.S 6.7.8.9.0.|.a.",
"                                "};
