/* XPM */
static const char * icon_security_xpm[] = {
"16 16 32 1",
" 	c None",
".	c #F7E492",
"+	c #F8DB78",
"@	c #FDF6DA",
"#	c #D9AF19",
"$	c #FCFCF9",
"%	c #E3B438",
"&	c #D9AB4B",
"*	c #FEF9E7",
"=	c #DFAE36",
"-	c #CA8C17",
";	c #EDCF66",
">	c #EBC34A",
",	c #F1D366",
"'	c #E6BA49",
")	c #E3C421",
"!	c #FAEEB6",
"~	c #EECB55",
"{	c #FADE87",
"]	c #F3E3BB",
"^	c #E8CC8B",
"/	c #EFCE5C",
"(	c #F9F0C9",
"_	c #E6C56F",
":	c #CD9312",
"<	c #C37F0D",
"[	c #EDC850",
"}	c #D29B1D",
"|	c #DFBD1F",
"1	c #C5830E",
"2	c #DCB61C",
"3	c #FFFFFF",
"  3    33    3  ",
" 323333|)3333#3 ",
"323222|33))2#3}3",
"3233333*@3333.:3",
"323.!(@]_.+,/{-3",
"323.!@(&-;,/[{13",
"323.@^1111}~>+13",
" 3)@(*&11-[>{13 ",
" 32*]@&1--~'+13 ",
" 3|*]@_;/=[%+<3 ",
"  $)$^.,/[=+1$  ",
"  3)*_+,~>=+<3  ",
"   32!_=='+<3   ",
"    32#{+1<3    ",
"     3$:133     ",
"       33       "};
