/* XPM */
static const char * icon_key_xpm[] = {
"16 16 24 1",
" 	c None",
".	c #CD9513",
"+	c #DFB745",
"@	c #F8E8A4",
"#	c #D4A021",
"$	c #CF9814",
"%	c #C98B11",
"&	c #DCB156",
"*	c #E6C45A",
"=	c #DEB13A",
"-	c #E0BA6F",
";	c #ECDABB",
">	c #D4A417",
",	c #D9A92F",
"'	c #DBB36D",
")	c #CC9212",
"!	c #E1B641",
"~	c #E4BC4A",
"{	c #C6870F",
"]	c #E7C14A",
"^	c #FDF9E2",
"/	c #F6E28B",
"(	c #EDCB61",
"_	c #FFFFFF",
"        ____    ",
"       _(~=,_   ",
"      _(^^^]#_  ",
"     _(^////]>_ ",
"    _(^//$$'!]{_",
"   _(^///$_;(]{_",
"   _(^////-&(]{_",
"    _(^///(((]{_",
"  ___*^//(((]{_ ",
"  _#+^(@]((]{_  ",
"___+^(@.%]]{_   ",
"_#+^(@.__{{_    ",
"_+/(@._  __     ",
"_#(@._          ",
"_+)._           ",
"____            "};
