/* XPM */
static const char * icon_clock_xpm[] = {
"16 16 16 1",
" 	c None",
".	c #ECF6FF",
"+	c #A9A385",
"@	c #DACCAC",
"#	c #C7BA92",
"$	c #41381F",
"%	c #B39F63",
"&	c #B8A87C",
"*	c #947B3E",
"=	c #706037",
"-	c #D0EAFE",
";	c #D2D3D4",
">	c #E8DAC3",
",	c #787F85",
"'	c #FEFEFE",
")	c #FFFFFF",
"      ))))      ",
"    ))****))    ",
"   '**>>>>**'   ",
"  '*>@####@@*'  ",
" )*>@#)=))&##=) ",
" )*@#))));'&#*) ",
")*>#))));$+'&%$)",
")*>#))';$,-.&%$)",
")=>#=''+$...&%$)",
")=>&'...,=--%%$)",
" )=@&...-,-+#=) ",
" )=%#+----+@%=) ",
"  '=%#+++&%%='  ",
"   '=$%%%%=='   ",
"    ))$$$$))    ",
"      ))))      "};
