/* XPM */
static const char * icon_accept_xpm[] = {
"16 16 32 1",
" 	c None",
".	c #76C347",
"+	c #4B702E",
"@	c #B3DD96",
"#	c #91D069",
"$	c #91988C",
"%	c #F9FCF7",
"&	c #CDE6B9",
"*	c #8BD258",
"=	c #83CD53",
"-	c #71BF44",
";	c #D4EDC5",
">	c #36591A",
",	c #7E936D",
"'	c #52822C",
")	c #93E657",
"!	c #89E44C",
"~	c #ECF7E5",
"{	c #A8E577",
"]	c #C2E6A9",
"^	c #5D7A46",
"/	c #7ED547",
"(	c #80CB4F",
"_	c #8CE550",
":	c #4C603C",
"<	c #718B5C",
"[	c #8BCE60",
"}	c #A4DA77",
"|	c #80D948",
"1	c #69B83E",
"2	c #526742",
"3	c #FFFFFF",
"    3333333     ",
"   3^$$$,,^3    ",
"  3<&&]{{{{'3   ",
" 3<&****==()'3  ",
"32&*===((#&[)>3 ",
"32@*==((#~3#)+3 ",
"32@===([~3;=_+3 ",
"32@[;~#;3@-._>3 ",
"32@#]%~3@--._>3 ",
"32@..#~@----!>3 ",
"32}1..----11_>3 ",
" 3:*-111111!+3  ",
"  3:*!///|!+3%  ",
"   3:'''''>33   ",
"    3333333     ",
"                "};
