/* XPM */
static const char * icon_email_xpm[] = {
"16 16 32 1",
" 	c None",
".	c #7592AD",
"+	c #B4D8FB",
"@	c #A9D4FC",
"#	c #8FBBE3",
"$	c #FAFCFD",
"%	c #DAE3EC",
"&	c #597191",
"*	c #49556B",
"=	c #D5E9FD",
"-	c #E2ECF5",
";	c #CBD3DA",
">	c #85A9C4",
",	c #6F9BC2",
"'	c #A3D0FB",
")	c #9ECDFB",
"!	c #EBF5FE",
"~	c #526079",
"{	c #A6CAEC",
"]	c #99C1E6",
"^	c #434B5C",
"/	c #91B4CF",
"(	c #99C0D6",
"_	c #8CB0D1",
":	c #293143",
"<	c #3E4555",
"[	c #BEDEFD",
"}	c #A0BDD6",
"|	c #D1E5F2",
"1	c #A5C1DA",
"2	c #7DA0BB",
"3	c #FFFFFF",
"                ",
"                ",
"3333333333333333",
"3|((/>>>2....&~3",
"3($$$$$$$$$$$;~3",
"3/$/}=[++=-/>%*3",
"3>$[{1|=!=,]'!*3",
"32$[[[___,@''!^3",
"32$[+]{]]##))%^3",
"3.-+#]+@@'##)%<3",
"3.-#{+@@@')##-<3",
"3&;--%%%%%%%%;:3",
"3.&&&~~**^^<<:~3",
"3333333333333333",
"                ",
"                "};
