/* XPM */
static const char * icon_user_xpm[] = {
"16 16 32 1",
" 	c None",
".	c #5580A6",
"+	c #709EC5",
"@	c #1E3153",
"#	c #5480A5",
"$	c #A2774A",
"%	c #5079A1",
"&	c #283D66",
"*	c #B39573",
"=	c #2D4771",
"-	c #446893",
";	c #F2E8DE",
">	c #23365C",
",	c #EFE2D6",
"'	c #527CA3",
")	c #6795BB",
"!	c #4D759D",
"~	c #C99B75",
"{	c #273C65",
"]	c #CEA583",
"^	c #8DB5D8",
"/	c #365380",
"(	c #2E4772",
"_	c #68777F",
":	c #C39468",
"<	c #385683",
"[	c #B17645",
"}	c #896132",
"|	c #E9D7C6",
"1	c #AAD0F2",
"2	c #7EACD5",
"3	c #FFFFFF",
"      3333      ",
"     3}}}}3     ",
"    3}~[[[}3    ",
"   3}][[[[[}3   ",
"   3}[||||[}3   ",
"   3$,}||}|$3   ",
"   3:;*||*|:3   ",
"   3_:||||:<3   ",
"  3.1<::::<1<3  ",
" 3.122<<<<2^1=3 ",
" 3.1222222)+2{3 ",
" 3#1%1222+1&2@3 ",
" 3#1%1222+1&2@3 ",
"  3'%111111>@3  ",
"   33!-</({33   ",
"     333333     "};
