/* XPM */
static const char * icon_home_xpm[] = {
"16 16 16 1",
" 	c None",
".	c #8E7440",
"+	c #9E8854",
"@	c #DAE8EF",
"#	c #85B1C5",
"$	c #F0E6C8",
"%	c #D9C692",
"&	c #765723",
"*	c #9CC0D0",
"=	c #94BBCC",
"-	c #F3EBD3",
";	c #C6B075",
">	c #D5B96C",
",	c #DBC27F",
"'	c #A7C9D9",
")	c #FFFFFF",
"       ))       ",
"      )==)      ",
"     )=@@#)     ",
"    )=@''@#)    ",
"   )=@''''@#)   ",
"  )=@''''''@#)  ",
" )#@''''''''@#) ",
" )#'**===#####) ",
"  )+%;;;;;;%+)  ",
"  )+-%,,,,,-.)  ",
"  )+-,,++,>$.)  ",
"  )+-,,+.>>$.)  ",
"  )+-,,..>>$&)  ",
"  )+---$$$$$&)  ",
"  )++....&&&&)  ",
"  ))))))))))))  "};
