/* XPM */
static const char * icon_alert_xpm[] = {
"16 15 32 1",
" 	c None",
".	c #FDEC86",
"+	c #FFF5DA",
"@	c #FBDC4B",
"#	c #EBC273",
"$	c #FBE05E",
"%	c #DEB23C",
"&	c #EBC57A",
"*	c #EBA227",
"=	c #EB9A14",
"-	c #EBCB8A",
";	c #FADA42",
">	c #EBC985",
",	c #FCE163",
"'	c #EBA937",
")	c #EB9E1C",
"!	c #FBDD52",
"~	c #EBC06E",
"{	c #FCDF5A",
"]	c #FBDE56",
"^	c #FEF4CE",
"/	c #EBBE69",
"(	c #EBB759",
"_	c #BC7C12",
":	c #EBB047",
"<	c #FDEFA1",
"[	c #FEF1B2",
"}	c #FDEE98",
"|	c #FEF2BF",
"1	c #FCE266",
"2	c #FFF6E3",
"3	c #FFFFFF",
"       33       ",
"      3--3      ",
"     3-22>3     ",
"    3>2112&3    ",
"    3&2112/3    ",
"   3&2111,+(3   ",
"   3#21%_,^:3   ",
"  3#211%_${|'3  ",
"  3~21,%_{][*3  ",
" 3#21,,${]!@<*3 ",
" 3~2,,$%_!@@})3 ",
"3&2,,${]!@@;;.)3",
"3&++^^|[[<}...)3",
" 3/(:'*)======3 ",
"  333333333333  "};
