/* XPM */
static const char * male_xpm[] = {
"16 16 99 2",
"  	c None",
". 	c #96BAEE",
"+ 	c #92B6EA",
"@ 	c #8EB2E6",
"# 	c #8AAEE2",
"$ 	c #85A9DE",
"% 	c #81A5DA",
"& 	c #7CA0D5",
"* 	c #91B5EA",
"= 	c #DDECFD",
"- 	c #DCEBFD",
"; 	c #DBEAFC",
"> 	c #D9EAFC",
", 	c #D8E9FC",
"' 	c #779BD0",
") 	c #8CB1E5",
"! 	c #B7CDED",
"~ 	c #D7E9FC",
"{ 	c #D6E8FC",
"] 	c #7196CB",
"^ 	c #83A7DC",
"/ 	c #C7D9F1",
"( 	c #D4E7FC",
"_ 	c #D0E1F7",
": 	c #6C90C5",
"< 	c #93B7EC",
"[ 	c #8FB3E8",
"} 	c #8BAFE4",
"| 	c #87ABE0",
"1 	c #82A7DB",
"2 	c #B0C7E7",
"3 	c #D5E8FC",
"4 	c #C7D9F0",
"5 	c #D2E6FC",
"6 	c #CDE0F7",
"7 	c #668BC0",
"8 	c #B8D0F2",
"9 	c #CFE0F7",
"0 	c #D8E7FA",
"a 	c #D6E7F9",
"b 	c #CADCF2",
"c 	c #CEDFF5",
"d 	c #B9CCE7",
"e 	c #6F93C8",
"f 	c #B4C7E3",
"g 	c #CCDEF6",
"h 	c #6186BB",
"i 	c #B8CFF2",
"j 	c #D8E9FA",
"k 	c #CBDDF3",
"l 	c #6E93C8",
"m 	c #6589BF",
"n 	c #6085BA",
"o 	c #5C81B6",
"p 	c #CFDFF6",
"q 	c #C1D4EF",
"r 	c #8FAFDE",
"s 	c #8AABDA",
"t 	c #BBCEE9",
"u 	c #D1E6FC",
"v 	c #C1D4EC",
"w 	c #698DC2",
"x 	c #8EAFDD",
"y 	c #82A2D1",
"z 	c #CFE4FC",
"A 	c #CCDFF7",
"B 	c #6388BD",
"C 	c #87ACE0",
"D 	c #D4E6F9",
"E 	c #8AAAD8",
"F 	c #7D9DCC",
"G 	c #CDE3FC",
"H 	c #C9DFF6",
"I 	c #5E83B8",
"J 	c #C7DAF1",
"K 	c #B9CCE8",
"L 	c #81A1D0",
"M 	c #7C9DCC",
"N 	c #B2C6E2",
"O 	c #CBE2FC",
"P 	c #BACDE7",
"Q 	c #597EB3",
"R 	c #A6BFE2",
"S 	c #CEE2F8",
"T 	c #CEE4FC",
"U 	c #CCE3FC",
"V 	c #CAE2FC",
"W 	c #C7DDF6",
"X 	c #91AACF",
"Y 	c #9FB9DC",
"Z 	c #BED2EB",
"` 	c #CADEF6",
" .	c #C8DDF6",
"..	c #B9CDE6",
"+.	c #91AACE",
"@.	c #6489BE",
"#.	c #6084BA",
"$.	c #5B80B5",
"%.	c #577CB1",
"                                ",
"                . + @ # $ % &   ",
"                * = - ; > , '   ",
"                ) ! > , ~ { ]   ",
"                  ^ / { ( _ :   ",
"        < [ } | 1 2 3 4 5 6 7   ",
"      8 9 0 a b c ( d e f g h   ",
"    i j > , { 3 ( k l   m n o   ",
"  * p , q r s t u v w           ",
"  ) a { x     y z A B           ",
"  C D ( E     F G H I           ",
"  1 J 5 K L M N O P Q           ",
"    R S T G U V W X             ",
"      Y Z `  ...+.              ",
"        @.#.$.%.                ",
"                                "};
