/* XPM */
static const char * money_euro_xpm[] = {
"16 16 73 1",
" 	c None",
".	c #E3C95E",
"+	c #E8D279",
"@	c #E9D17A",
"#	c #E9D178",
"$	c #E8CF71",
"%	c #DAB33D",
"&	c #E9D47D",
"*	c #EAD581",
"=	c #E8CF72",
"-	c #E0C04F",
";	c #E3C559",
">	c #E9D078",
",	c #EAD27D",
"'	c #E2C051",
")	c #E8D177",
"!	c #EAD37E",
"~	c #DDBA44",
"{	c #E5C761",
"]	c #D9AB33",
"^	c #EAD37F",
"/	c #E3C75A",
"(	c #DEBE4A",
"_	c #E5CC66",
":	c #ECD88C",
"<	c #E0BE4D",
"[	c #E0BC4C",
"}	c #E0BB4B",
"|	c #E0BB4A",
"1	c #DEB644",
"2	c #DAB73D",
"3	c #E8D175",
"4	c #EBD483",
"5	c #EBD484",
"6	c #E9CF75",
"7	c #E9CE73",
"8	c #E9CE72",
"9	c #E9CC71",
"0	c #E9CB70",
"a	c #D9A730",
"b	c #E8CE72",
"c	c #E8CD71",
"d	c #E8CD70",
"e	c #EBD27F",
"f	c #EBD17F",
"g	c #E9CB6E",
"h	c #E9C96D",
"i	c #E0BA4A",
"j	c #E5C45B",
"k	c #ECD282",
"l	c #E5C359",
"m	c #E0B446",
"n	c #DEB03F",
"o	c #E9CA72",
"p	c #E5C158",
"q	c #E3BC51",
"r	c #EBCC77",
"s	c #E5BE56",
"t	c #DAA330",
"u	c #E0AE40",
"v	c #EAC66A",
"w	c #E8C15E",
"x	c #E3BA4F",
"y	c #E9C76C",
"z	c #EAC971",
"A	c #E9C466",
"B	c #E9C668",
"C	c #EAC76F",
"D	c #E5BA52",
"E	c #DEA93A",
"F	c #E0AC40",
"G	c #E0AC3F",
"H	c #DA9D2B",
"                ",
"      .+@#$%    ",
"     &*=-;>,'   ",
"    )!~    {]   ",
"    ^/          ",
"  (_:;<[}|1     ",
" 234567890a     ",
"   b6           ",
"   c8           ",
"  def0gh        ",
"  ijklmn        ",
"    op          ",
"    qrst  uvw   ",
"     xyzABCD    ",
"       EFGH     ",
"                "};
