/* XPM */
static const char * music_xpm[] = {
"16 16 92 2",
"  	g None",
". 	g #9C9C9C",
"+ 	g #999999",
"@ 	g #959595",
"# 	g #919191",
"$ 	g #8D8D8D",
"% 	g #888888",
"& 	g #848484",
"* 	g #7F7F7F",
"= 	g #7A7A7A",
"- 	g #767676",
"; 	g #666666",
"> 	g #939393",
", 	g #D1D1D1",
"' 	g #CECECE",
") 	g #CBCBCB",
"! 	g #C8C8C8",
"~ 	g #C6C6C6",
"{ 	g #C2C2C2",
"] 	g #BFBFBF",
"^ 	g #BCBCBC",
"/ 	g #B9B9B9",
"( 	g #4A4A4A",
"_ 	g #909090",
": 	g #CDCDCD",
"< 	g #595959",
"[ 	g #505050",
"} 	g #4D4D4D",
"| 	g #494949",
"1 	g #565656",
"2 	g #B4B4B4",
"3 	g #464646",
"4 	g #8A8A8A",
"5 	g #CACACA",
"6 	g #5E5E5E",
"7 	g #5B5B5B",
"8 	g #AFAFAF",
"9 	g #404040",
"0 	g #858585",
"a 	g #C5C5C5",
"b 	g #5D5D5D",
"c 	g #AAAAAA",
"d 	g #3B3B3B",
"e 	g #C1C1C1",
"f 	g #A5A5A5",
"g 	g #373737",
"h 	g #797979",
"i 	g #545454",
"j 	g #A1A1A1",
"k 	g #323232",
"l 	g #747474",
"m 	g #B8B8B8",
"n 	g #4E4E4E",
"o 	g #4F4F4F",
"p 	g #9A9A9A",
"q 	g #2D2D2D",
"r 	g #717171",
"s 	g #B1B1B1",
"t 	g #515151",
"u 	g #6C6C6C",
"v 	g #878787",
"w 	g #272727",
"x 	g #737373",
"y 	g #898989",
"z 	g #9D9D9D",
"A 	g #484848",
"B 	g #6B6B6B",
"C 	g #979797",
"D 	g #5F5F5F",
"E 	g #222222",
"F 	g #9E9E9E",
"G 	g #B0B0B0",
"H 	g #ACACAC",
"I 	g #757575",
"J 	g #424242",
"K 	g #989898",
"L 	g #969696",
"M 	g #353535",
"N 	g #A9A9A9",
"O 	g #AEAEAE",
"P 	g #ABABAB",
"Q 	g #8B8B8B",
"R 	g #535353",
"S 	g #6E6E6E",
"T 	g #262626",
"U 	g #727272",
"V 	g #636363",
"W 	g #202020",
"X 	g #1C1C1C",
"Y 	g #3E3E3E",
"Z 	g #363636",
"` 	g #313131",
"                                ",
"          . + @ # $ % & * = - ; ",
"          > , ' ) ! ~ { ] ^ / ( ",
"          _ : & < [ } | 1 * 2 3 ",
"          4 5 6           7 8 9 ",
"          0 a b           b c d ",
"          * e <           1 f g ",
"          h ^ i           [ j k ",
"          l m n           o p q ",
"          r s |       < t u v w ",
"      = x y z A     B 0 p C D E ",
"    y F G H I J   x # K L - M   ",
"  # N O P Q (     R S - n T     ",
"  U 0 4 V d         T W X       ",
"    Y Z `                       ",
"                                "};
