/* XPM */
static const char * picture_empty_xpm[] = {
"16 16 101 2",
"  	c None",
". 	c #A1B3CE",
"+ 	c #9FB1CF",
"@ 	c #95ABCD",
"# 	c #8EA7CD",
"$ 	c #8EA6CD",
"% 	c #93AACD",
"& 	c #9BAFCD",
"* 	c #9FB2CF",
"= 	c #EBECEC",
"- 	c #F3F4F4",
"; 	c #F4F5F7",
"> 	c #F3F5F7",
", 	c #F2F5F7",
"' 	c #F0F5F7",
") 	c #F0F5F8",
"! 	c #EFF4F8",
"~ 	c #EEF3F8",
"{ 	c #ECF3F8",
"] 	c #ECF3F7",
"^ 	c #E9EFF2",
"/ 	c #97ADCE",
"( 	c #F2F3F4",
"_ 	c #96B5E3",
": 	c #93B2E2",
"< 	c #8FB0E0",
"[ 	c #8CADDF",
"} 	c #88AADD",
"| 	c #84A7DC",
"1 	c #81A5DA",
"2 	c #7EA2D9",
"3 	c #7BA0D8",
"4 	c #799ED7",
"5 	c #EBF2F7",
"6 	c #94ABCF",
"7 	c #8FA7CD",
"8 	c #97B5E4",
"9 	c #93B3E2",
"0 	c #90B0E1",
"a 	c #85A8DC",
"b 	c #7EA3D9",
"c 	c #7CA1D8",
"d 	c #7A9FD7",
"e 	c #E9F0F7",
"f 	c #94B3E2",
"g 	c #8DAEDF",
"h 	c #89ABDE",
"i 	c #86A8DC",
"j 	c #83A6DB",
"k 	c #80A4DA",
"l 	c #7DA2D9",
"m 	c #E8F0F6",
"n 	c #94ABCE",
"o 	c #98B6E4",
"p 	c #95B4E3",
"q 	c #91B1E1",
"r 	c #8EAFE0",
"s 	c #8BACDE",
"t 	c #87AADD",
"u 	c #82A5DB",
"v 	c #E7EFF5",
"w 	c #EFF4F7",
"x 	c #99B7E5",
"y 	c #8DADDF",
"z 	c #8AABDE",
"A 	c #87A9DD",
"B 	c #E7EEF6",
"C 	c #EEF3F7",
"D 	c #9AB8E5",
"E 	c #97B6E4",
"F 	c #92B1E1",
"G 	c #8FAFE0",
"H 	c #EDF2F7",
"I 	c #9CB9E6",
"J 	c #E6EEF6",
"K 	c #ECF1F7",
"L 	c #9DBAE6",
"M 	c #9BB8E5",
"N 	c #99B7E4",
"O 	c #8DA6CC",
"P 	c #EDF1F7",
"Q 	c #9EBBE7",
"R 	c #E6EDF6",
"S 	c #93AACE",
"T 	c #8EA6CC",
"U 	c #EDF1F6",
"V 	c #A0BCE7",
"W 	c #E6EDF7",
"X 	c #96ABCD",
"Y 	c #EDEFF1",
"Z 	c #F1F3F7",
"` 	c #F1F4F8",
" .	c #F0F4F8",
"..	c #F0F4F7",
"+.	c #F0F3F7",
"@.	c #EFF3F7",
"#.	c #EFF3F8",
"$.	c #EBEFF2",
"%.	c #97ADCF",
"&.	c #9CAFCE",
"*.	c #9AAECF",
"                                ",
"  . + @ # # # # # $ $ $ $ % &   ",
"  * = - ; > , ' ) ! ~ { ] ^ /   ",
"  @ ( _ : < [ } | 1 2 3 4 5 6   ",
"  7 ; 8 9 0 [ } a 1 b c d e 6   ",
"  7 , 8 f 0 g h i j k l c m n   ",
"  7 ' o p q r s t | u k b v n   ",
"  7 w x _ : 0 y z A | j 1 B n   ",
"  7 C D E p F G [ z t i a B n   ",
"  # H I x _ f q G y s h } J n   ",
"  # K L M N _ f F 0 r g [ J n   ",
"  O P Q L M N _ p : q 0 0 R S   ",
"  T U V Q L M x E _ p f 9 W S   ",
"  X Y Z `  ...+.@.@.@.@.#.$.%.  ",
"  &.*.n S S S S S S S S S / &.  ",
"                                "};
