/* XPM */
static const char * rainbow_xpm[] = {
"16 16 77 1",
" 	c None",
".	c #DB0500",
"+	c #E96356",
"@	c #EB7768",
"#	c #EC7E6E",
"$	c #ED8070",
"%	c #E2382E",
"&	c #EB7667",
"*	c #EE8470",
"=	c #F29576",
"-	c #F27C3D",
";	c #F58738",
">	c #FBB77D",
",	c #F77700",
"'	c #E96558",
")	c #EE8773",
"!	c #F07946",
"~	c #F68835",
"{	c #F99537",
"]	c #FA9737",
"^	c #FCBC7E",
"/	c #F97B00",
"(	c #EC7D6D",
"_	c #F29476",
":	c #F48032",
"<	c #FA9537",
"[	c #F9A540",
"}	c #F8B94D",
"|	c #F7C857",
"1	c #F9E296",
"2	c #F3CB33",
"3	c #ED7F6F",
"4	c #F39B77",
"5	c #F88D35",
"6	c #F9A741",
"7	c #F7C153",
"8	c #F6D45E",
"9	c #F6D861",
"0	c #F9E699",
"a	c #F3CD35",
"b	c #F99136",
"c	c #F8B44A",
"d	c #F6D05C",
"e	c #E3D45C",
"f	c #ADC74E",
"g	c #7CBC41",
"h	c #96CF7F",
"i	c #1B9D00",
"j	c #F8BA4E",
"k	c #F6D660",
"l	c #F5D861",
"m	c #ABC64D",
"n	c #64B73B",
"o	c #4AB234",
"p	c #47B133",
"q	c #88CC7C",
"r	c #139B00",
"s	c #EE8672",
"t	c #F48134",
"u	c #EAD55E",
"v	c #8BBF44",
"w	c #4CB234",
"x	c #5BA376",
"y	c #6A99A7",
"z	c #A3BAD2",
"A	c #4B75AF",
"B	c #F49D78",
"C	c #48B133",
"D	c #51AA54",
"E	c #6A98A7",
"F	c #A4BAD6",
"G	c #A5BAD7",
"H	c #A2B8D6",
"I	c #80A3BC",
"J	c #88A4CA",
"K	c #6387BA",
"L	c #7091BF",
"           .....",
"        ...+@#$.",
"       .%&*=-;>,",
"     ..')!~{]]^/",
"    ..(_:<][}|12",
"   ..345]678990a",
"   .(4b]cd9efghi",
"  .'_5]jklmnopqr",
" ..st]ckuvwpxyzA",
" .&B<6dlvCDEFGHA",
" .*~]79mwDIGJKAA",
".+={[8enpEGLA   ",
".@-]}9foxFJA    ",
".#;]|9gpyGK     ",
".$>^10hqzHA     ",
"..,/2airAAA     "};
