/* XPM */
static const char * red_flag_xpm[] = {
"16 16 32 1",
" 	c None",
".	c #F35151",
"+	c #F34C4C",
"@	c #C8524B",
"#	c #F39F9E",
"$	c #FCE5E5",
"%	c #EB6D6D",
"&	c #B80606",
"*	c #F35959",
"=	c #F37B7B",
"-	c #F35555",
";	c #F36363",
">	c #F28A89",
",	c #F9D3D3",
"'	c #F36D6D",
")	c #F35D5D",
"!	c #543318",
"~	c #F49797",
"{	c #F5B2B2",
"]	c #9B4534",
"^	c #603B1C",
"/	c #C90E0E",
"(	c #FDEAEA",
"_	c #FBE0E0",
":	c #DF2323",
"<	c #F9CECE",
"[	c #8B2F1D",
"}	c #E93535",
"|	c #D81B1B",
"1	c #B17645",
"2	c #593619",
"3	c #FFFFFF",
"                ",
" 33333333333333 ",
" 3#~>==';*.2223 ",
" 3~(_$,<###@123 ",
" 3>_;)**..+@1^3 ",
" 3=,)**-..+]1^3 ",
" 3'{**-..++]1^3 ",
" 3;#*-...++]123 ",
" 3)~...++++]1!3 ",
" 3->%%%%%%%[1!3 ",
" 3}:|///&&&21!3 ",
" 333333333321!3 ",
"          321!3 ",
"          32123 ",
"          32223 ",
"          33333 "};
