/* XPM */
static const char * rosette_xpm[] = {
"16 16 121 2",
"  	c None",
". 	c #FB0505",
"+ 	c #FC3434",
"@ 	c #FC2222",
"# 	c #FB0000",
"$ 	c #FD4F51",
"% 	c #FD5D61",
"& 	c #FD6365",
"* 	c #FC1C1D",
"= 	c #FC3535",
"- 	c #F90A0A",
"; 	c #FD5254",
"> 	c #FD7175",
", 	c #FD656A",
"' 	c #FD6E72",
") 	c #FD7277",
"! 	c #FC6367",
"~ 	c #FD6F72",
"{ 	c #FA3132",
"] 	c #FB0B0B",
"^ 	c #FC2B2E",
"/ 	c #FD565B",
"( 	c #FC5B61",
"_ 	c #F5393F",
": 	c #EF3439",
"< 	c #F03238",
"[ 	c #F5363B",
"} 	c #FB585C",
"| 	c #FC6266",
"1 	c #F91111",
"2 	c #FC2626",
"3 	c #FD787C",
"4 	c #FD656B",
"5 	c #F5363C",
"6 	c #F5343A",
"7 	c #FA3339",
"8 	c #FA3237",
"9 	c #F93035",
"0 	c #F73136",
"a 	c #FC5D61",
"b 	c #FB4447",
"c 	c #EF2929",
"d 	c #FB0101",
"e 	c #FD5055",
"f 	c #FC5055",
"g 	c #F03237",
"h 	c #FC3036",
"i 	c #FC2F34",
"j 	c #FB2D32",
"k 	c #F62C30",
"l 	c #FD5559",
"m 	c #F85B5E",
"n 	c #E60F0F",
"o 	c #FA3333",
"p 	c #FD7276",
"q 	c #FD6165",
"r 	c #F33035",
"s 	c #FB2F35",
"t 	c #FC2E33",
"u 	c #FC2C31",
"v 	c #FB2B2F",
"w 	c #F7292E",
"x 	c #FC4C50",
"y 	c #F8393B",
"z 	c #E50404",
"A 	c #FA1616",
"B 	c #FD6265",
"C 	c #F63137",
"D 	c #FA2D32",
"E 	c #FB2B30",
"F 	c #FB2A2E",
"G 	c #FA282D",
"H 	c #FD6668",
"I 	c #F65D5F",
"J 	c #E82828",
"K 	c #F51717",
"L 	c #F33335",
"M 	c #FC676B",
"N 	c #FB464A",
"O 	c #F72D32",
"P 	c #F7282D",
"Q 	c #F7272B",
"R 	c #F7292D",
"S 	c #FB5B5E",
"T 	c #F24F50",
"U 	c #E32627",
"V 	c #F21515",
"W 	c #F85052",
"X 	c #FC575B",
"Y 	c #FD686B",
"Z 	c #FD5255",
"` 	c #FC4E52",
" .	c #FC6164",
"..	c #FC6265",
"+.	c #E83031",
"@.	c #E40303",
"#.	c #EB3C3D",
"$.	c #F54648",
"%.	c #FB6769",
"&.	c #F54246",
"*.	c #EE4445",
"=.	c #E42E2E",
"-.	c #E02929",
";.	c #FF0A0A",
">.	c #F50404",
",.	c #E50202",
"'.	c #E23939",
").	c #D70404",
"!.	c #EB0707",
"~.	c #EF0202",
"{.	c #FA0000",
"].	c #FF0303",
"^.	c #FD0000",
"/.	c #F90000",
"(.	c #F40000",
"_.	c #FF0000",
":.	c #FC0000",
"<.	c #F60000",
"[.	c #F20000",
"}.	c #F10000",
"|.	c #F70000",
"              . +               ",
"        @ # $ % & * = -         ",
"      # ; > , ' ) ! ~ {         ",
"    ] ^ / ( _ : < [ } | 1       ",
"    2 3 4 5 6 7 8 9 0 a b c     ",
"    d e f g 8 h i j k l m n     ",
"    o p q r s t u v w x y z     ",
"    A ' B C D E F G w H I J     ",
"    K L M N O P Q R S T U       ",
"      V W X Y Z `  ...+.        ",
"        @.#.$.%.&.*.=.-.        ",
"        ;.>.,.'.).!.~.{.        ",
"        ].^./.(.].^./.(.        ",
"      _.:./.<.[.:./.<.[.}.      ",
"      ^.{./.|.<.{./.|.<.(.      ",
"    ^.^.:.:.#     :.# {.{./.    "};
