/* XPM */
static const char * tux_xpm[] = {
"16 16 101 2",
"  	c None",
". 	c #252527",
"+ 	c #242425",
"@ 	c #282828",
"# 	c #242424",
"$ 	c #323232",
"% 	c #383839",
"& 	c #2A2C2D",
"* 	c #3C3D3E",
"= 	c #2D2D2E",
"- 	c #56524A",
"; 	c #D8D5C7",
"> 	c #BBB9B1",
", 	c #414141",
"' 	c #CFB22F",
") 	c #FCDD2F",
"! 	c #F7D730",
"~ 	c #837034",
"{ 	c #24262F",
"] 	c #BEAE6F",
"^ 	c #E1C246",
"/ 	c #EAD07A",
"( 	c #7F7D79",
"_ 	c #313134",
": 	c #6E6E6F",
"< 	c #F3F4F6",
"[ 	c #E6E5E7",
"} 	c #FCFEFF",
"| 	c #C2C2C1",
"1 	c #2D2D2D",
"2 	c #B1B1B1",
"3 	c #FFFFFF",
"4 	c #FCFCFD",
"5 	c #FCFCFC",
"6 	c #F1F1F0",
"7 	c #424243",
"8 	c #565657",
"9 	c #F3F3F1",
"0 	c #FFFFFE",
"a 	c #FDFDFC",
"b 	c #C3C3C2",
"c 	c #383838",
"d 	c #272727",
"e 	c #A5A5A5",
"f 	c #F9F9F7",
"g 	c #FCFCFB",
"h 	c #515151",
"i 	c #242427",
"j 	c #323130",
"k 	c #BFBFC2",
"l 	c #F7F7F6",
"m 	c #FCFCFA",
"n 	c #FFFFFD",
"o 	c #5D5D5E",
"p 	c #D0A728",
"q 	c #A49870",
"r 	c #E6E8EF",
"s 	c #FDCF53",
"t 	c #60552D",
"u 	c #6D602D",
"v 	c #D8AB32",
"w 	c #F8C72D",
"x 	c #FFCF2E",
"y 	c #C9A124",
"z 	c #53514B",
"A 	c #D4D5D8",
"B 	c #FAFDFF",
"C 	c #F6BE36",
"D 	c #E2A427",
"E 	c #C99128",
"F 	c #F5B429",
"G 	c #DDAC2E",
"H 	c #FCCB2E",
"I 	c #F8C52D",
"J 	c #FEC72A",
"K 	c #9C8233",
"L 	c #C8CACF",
"M 	c #B1B3BA",
"N 	c #BC8D33",
"O 	c #FFBC28",
"P 	c #FFBC29",
"Q 	c #FEBC29",
"R 	c #EDAB2C",
"S 	c #D29F2C",
"T 	c #EAB52D",
"U 	c #F3BD2D",
"V 	c #FEC72D",
"W 	c #EBB32F",
"X 	c #7C725F",
"Y 	c #717276",
"Z 	c #5A5A5B",
"` 	c #27272B",
" .	c #886526",
"..	c #FFBE2A",
"+.	c #F6B32A",
"@.	c #CB8B2A",
"#.	c #8D6A29",
"$.	c #A7792A",
"%.	c #8E6928",
"&.	c #BA7E28",
"*.	c #9F6929",
"            . + @               ",
"            # # @ $             ",
"            % & * = #           ",
"            - ; > , #           ",
"            ' ) ! ~ {           ",
"            ] ^ / ( _           ",
"          : < [ } | 1 #         ",
"        # 2 3 4 5 6 7 # .       ",
"        8 9 0 a a 0 b c d       ",
"      # e 3 f g a 0 0 h + i     ",
"      j k 3 l m a n 3 o # i     ",
"      p q r a m a 3 s t i u     ",
"  v w x y z A 3 0 B C D E F     ",
"  G H I J K L 3 3 M N O P Q R   ",
"  S T U V W X Y Z `  ...+.@.    ",
"      #.$.%.          &.*.      "};
