/* XPM */
static const char * white_flag_xpm[] = {
"16 16 32 1",
" 	c None",
".	c #BDDEFD",
"+	c #4A576E",
"@	c #C3E1FD",
"#	c #7793B0",
"$	c #6D839C",
"%	c #546988",
"&	c #543318",
"*	c #EBF1F7",
"=	c #ABD6FF",
"-	c #B1D9FE",
";	c #E5EEF6",
">	c #F3F6FA",
",	c #A5D2FE",
"'	c #AED3E5",
")	c #D5E3EC",
"!	c #C9E4FE",
"~	c #B6DBFF",
"{	c #8CB3CC",
"]	c #96BCD3",
"^	c #E3EAF1",
"/	c #E6EDF3",
"(	c #9FC3D7",
"_	c #A8CBDD",
":	c #7BA0BB",
"<	c #83A9C3",
"[	c #E8EFF6",
"}	c #B0D1E3",
"|	c #E4EBF2",
"1	c #B17645",
"2	c #593619",
"3	c #FFFFFF",
"                ",
" 33333333333333 ",
" 3)'}_(]{<:2223 ",
" 3');*[**;;$123 ",
" 3}[!!!@@@@$123 ",
" 3]>@@@..~~$123 ",
" 3{>@@..~~-$123 ",
" 3:*.~--==,$123 ",
" 3#*.--==,,$1&3 ",
" 3$)>*//|^^21&3 ",
" 3#%%%%++++21&3 ",
" 333333333321&3 ",
"          321&3 ",
"          32123 ",
"          32223 ",
"          33333 "};
