/* XPM */
static const char * yellow_flag_xpm[] = {
"16 16 32 1",
" 	c None",
".	c #AE3500",
"+	c #623A15",
"@	c #FFA927",
"#	c #D04F00",
"$	c #FFF1DA",
"%	c #FFC365",
"&	c #FF9E0E",
"*	c #FFA41C",
"=	c #FFEAC6",
"-	c #FFB94A",
";	c #FFAF35",
">	c #FF9904",
",	c #FFCE7B",
"'	c #FFA116",
")	c #FF9C0A",
"!	c #FDA735",
"~	c #DE7904",
"{	c #FFD48C",
"]	c #FFD385",
"^	c #543318",
"/	c #815400",
"(	c #FF9F12",
"_	c #FFAA38",
":	c #FFAD40",
"<	c #FFB23B",
"[	c #FFBE56",
"}	c #FFF5E4",
"|	c #FFDCA1",
"1	c #B17645",
"2	c #593619",
"3	c #FFFFFF",
"                ",
" 33333333333333 ",
" 3],%[-;@*&2223 ",
" 3,}$$=={]]~123 ",
" 3%$@**'&)>~1+3 ",
" 3-=**'(&)>/1+3 ",
" 3<|*'(&)>>/1+3 ",
" 3@{'(&&)>>/123 ",
" 3*,&&)>>>>/1^3 ",
" 3(%:__!!!!+1^3 ",
" 3~~####...21^3 ",
" 333333333321^3 ",
"          321^3 ",
"          32123 ",
"          32223 ",
"          33333 "};
